<?xml version="1.0" encoding="utf-8" standalone="no"?>
<!DOCTYPE svg PUBLIC "-//W3C//DTD SVG 1.1//EN"
  "http://www.w3.org/Graphics/SVG/1.1/DTD/svg11.dtd">
<svg xmlns:xlink="http://www.w3.org/1999/xlink" width="1001.091563pt" height="425.26625pt" viewBox="0 0 1001.091563 425.26625" xmlns="http://www.w3.org/2000/svg" version="1.1">
 <metadata>
  <rdf:RDF xmlns:dc="http://purl.org/dc/elements/1.1/" xmlns:cc="http://creativecommons.org/ns#" xmlns:rdf="http://www.w3.org/1999/02/22-rdf-syntax-ns#">
   <cc:Work>
    <dc:type rdf:resource="http://purl.org/dc/dcmitype/StillImage"/>
    <dc:date>2025-11-16T17:04:51.021448</dc:date>
    <dc:format>image/svg+xml</dc:format>
    <dc:creator>
     <cc:Agent>
      <dc:title>Matplotlib v3.10.7, https://matplotlib.org/</dc:title>
     </cc:Agent>
    </dc:creator>
   </cc:Work>
  </rdf:RDF>
 </metadata>
 <defs>
  <style type="text/css">*{stroke-linejoin: round; stroke-linecap: butt}</style>
 </defs>
 <g id="figure_1">
  <g id="patch_1">
   <path d="M 0 425.26625 
L 1001.091563 425.26625 
L 1001.091563 -0 
L 0 -0 
z
" style="fill: #ffffff"/>
  </g>
  <g id="axes_1">
   <g id="patch_2">
    <path d="M 42.621563 390.005625 
L 495.381563 390.005625 
L 495.381563 23.345625 
L 42.621563 23.345625 
z
" style="fill: #eaeaf2"/>
   </g>
   <g id="matplotlib.axis_1">
    <g id="xtick_1">
     <g id="line2d_1">
      <path d="M 95.696299 390.005625 
L 95.696299 23.345625 
" clip-path="url(#p2801b8b3ba)" style="fill: none; stroke: #ffffff; stroke-opacity: 0.3; stroke-width: 0.8; stroke-linecap: round"/>
     </g>
     <g id="line2d_2"/>
     <g id="text_1">
      <!-- 2.5 -->
      <g style="fill: #262626" transform="translate(88.746299 400.7525) scale(0.1 -0.1)">
       <defs>
        <path id="LiberationSans-32" d="M 322 0 
L 322 397 
Q 481 763 711 1042 
Q 941 1322 1194 1548 
Q 1447 1775 1695 1969 
Q 1944 2163 2144 2356 
Q 2344 2550 2467 2762 
Q 2591 2975 2591 3244 
Q 2591 3606 2378 3806 
Q 2166 4006 1788 4006 
Q 1428 4006 1195 3811 
Q 963 3616 922 3263 
L 347 3316 
Q 409 3844 795 4156 
Q 1181 4469 1788 4469 
Q 2453 4469 2811 4155 
Q 3169 3841 3169 3263 
Q 3169 3006 3051 2753 
Q 2934 2500 2703 2247 
Q 2472 1994 1819 1463 
Q 1459 1169 1246 933 
Q 1034 697 941 478 
L 3238 478 
L 3238 0 
L 322 0 
z
" transform="scale(0.015625)"/>
        <path id="LiberationSans-2e" d="M 584 0 
L 584 684 
L 1194 684 
L 1194 0 
L 584 0 
z
" transform="scale(0.015625)"/>
        <path id="LiberationSans-35" d="M 3291 1434 
Q 3291 738 2877 337 
Q 2463 -63 1728 -63 
Q 1113 -63 734 206 
Q 356 475 256 984 
L 825 1050 
Q 1003 397 1741 397 
Q 2194 397 2450 670 
Q 2706 944 2706 1422 
Q 2706 1838 2448 2094 
Q 2191 2350 1753 2350 
Q 1525 2350 1328 2278 
Q 1131 2206 934 2034 
L 384 2034 
L 531 4403 
L 3034 4403 
L 3034 3925 
L 1044 3925 
L 959 2528 
Q 1325 2809 1869 2809 
Q 2519 2809 2905 2428 
Q 3291 2047 3291 1434 
z
" transform="scale(0.015625)"/>
       </defs>
       <use xlink:href="#LiberationSans-32"/>
       <use xlink:href="#LiberationSans-2e" transform="translate(55.615234 0)"/>
       <use xlink:href="#LiberationSans-35" transform="translate(83.398438 0)"/>
      </g>
     </g>
    </g>
    <g id="xtick_2">
     <g id="line2d_3">
      <path d="M 149.854194 390.005625 
L 149.854194 23.345625 
" clip-path="url(#p2801b8b3ba)" style="fill: none; stroke: #ffffff; stroke-opacity: 0.3; stroke-width: 0.8; stroke-linecap: round"/>
     </g>
     <g id="line2d_4"/>
     <g id="text_2">
      <!-- 5.0 -->
      <g style="fill: #262626" transform="translate(142.904194 400.7525) scale(0.1 -0.1)">
       <defs>
        <path id="LiberationSans-30" d="M 3309 2203 
Q 3309 1100 2920 518 
Q 2531 -63 1772 -63 
Q 1013 -63 631 515 
Q 250 1094 250 2203 
Q 250 3338 620 3903 
Q 991 4469 1791 4469 
Q 2569 4469 2939 3897 
Q 3309 3325 3309 2203 
z
M 2738 2203 
Q 2738 3156 2517 3584 
Q 2297 4013 1791 4013 
Q 1272 4013 1045 3591 
Q 819 3169 819 2203 
Q 819 1266 1048 831 
Q 1278 397 1778 397 
Q 2275 397 2506 840 
Q 2738 1284 2738 2203 
z
" transform="scale(0.015625)"/>
       </defs>
       <use xlink:href="#LiberationSans-35"/>
       <use xlink:href="#LiberationSans-2e" transform="translate(55.615234 0)"/>
       <use xlink:href="#LiberationSans-30" transform="translate(83.398438 0)"/>
      </g>
     </g>
    </g>
    <g id="xtick_3">
     <g id="line2d_5">
      <path d="M 204.012089 390.005625 
L 204.012089 23.345625 
" clip-path="url(#p2801b8b3ba)" style="fill: none; stroke: #ffffff; stroke-opacity: 0.3; stroke-width: 0.8; stroke-linecap: round"/>
     </g>
     <g id="line2d_6"/>
     <g id="text_3">
      <!-- 7.5 -->
      <g style="fill: #262626" transform="translate(197.062089 400.7525) scale(0.1 -0.1)">
       <defs>
        <path id="LiberationSans-37" d="M 3238 3947 
Q 2563 2916 2284 2331 
Q 2006 1747 1867 1178 
Q 1728 609 1728 0 
L 1141 0 
Q 1141 844 1498 1776 
Q 1856 2709 2694 3925 
L 328 3925 
L 328 4403 
L 3238 4403 
L 3238 3947 
z
" transform="scale(0.015625)"/>
       </defs>
       <use xlink:href="#LiberationSans-37"/>
       <use xlink:href="#LiberationSans-2e" transform="translate(55.615234 0)"/>
       <use xlink:href="#LiberationSans-35" transform="translate(83.398438 0)"/>
      </g>
     </g>
    </g>
    <g id="xtick_4">
     <g id="line2d_7">
      <path d="M 258.169984 390.005625 
L 258.169984 23.345625 
" clip-path="url(#p2801b8b3ba)" style="fill: none; stroke: #ffffff; stroke-opacity: 0.3; stroke-width: 0.8; stroke-linecap: round"/>
     </g>
     <g id="line2d_8"/>
     <g id="text_4">
      <!-- 10.0 -->
      <g style="fill: #262626" transform="translate(248.439515 400.7525) scale(0.1 -0.1)">
       <defs>
        <path id="LiberationSans-31" d="M 488 0 
L 488 478 
L 1609 478 
L 1609 3866 
L 616 3156 
L 616 3688 
L 1656 4403 
L 2175 4403 
L 2175 478 
L 3247 478 
L 3247 0 
L 488 0 
z
" transform="scale(0.015625)"/>
       </defs>
       <use xlink:href="#LiberationSans-31"/>
       <use xlink:href="#LiberationSans-30" transform="translate(55.615234 0)"/>
       <use xlink:href="#LiberationSans-2e" transform="translate(111.230469 0)"/>
       <use xlink:href="#LiberationSans-30" transform="translate(139.013672 0)"/>
      </g>
     </g>
    </g>
    <g id="xtick_5">
     <g id="line2d_9">
      <path d="M 312.327878 390.005625 
L 312.327878 23.345625 
" clip-path="url(#p2801b8b3ba)" style="fill: none; stroke: #ffffff; stroke-opacity: 0.3; stroke-width: 0.8; stroke-linecap: round"/>
     </g>
     <g id="line2d_10"/>
     <g id="text_5">
      <!-- 12.5 -->
      <g style="fill: #262626" transform="translate(302.59741 400.7525) scale(0.1 -0.1)">
       <use xlink:href="#LiberationSans-31"/>
       <use xlink:href="#LiberationSans-32" transform="translate(55.615234 0)"/>
       <use xlink:href="#LiberationSans-2e" transform="translate(111.230469 0)"/>
       <use xlink:href="#LiberationSans-35" transform="translate(139.013672 0)"/>
      </g>
     </g>
    </g>
    <g id="xtick_6">
     <g id="line2d_11">
      <path d="M 366.485773 390.005625 
L 366.485773 23.345625 
" clip-path="url(#p2801b8b3ba)" style="fill: none; stroke: #ffffff; stroke-opacity: 0.3; stroke-width: 0.8; stroke-linecap: round"/>
     </g>
     <g id="line2d_12"/>
     <g id="text_6">
      <!-- 15.0 -->
      <g style="fill: #262626" transform="translate(356.755304 400.7525) scale(0.1 -0.1)">
       <use xlink:href="#LiberationSans-31"/>
       <use xlink:href="#LiberationSans-35" transform="translate(55.615234 0)"/>
       <use xlink:href="#LiberationSans-2e" transform="translate(111.230469 0)"/>
       <use xlink:href="#LiberationSans-30" transform="translate(139.013672 0)"/>
      </g>
     </g>
    </g>
    <g id="xtick_7">
     <g id="line2d_13">
      <path d="M 420.643668 390.005625 
L 420.643668 23.345625 
" clip-path="url(#p2801b8b3ba)" style="fill: none; stroke: #ffffff; stroke-opacity: 0.3; stroke-width: 0.8; stroke-linecap: round"/>
     </g>
     <g id="line2d_14"/>
     <g id="text_7">
      <!-- 17.5 -->
      <g style="fill: #262626" transform="translate(410.913199 400.7525) scale(0.1 -0.1)">
       <use xlink:href="#LiberationSans-31"/>
       <use xlink:href="#LiberationSans-37" transform="translate(55.615234 0)"/>
       <use xlink:href="#LiberationSans-2e" transform="translate(111.230469 0)"/>
       <use xlink:href="#LiberationSans-35" transform="translate(139.013672 0)"/>
      </g>
     </g>
    </g>
    <g id="xtick_8">
     <g id="line2d_15">
      <path d="M 474.801563 390.005625 
L 474.801563 23.345625 
" clip-path="url(#p2801b8b3ba)" style="fill: none; stroke: #ffffff; stroke-opacity: 0.3; stroke-width: 0.8; stroke-linecap: round"/>
     </g>
     <g id="line2d_16"/>
     <g id="text_8">
      <!-- 20.0 -->
      <g style="fill: #262626" transform="translate(465.071094 400.7525) scale(0.1 -0.1)">
       <use xlink:href="#LiberationSans-32"/>
       <use xlink:href="#LiberationSans-30" transform="translate(55.615234 0)"/>
       <use xlink:href="#LiberationSans-2e" transform="translate(111.230469 0)"/>
       <use xlink:href="#LiberationSans-30" transform="translate(139.013672 0)"/>
      </g>
     </g>
    </g>
    <g id="text_9">
     <!-- Number of Agents (n) -->
     <g style="fill: #262626" transform="translate(207.9 415.52375) scale(0.12 -0.12)">
      <defs>
       <path id="LiberationSans-Bold-4e" d="M 3109 0 
L 1191 3391 
Q 1247 2897 1247 2597 
L 1247 0 
L 428 0 
L 428 4403 
L 1481 4403 
L 3428 984 
Q 3372 1456 3372 1844 
L 3372 4403 
L 4191 4403 
L 4191 0 
L 3109 0 
z
" transform="scale(0.015625)"/>
       <path id="LiberationSans-Bold-75" d="M 1275 3381 
L 1275 1484 
Q 1275 594 1875 594 
Q 2194 594 2389 867 
Q 2584 1141 2584 1569 
L 2584 3381 
L 3463 3381 
L 3463 756 
Q 3463 325 3488 0 
L 2650 0 
Q 2613 450 2613 672 
L 2597 672 
Q 2422 288 2151 112 
Q 1881 -63 1509 -63 
Q 972 -63 684 267 
Q 397 597 397 1234 
L 397 3381 
L 1275 3381 
z
" transform="scale(0.015625)"/>
       <path id="LiberationSans-Bold-6d" d="M 2438 0 
L 2438 1897 
Q 2438 2788 1925 2788 
Q 1659 2788 1492 2516 
Q 1325 2244 1325 1813 
L 1325 0 
L 447 0 
L 447 2625 
Q 447 2897 439 3070 
Q 431 3244 422 3381 
L 1259 3381 
Q 1269 3322 1284 3064 
Q 1300 2806 1300 2709 
L 1313 2709 
Q 1475 3097 1717 3272 
Q 1959 3447 2297 3447 
Q 3072 3447 3238 2709 
L 3256 2709 
Q 3428 3103 3668 3275 
Q 3909 3447 4281 3447 
Q 4775 3447 5034 3111 
Q 5294 2775 5294 2147 
L 5294 0 
L 4422 0 
L 4422 1897 
Q 4422 2788 3909 2788 
Q 3653 2788 3489 2539 
Q 3325 2291 3309 1853 
L 3309 0 
L 2438 0 
z
" transform="scale(0.015625)"/>
       <path id="LiberationSans-Bold-62" d="M 3647 1703 
Q 3647 866 3311 401 
Q 2975 -63 2350 -63 
Q 1991 -63 1728 93 
Q 1466 250 1325 544 
L 1319 544 
Q 1319 434 1305 243 
Q 1291 53 1275 0 
L 422 0 
Q 447 291 447 772 
L 447 4638 
L 1325 4638 
L 1325 3344 
L 1313 2794 
L 1325 2794 
Q 1622 3444 2406 3444 
Q 3006 3444 3326 2989 
Q 3647 2534 3647 1703 
z
M 2731 1703 
Q 2731 2278 2562 2556 
Q 2394 2834 2041 2834 
Q 1684 2834 1498 2536 
Q 1313 2238 1313 1675 
Q 1313 1138 1495 838 
Q 1678 538 2034 538 
Q 2731 538 2731 1703 
z
" transform="scale(0.015625)"/>
       <path id="LiberationSans-Bold-65" d="M 1831 -63 
Q 1069 -63 659 389 
Q 250 841 250 1706 
Q 250 2544 665 2994 
Q 1081 3444 1844 3444 
Q 2572 3444 2956 2961 
Q 3341 2478 3341 1547 
L 3341 1522 
L 1172 1522 
Q 1172 1028 1355 776 
Q 1538 525 1875 525 
Q 2341 525 2463 928 
L 3291 856 
Q 2931 -63 1831 -63 
z
M 1831 2891 
Q 1522 2891 1355 2675 
Q 1188 2459 1178 2072 
L 2491 2072 
Q 2466 2481 2294 2686 
Q 2122 2891 1831 2891 
z
" transform="scale(0.015625)"/>
       <path id="LiberationSans-Bold-72" d="M 447 0 
L 447 2588 
Q 447 2866 439 3052 
Q 431 3238 422 3381 
L 1259 3381 
Q 1269 3325 1284 3039 
Q 1300 2753 1300 2659 
L 1313 2659 
Q 1441 3016 1541 3161 
Q 1641 3306 1778 3376 
Q 1916 3447 2122 3447 
Q 2291 3447 2394 3400 
L 2394 2666 
Q 2181 2713 2019 2713 
Q 1691 2713 1508 2447 
Q 1325 2181 1325 1659 
L 1325 0 
L 447 0 
z
" transform="scale(0.015625)"/>
       <path id="LiberationSans-Bold-20" transform="scale(0.015625)"/>
       <path id="LiberationSans-Bold-6f" d="M 3659 1694 
Q 3659 872 3203 404 
Q 2747 -63 1941 -63 
Q 1150 -63 700 406 
Q 250 875 250 1694 
Q 250 2509 700 2976 
Q 1150 3444 1959 3444 
Q 2788 3444 3223 2992 
Q 3659 2541 3659 1694 
z
M 2741 1694 
Q 2741 2297 2544 2569 
Q 2347 2841 1972 2841 
Q 1172 2841 1172 1694 
Q 1172 1128 1367 833 
Q 1563 538 1931 538 
Q 2741 538 2741 1694 
z
" transform="scale(0.015625)"/>
       <path id="LiberationSans-Bold-66" d="M 1478 2788 
L 1478 0 
L 603 0 
L 603 2788 
L 109 2788 
L 109 3381 
L 603 3381 
L 603 3734 
Q 603 4194 847 4416 
Q 1091 4638 1588 4638 
Q 1834 4638 2144 4588 
L 2144 4022 
Q 2016 4050 1888 4050 
Q 1663 4050 1570 3961 
Q 1478 3872 1478 3647 
L 1478 3381 
L 2144 3381 
L 2144 2788 
L 1478 2788 
z
" transform="scale(0.015625)"/>
       <path id="LiberationSans-Bold-41" d="M 3541 0 
L 3150 1125 
L 1472 1125 
L 1081 0 
L 159 0 
L 1766 4403 
L 2853 4403 
L 4453 0 
L 3541 0 
z
M 2309 3725 
L 2291 3656 
Q 2259 3544 2215 3400 
Q 2172 3256 1678 1819 
L 2944 1819 
L 2509 3084 
L 2375 3509 
L 2309 3725 
z
" transform="scale(0.015625)"/>
       <path id="LiberationSans-Bold-67" d="M 1863 -1356 
Q 1244 -1356 867 -1120 
Q 491 -884 403 -447 
L 1281 -344 
Q 1328 -547 1483 -662 
Q 1638 -778 1888 -778 
Q 2253 -778 2422 -553 
Q 2591 -328 2591 116 
L 2591 294 
L 2597 628 
L 2591 628 
Q 2300 6 1503 6 
Q 913 6 588 450 
Q 263 894 263 1719 
Q 263 2547 597 2997 
Q 931 3447 1569 3447 
Q 2306 3447 2591 2838 
L 2606 2838 
Q 2606 2947 2620 3134 
Q 2634 3322 2650 3381 
L 3481 3381 
Q 3463 3044 3463 2600 
L 3463 103 
Q 3463 -619 3053 -987 
Q 2644 -1356 1863 -1356 
z
M 2597 1738 
Q 2597 2259 2411 2551 
Q 2225 2844 1881 2844 
Q 1178 2844 1178 1719 
Q 1178 616 1875 616 
Q 2225 616 2411 908 
Q 2597 1200 2597 1738 
z
" transform="scale(0.015625)"/>
       <path id="LiberationSans-Bold-6e" d="M 2638 0 
L 2638 1897 
Q 2638 2788 2034 2788 
Q 1716 2788 1520 2514 
Q 1325 2241 1325 1813 
L 1325 0 
L 447 0 
L 447 2625 
Q 447 2897 439 3070 
Q 431 3244 422 3381 
L 1259 3381 
Q 1269 3322 1284 3064 
Q 1300 2806 1300 2709 
L 1313 2709 
Q 1491 3097 1759 3272 
Q 2028 3447 2400 3447 
Q 2938 3447 3225 3115 
Q 3513 2784 3513 2147 
L 3513 0 
L 2638 0 
z
" transform="scale(0.015625)"/>
       <path id="LiberationSans-Bold-74" d="M 1313 -56 
Q 925 -56 715 155 
Q 506 366 506 794 
L 506 2788 
L 78 2788 
L 78 3381 
L 550 3381 
L 825 4175 
L 1375 4175 
L 1375 3381 
L 2016 3381 
L 2016 2788 
L 1375 2788 
L 1375 1031 
Q 1375 784 1469 667 
Q 1563 550 1759 550 
Q 1863 550 2053 594 
L 2053 50 
Q 1728 -56 1313 -56 
z
" transform="scale(0.015625)"/>
       <path id="LiberationSans-Bold-73" d="M 3297 988 
Q 3297 497 2895 217 
Q 2494 -63 1784 -63 
Q 1088 -63 717 157 
Q 347 378 225 844 
L 997 959 
Q 1063 719 1223 619 
Q 1384 519 1784 519 
Q 2153 519 2322 612 
Q 2491 706 2491 906 
Q 2491 1069 2355 1164 
Q 2219 1259 1894 1325 
Q 1150 1472 890 1598 
Q 631 1725 495 1926 
Q 359 2128 359 2422 
Q 359 2906 732 3176 
Q 1106 3447 1791 3447 
Q 2394 3447 2761 3212 
Q 3128 2978 3219 2534 
L 2441 2453 
Q 2403 2659 2256 2761 
Q 2109 2863 1791 2863 
Q 1478 2863 1322 2783 
Q 1166 2703 1166 2516 
Q 1166 2369 1286 2283 
Q 1406 2197 1691 2141 
Q 2088 2059 2395 1973 
Q 2703 1888 2889 1769 
Q 3075 1650 3186 1464 
Q 3297 1278 3297 988 
z
" transform="scale(0.015625)"/>
       <path id="LiberationSans-Bold-28" d="M 1247 -1328 
Q 756 -622 537 81 
Q 319 784 319 1659 
Q 319 2531 537 3232 
Q 756 3934 1247 4638 
L 2125 4638 
Q 1631 3925 1407 3219 
Q 1184 2513 1184 1656 
Q 1184 803 1406 101 
Q 1628 -600 2125 -1328 
L 1247 -1328 
z
" transform="scale(0.015625)"/>
       <path id="LiberationSans-Bold-29" d="M 6 -1328 
Q 506 -597 726 101 
Q 947 800 947 1656 
Q 947 2516 722 3223 
Q 497 3931 6 4638 
L 884 4638 
Q 1378 3928 1595 3225 
Q 1813 2522 1813 1659 
Q 1813 791 1595 87 
Q 1378 -616 884 -1328 
L 6 -1328 
z
" transform="scale(0.015625)"/>
      </defs>
      <use xlink:href="#LiberationSans-Bold-4e"/>
      <use xlink:href="#LiberationSans-Bold-75" transform="translate(72.216797 0)"/>
      <use xlink:href="#LiberationSans-Bold-6d" transform="translate(133.300781 0)"/>
      <use xlink:href="#LiberationSans-Bold-62" transform="translate(222.216797 0)"/>
      <use xlink:href="#LiberationSans-Bold-65" transform="translate(283.300781 0)"/>
      <use xlink:href="#LiberationSans-Bold-72" transform="translate(338.916016 0)"/>
      <use xlink:href="#LiberationSans-Bold-20" transform="translate(377.832031 0)"/>
      <use xlink:href="#LiberationSans-Bold-6f" transform="translate(405.615234 0)"/>
      <use xlink:href="#LiberationSans-Bold-66" transform="translate(466.699219 0)"/>
      <use xlink:href="#LiberationSans-Bold-20" transform="translate(500 0)"/>
      <use xlink:href="#LiberationSans-Bold-41" transform="translate(524.033203 0)"/>
      <use xlink:href="#LiberationSans-Bold-67" transform="translate(596.25 0)"/>
      <use xlink:href="#LiberationSans-Bold-65" transform="translate(657.333984 0)"/>
      <use xlink:href="#LiberationSans-Bold-6e" transform="translate(712.949219 0)"/>
      <use xlink:href="#LiberationSans-Bold-74" transform="translate(774.033203 0)"/>
      <use xlink:href="#LiberationSans-Bold-73" transform="translate(807.333984 0)"/>
      <use xlink:href="#LiberationSans-Bold-20" transform="translate(862.949219 0)"/>
      <use xlink:href="#LiberationSans-Bold-28" transform="translate(890.732422 0)"/>
      <use xlink:href="#LiberationSans-Bold-6e" transform="translate(924.033203 0)"/>
      <use xlink:href="#LiberationSans-Bold-29" transform="translate(985.117188 0)"/>
     </g>
    </g>
   </g>
   <g id="matplotlib.axis_2">
    <g id="ytick_1">
     <g id="line2d_17">
      <path d="M 42.621563 374.174668 
L 495.381563 374.174668 
" clip-path="url(#p2801b8b3ba)" style="fill: none; stroke: #ffffff; stroke-opacity: 0.3; stroke-width: 0.8; stroke-linecap: round"/>
     </g>
     <g id="line2d_18"/>
     <g id="text_10">
      <!-- 0 -->
      <g style="fill: #262626" transform="translate(33.560625 377.798106) scale(0.1 -0.1)">
       <use xlink:href="#LiberationSans-30"/>
      </g>
     </g>
    </g>
    <g id="ytick_2">
     <g id="line2d_19">
      <path d="M 42.621563 332.404333 
L 495.381563 332.404333 
" clip-path="url(#p2801b8b3ba)" style="fill: none; stroke: #ffffff; stroke-opacity: 0.3; stroke-width: 0.8; stroke-linecap: round"/>
     </g>
     <g id="line2d_20"/>
     <g id="text_11">
      <!-- 50 -->
      <g style="fill: #262626" transform="translate(27.999688 336.027771) scale(0.1 -0.1)">
       <use xlink:href="#LiberationSans-35"/>
       <use xlink:href="#LiberationSans-30" transform="translate(55.615234 0)"/>
      </g>
     </g>
    </g>
    <g id="ytick_3">
     <g id="line2d_21">
      <path d="M 42.621563 290.633998 
L 495.381563 290.633998 
" clip-path="url(#p2801b8b3ba)" style="fill: none; stroke: #ffffff; stroke-opacity: 0.3; stroke-width: 0.8; stroke-linecap: round"/>
     </g>
     <g id="line2d_22"/>
     <g id="text_12">
      <!-- 100 -->
      <g style="fill: #262626" transform="translate(22.43875 294.257436) scale(0.1 -0.1)">
       <use xlink:href="#LiberationSans-31"/>
       <use xlink:href="#LiberationSans-30" transform="translate(55.615234 0)"/>
       <use xlink:href="#LiberationSans-30" transform="translate(111.230469 0)"/>
      </g>
     </g>
    </g>
    <g id="ytick_4">
     <g id="line2d_23">
      <path d="M 42.621563 248.863663 
L 495.381563 248.863663 
" clip-path="url(#p2801b8b3ba)" style="fill: none; stroke: #ffffff; stroke-opacity: 0.3; stroke-width: 0.8; stroke-linecap: round"/>
     </g>
     <g id="line2d_24"/>
     <g id="text_13">
      <!-- 150 -->
      <g style="fill: #262626" transform="translate(22.43875 252.487101) scale(0.1 -0.1)">
       <use xlink:href="#LiberationSans-31"/>
       <use xlink:href="#LiberationSans-35" transform="translate(55.615234 0)"/>
       <use xlink:href="#LiberationSans-30" transform="translate(111.230469 0)"/>
      </g>
     </g>
    </g>
    <g id="ytick_5">
     <g id="line2d_25">
      <path d="M 42.621563 207.093328 
L 495.381563 207.093328 
" clip-path="url(#p2801b8b3ba)" style="fill: none; stroke: #ffffff; stroke-opacity: 0.3; stroke-width: 0.8; stroke-linecap: round"/>
     </g>
     <g id="line2d_26"/>
     <g id="text_14">
      <!-- 200 -->
      <g style="fill: #262626" transform="translate(22.43875 210.716766) scale(0.1 -0.1)">
       <use xlink:href="#LiberationSans-32"/>
       <use xlink:href="#LiberationSans-30" transform="translate(55.615234 0)"/>
       <use xlink:href="#LiberationSans-30" transform="translate(111.230469 0)"/>
      </g>
     </g>
    </g>
    <g id="ytick_6">
     <g id="line2d_27">
      <path d="M 42.621563 165.322993 
L 495.381563 165.322993 
" clip-path="url(#p2801b8b3ba)" style="fill: none; stroke: #ffffff; stroke-opacity: 0.3; stroke-width: 0.8; stroke-linecap: round"/>
     </g>
     <g id="line2d_28"/>
     <g id="text_15">
      <!-- 250 -->
      <g style="fill: #262626" transform="translate(22.43875 168.946431) scale(0.1 -0.1)">
       <use xlink:href="#LiberationSans-32"/>
       <use xlink:href="#LiberationSans-35" transform="translate(55.615234 0)"/>
       <use xlink:href="#LiberationSans-30" transform="translate(111.230469 0)"/>
      </g>
     </g>
    </g>
    <g id="ytick_7">
     <g id="line2d_29">
      <path d="M 42.621563 123.552658 
L 495.381563 123.552658 
" clip-path="url(#p2801b8b3ba)" style="fill: none; stroke: #ffffff; stroke-opacity: 0.3; stroke-width: 0.8; stroke-linecap: round"/>
     </g>
     <g id="line2d_30"/>
     <g id="text_16">
      <!-- 300 -->
      <g style="fill: #262626" transform="translate(22.43875 127.176096) scale(0.1 -0.1)">
       <defs>
        <path id="LiberationSans-33" d="M 3278 1216 
Q 3278 606 2890 271 
Q 2503 -63 1784 -63 
Q 1116 -63 717 239 
Q 319 541 244 1131 
L 825 1184 
Q 938 403 1784 403 
Q 2209 403 2451 612 
Q 2694 822 2694 1234 
Q 2694 1594 2417 1795 
Q 2141 1997 1619 1997 
L 1300 1997 
L 1300 2484 
L 1606 2484 
Q 2069 2484 2323 2686 
Q 2578 2888 2578 3244 
Q 2578 3597 2370 3801 
Q 2163 4006 1753 4006 
Q 1381 4006 1151 3815 
Q 922 3625 884 3278 
L 319 3322 
Q 381 3863 767 4166 
Q 1153 4469 1759 4469 
Q 2422 4469 2789 4161 
Q 3156 3853 3156 3303 
Q 3156 2881 2920 2617 
Q 2684 2353 2234 2259 
L 2234 2247 
Q 2728 2194 3003 1916 
Q 3278 1638 3278 1216 
z
" transform="scale(0.015625)"/>
       </defs>
       <use xlink:href="#LiberationSans-33"/>
       <use xlink:href="#LiberationSans-30" transform="translate(55.615234 0)"/>
       <use xlink:href="#LiberationSans-30" transform="translate(111.230469 0)"/>
      </g>
     </g>
    </g>
    <g id="ytick_8">
     <g id="line2d_31">
      <path d="M 42.621563 81.782324 
L 495.381563 81.782324 
" clip-path="url(#p2801b8b3ba)" style="fill: none; stroke: #ffffff; stroke-opacity: 0.3; stroke-width: 0.8; stroke-linecap: round"/>
     </g>
     <g id="line2d_32"/>
     <g id="text_17">
      <!-- 350 -->
      <g style="fill: #262626" transform="translate(22.43875 85.405761) scale(0.1 -0.1)">
       <use xlink:href="#LiberationSans-33"/>
       <use xlink:href="#LiberationSans-35" transform="translate(55.615234 0)"/>
       <use xlink:href="#LiberationSans-30" transform="translate(111.230469 0)"/>
      </g>
     </g>
    </g>
    <g id="ytick_9">
     <g id="line2d_33">
      <path d="M 42.621563 40.011989 
L 495.381563 40.011989 
" clip-path="url(#p2801b8b3ba)" style="fill: none; stroke: #ffffff; stroke-opacity: 0.3; stroke-width: 0.8; stroke-linecap: round"/>
     </g>
     <g id="line2d_34"/>
     <g id="text_18">
      <!-- 400 -->
      <g style="fill: #262626" transform="translate(22.43875 43.635426) scale(0.1 -0.1)">
       <defs>
        <path id="LiberationSans-34" d="M 2753 997 
L 2753 0 
L 2222 0 
L 2222 997 
L 147 997 
L 147 1434 
L 2163 4403 
L 2753 4403 
L 2753 1441 
L 3372 1441 
L 3372 997 
L 2753 997 
z
M 2222 3769 
Q 2216 3750 2134 3603 
Q 2053 3456 2013 3397 
L 884 1734 
L 716 1503 
L 666 1441 
L 2222 1441 
L 2222 3769 
z
" transform="scale(0.015625)"/>
       </defs>
       <use xlink:href="#LiberationSans-34"/>
       <use xlink:href="#LiberationSans-30" transform="translate(55.615234 0)"/>
       <use xlink:href="#LiberationSans-30" transform="translate(111.230469 0)"/>
      </g>
     </g>
    </g>
    <g id="text_19">
     <!-- Coordination Messages -->
     <g style="fill: #262626" transform="translate(15.89625 274.349063) rotate(-90) scale(0.12 -0.12)">
      <defs>
       <path id="LiberationSans-Bold-43" d="M 2484 663 
Q 3319 663 3644 1500 
L 4447 1197 
Q 4188 559 3686 248 
Q 3184 -63 2484 -63 
Q 1422 -63 842 539 
Q 263 1141 263 2222 
Q 263 3306 822 3887 
Q 1381 4469 2444 4469 
Q 3219 4469 3706 4158 
Q 4194 3847 4391 3244 
L 3578 3022 
Q 3475 3353 3173 3548 
Q 2872 3744 2463 3744 
Q 1838 3744 1514 3356 
Q 1191 2969 1191 2222 
Q 1191 1463 1523 1063 
Q 1856 663 2484 663 
z
" transform="scale(0.015625)"/>
       <path id="LiberationSans-Bold-64" d="M 2638 0 
Q 2625 47 2608 236 
Q 2591 425 2591 550 
L 2578 550 
Q 2294 -63 1497 -63 
Q 906 -63 584 398 
Q 263 859 263 1688 
Q 263 2528 602 2986 
Q 941 3444 1563 3444 
Q 1922 3444 2183 3294 
Q 2444 3144 2584 2847 
L 2591 2847 
L 2584 3403 
L 2584 4638 
L 3463 4638 
L 3463 738 
Q 3463 425 3488 0 
L 2638 0 
z
M 2597 1709 
Q 2597 2256 2414 2551 
Q 2231 2847 1875 2847 
Q 1522 2847 1350 2561 
Q 1178 2275 1178 1688 
Q 1178 538 1869 538 
Q 2216 538 2406 842 
Q 2597 1147 2597 1709 
z
" transform="scale(0.015625)"/>
       <path id="LiberationSans-Bold-69" d="M 447 3991 
L 447 4638 
L 1325 4638 
L 1325 3991 
L 447 3991 
z
M 447 0 
L 447 3381 
L 1325 3381 
L 1325 0 
L 447 0 
z
" transform="scale(0.015625)"/>
       <path id="LiberationSans-Bold-61" d="M 1228 -63 
Q 738 -63 463 204 
Q 188 472 188 956 
Q 188 1481 530 1756 
Q 872 2031 1522 2038 
L 2250 2050 
L 2250 2222 
Q 2250 2553 2134 2714 
Q 2019 2875 1756 2875 
Q 1513 2875 1398 2764 
Q 1284 2653 1256 2397 
L 341 2441 
Q 425 2934 792 3189 
Q 1159 3444 1794 3444 
Q 2434 3444 2781 3128 
Q 3128 2813 3128 2231 
L 3128 1000 
Q 3128 716 3192 608 
Q 3256 500 3406 500 
Q 3506 500 3600 519 
L 3600 44 
Q 3522 25 3459 9 
Q 3397 -6 3334 -15 
Q 3272 -25 3201 -31 
Q 3131 -38 3038 -38 
Q 2706 -38 2548 125 
Q 2391 288 2359 603 
L 2341 603 
Q 1972 -63 1228 -63 
z
M 2250 1566 
L 1800 1559 
Q 1494 1547 1366 1492 
Q 1238 1438 1170 1325 
Q 1103 1213 1103 1025 
Q 1103 784 1214 667 
Q 1325 550 1509 550 
Q 1716 550 1886 662 
Q 2056 775 2153 973 
Q 2250 1172 2250 1394 
L 2250 1566 
z
" transform="scale(0.015625)"/>
       <path id="LiberationSans-Bold-4d" d="M 4084 0 
L 4084 2669 
Q 4084 2759 4086 2850 
Q 4088 2941 4116 3628 
Q 3894 2788 3788 2456 
L 2994 0 
L 2338 0 
L 1544 2456 
L 1209 3628 
Q 1247 2903 1247 2669 
L 1247 0 
L 428 0 
L 428 4403 
L 1663 4403 
L 2450 1941 
L 2519 1703 
L 2669 1113 
L 2866 1819 
L 3675 4403 
L 4903 4403 
L 4903 0 
L 4084 0 
z
" transform="scale(0.015625)"/>
      </defs>
      <use xlink:href="#LiberationSans-Bold-43"/>
      <use xlink:href="#LiberationSans-Bold-6f" transform="translate(72.216797 0)"/>
      <use xlink:href="#LiberationSans-Bold-6f" transform="translate(133.300781 0)"/>
      <use xlink:href="#LiberationSans-Bold-72" transform="translate(194.384766 0)"/>
      <use xlink:href="#LiberationSans-Bold-64" transform="translate(233.300781 0)"/>
      <use xlink:href="#LiberationSans-Bold-69" transform="translate(294.384766 0)"/>
      <use xlink:href="#LiberationSans-Bold-6e" transform="translate(322.167969 0)"/>
      <use xlink:href="#LiberationSans-Bold-61" transform="translate(383.251953 0)"/>
      <use xlink:href="#LiberationSans-Bold-74" transform="translate(438.867188 0)"/>
      <use xlink:href="#LiberationSans-Bold-69" transform="translate(472.167969 0)"/>
      <use xlink:href="#LiberationSans-Bold-6f" transform="translate(499.951172 0)"/>
      <use xlink:href="#LiberationSans-Bold-6e" transform="translate(561.035156 0)"/>
      <use xlink:href="#LiberationSans-Bold-20" transform="translate(622.119141 0)"/>
      <use xlink:href="#LiberationSans-Bold-4d" transform="translate(649.902344 0)"/>
      <use xlink:href="#LiberationSans-Bold-65" transform="translate(733.203125 0)"/>
      <use xlink:href="#LiberationSans-Bold-73" transform="translate(788.818359 0)"/>
      <use xlink:href="#LiberationSans-Bold-73" transform="translate(844.433594 0)"/>
      <use xlink:href="#LiberationSans-Bold-61" transform="translate(900.048828 0)"/>
      <use xlink:href="#LiberationSans-Bold-67" transform="translate(955.664062 0)"/>
      <use xlink:href="#LiberationSans-Bold-65" transform="translate(1016.748047 0)"/>
      <use xlink:href="#LiberationSans-Bold-73" transform="translate(1072.363281 0)"/>
     </g>
    </g>
   </g>
   <g id="FillBetweenPolyCollection_1">
    <defs>
     <path id="m6ad0014604" d="M 63.201563 -51.926989 
L 63.201563 -52.762395 
L 84.86472 -54.433209 
L 106.527878 -56.104022 
L 128.191036 -57.774836 
L 149.854194 -59.445649 
L 171.517352 -61.116462 
L 193.18051 -62.787276 
L 214.843668 -64.458089 
L 236.506826 -66.128903 
L 258.169984 -67.799716 
L 279.833141 -69.470529 
L 301.496299 -71.141343 
L 323.159457 -72.812156 
L 344.822615 -74.482969 
L 366.485773 -76.153783 
L 388.148931 -77.824596 
L 409.812089 -79.49541 
L 431.475247 -81.166223 
L 453.138405 -82.837036 
L 474.801563 -84.50785 
L 474.801563 -385.254261 
L 474.801563 -385.254261 
L 453.138405 -352.6734 
L 431.475247 -321.763352 
L 409.812089 -292.524118 
L 388.148931 -264.955697 
L 366.485773 -239.058089 
L 344.822615 -214.831295 
L 323.159457 -192.275314 
L 301.496299 -171.390147 
L 279.833141 -152.175792 
L 258.169984 -134.632252 
L 236.506826 -118.759525 
L 214.843668 -104.557611 
L 193.18051 -92.02651 
L 171.517352 -81.166223 
L 149.854194 -71.976749 
L 128.191036 -64.458089 
L 106.527878 -58.610242 
L 84.86472 -54.433209 
L 63.201563 -51.926989 
z
" style="stroke: #d32f2f; stroke-opacity: 0.2"/>
    </defs>
    <g clip-path="url(#p2801b8b3ba)">
     <use xlink:href="#m6ad0014604" x="0" y="425.26625" style="fill: #d32f2f; fill-opacity: 0.2; stroke: #d32f2f; stroke-opacity: 0.2"/>
    </g>
   </g>
   <g id="line2d_35">
    <path d="M 63.201563 373.339261 
L 84.86472 370.833041 
L 106.527878 366.656008 
L 128.191036 360.808161 
L 149.854194 353.289501 
L 171.517352 344.100027 
L 193.18051 333.23974 
L 214.843668 320.708639 
L 236.506826 306.506725 
L 258.169984 290.633998 
L 279.833141 273.090458 
L 301.496299 253.876103 
L 323.159457 232.990936 
L 344.822615 210.434955 
L 366.485773 186.208161 
L 388.148931 160.310553 
L 409.812089 132.742132 
L 431.475247 103.502898 
L 453.138405 72.59285 
L 474.801563 40.011989 
" clip-path="url(#p2801b8b3ba)" style="fill: none; stroke: #d32f2f; stroke-width: 2.5; stroke-linecap: round"/>
    <defs>
     <path id="m671323d073" d="M 0 4 
C 1.060812 4 2.078319 3.578535 2.828427 2.828427 
C 3.578535 2.078319 4 1.060812 4 0 
C 4 -1.060812 3.578535 -2.078319 2.828427 -2.828427 
C 2.078319 -3.578535 1.060812 -4 0 -4 
C -1.060812 -4 -2.078319 -3.578535 -2.828427 -2.828427 
C -3.578535 -2.078319 -4 -1.060812 -4 0 
C -4 1.060812 -3.578535 2.078319 -2.828427 2.828427 
C -2.078319 3.578535 -1.060812 4 0 4 
z
" style="stroke: #d32f2f"/>
    </defs>
    <g clip-path="url(#p2801b8b3ba)">
     <use xlink:href="#m671323d073" x="63.201563" y="373.339261" style="fill: #d32f2f; stroke: #d32f2f"/>
     <use xlink:href="#m671323d073" x="84.86472" y="370.833041" style="fill: #d32f2f; stroke: #d32f2f"/>
     <use xlink:href="#m671323d073" x="106.527878" y="366.656008" style="fill: #d32f2f; stroke: #d32f2f"/>
     <use xlink:href="#m671323d073" x="128.191036" y="360.808161" style="fill: #d32f2f; stroke: #d32f2f"/>
     <use xlink:href="#m671323d073" x="149.854194" y="353.289501" style="fill: #d32f2f; stroke: #d32f2f"/>
     <use xlink:href="#m671323d073" x="171.517352" y="344.100027" style="fill: #d32f2f; stroke: #d32f2f"/>
     <use xlink:href="#m671323d073" x="193.18051" y="333.23974" style="fill: #d32f2f; stroke: #d32f2f"/>
     <use xlink:href="#m671323d073" x="214.843668" y="320.708639" style="fill: #d32f2f; stroke: #d32f2f"/>
     <use xlink:href="#m671323d073" x="236.506826" y="306.506725" style="fill: #d32f2f; stroke: #d32f2f"/>
     <use xlink:href="#m671323d073" x="258.169984" y="290.633998" style="fill: #d32f2f; stroke: #d32f2f"/>
     <use xlink:href="#m671323d073" x="279.833141" y="273.090458" style="fill: #d32f2f; stroke: #d32f2f"/>
     <use xlink:href="#m671323d073" x="301.496299" y="253.876103" style="fill: #d32f2f; stroke: #d32f2f"/>
     <use xlink:href="#m671323d073" x="323.159457" y="232.990936" style="fill: #d32f2f; stroke: #d32f2f"/>
     <use xlink:href="#m671323d073" x="344.822615" y="210.434955" style="fill: #d32f2f; stroke: #d32f2f"/>
     <use xlink:href="#m671323d073" x="366.485773" y="186.208161" style="fill: #d32f2f; stroke: #d32f2f"/>
     <use xlink:href="#m671323d073" x="388.148931" y="160.310553" style="fill: #d32f2f; stroke: #d32f2f"/>
     <use xlink:href="#m671323d073" x="409.812089" y="132.742132" style="fill: #d32f2f; stroke: #d32f2f"/>
     <use xlink:href="#m671323d073" x="431.475247" y="103.502898" style="fill: #d32f2f; stroke: #d32f2f"/>
     <use xlink:href="#m671323d073" x="453.138405" y="72.59285" style="fill: #d32f2f; stroke: #d32f2f"/>
     <use xlink:href="#m671323d073" x="474.801563" y="40.011989" style="fill: #d32f2f; stroke: #d32f2f"/>
    </g>
   </g>
   <g id="line2d_36">
    <path d="M 63.201563 372.503855 
L 84.86472 370.833041 
L 106.527878 369.162228 
L 128.191036 367.491414 
L 149.854194 365.820601 
L 171.517352 364.149788 
L 193.18051 362.478974 
L 214.843668 360.808161 
L 236.506826 359.137347 
L 258.169984 357.466534 
L 279.833141 355.795721 
L 301.496299 354.124907 
L 323.159457 352.454094 
L 344.822615 350.783281 
L 366.485773 349.112467 
L 388.148931 347.441654 
L 409.812089 345.77084 
L 431.475247 344.100027 
L 453.138405 342.429214 
L 474.801563 340.7584 
" clip-path="url(#p2801b8b3ba)" style="fill: none; stroke: #388e3c; stroke-width: 2.5; stroke-linecap: round"/>
    <defs>
     <path id="m0839f5b62a" d="M -4 4 
L 4 4 
L 4 -4 
L -4 -4 
z
" style="stroke: #388e3c; stroke-linejoin: miter"/>
    </defs>
    <g clip-path="url(#p2801b8b3ba)">
     <use xlink:href="#m0839f5b62a" x="63.201563" y="372.503855" style="fill: #388e3c; stroke: #388e3c; stroke-linejoin: miter"/>
     <use xlink:href="#m0839f5b62a" x="84.86472" y="370.833041" style="fill: #388e3c; stroke: #388e3c; stroke-linejoin: miter"/>
     <use xlink:href="#m0839f5b62a" x="106.527878" y="369.162228" style="fill: #388e3c; stroke: #388e3c; stroke-linejoin: miter"/>
     <use xlink:href="#m0839f5b62a" x="128.191036" y="367.491414" style="fill: #388e3c; stroke: #388e3c; stroke-linejoin: miter"/>
     <use xlink:href="#m0839f5b62a" x="149.854194" y="365.820601" style="fill: #388e3c; stroke: #388e3c; stroke-linejoin: miter"/>
     <use xlink:href="#m0839f5b62a" x="171.517352" y="364.149788" style="fill: #388e3c; stroke: #388e3c; stroke-linejoin: miter"/>
     <use xlink:href="#m0839f5b62a" x="193.18051" y="362.478974" style="fill: #388e3c; stroke: #388e3c; stroke-linejoin: miter"/>
     <use xlink:href="#m0839f5b62a" x="214.843668" y="360.808161" style="fill: #388e3c; stroke: #388e3c; stroke-linejoin: miter"/>
     <use xlink:href="#m0839f5b62a" x="236.506826" y="359.137347" style="fill: #388e3c; stroke: #388e3c; stroke-linejoin: miter"/>
     <use xlink:href="#m0839f5b62a" x="258.169984" y="357.466534" style="fill: #388e3c; stroke: #388e3c; stroke-linejoin: miter"/>
     <use xlink:href="#m0839f5b62a" x="279.833141" y="355.795721" style="fill: #388e3c; stroke: #388e3c; stroke-linejoin: miter"/>
     <use xlink:href="#m0839f5b62a" x="301.496299" y="354.124907" style="fill: #388e3c; stroke: #388e3c; stroke-linejoin: miter"/>
     <use xlink:href="#m0839f5b62a" x="323.159457" y="352.454094" style="fill: #388e3c; stroke: #388e3c; stroke-linejoin: miter"/>
     <use xlink:href="#m0839f5b62a" x="344.822615" y="350.783281" style="fill: #388e3c; stroke: #388e3c; stroke-linejoin: miter"/>
     <use xlink:href="#m0839f5b62a" x="366.485773" y="349.112467" style="fill: #388e3c; stroke: #388e3c; stroke-linejoin: miter"/>
     <use xlink:href="#m0839f5b62a" x="388.148931" y="347.441654" style="fill: #388e3c; stroke: #388e3c; stroke-linejoin: miter"/>
     <use xlink:href="#m0839f5b62a" x="409.812089" y="345.77084" style="fill: #388e3c; stroke: #388e3c; stroke-linejoin: miter"/>
     <use xlink:href="#m0839f5b62a" x="431.475247" y="344.100027" style="fill: #388e3c; stroke: #388e3c; stroke-linejoin: miter"/>
     <use xlink:href="#m0839f5b62a" x="453.138405" y="342.429214" style="fill: #388e3c; stroke: #388e3c; stroke-linejoin: miter"/>
     <use xlink:href="#m0839f5b62a" x="474.801563" y="340.7584" style="fill: #388e3c; stroke: #388e3c; stroke-linejoin: miter"/>
    </g>
   </g>
   <g id="patch_3">
    <path d="M 42.621563 390.005625 
L 42.621563 23.345625 
" style="fill: none"/>
   </g>
   <g id="patch_4">
    <path d="M 495.381563 390.005625 
L 495.381563 23.345625 
" style="fill: none"/>
   </g>
   <g id="patch_5">
    <path d="M 42.621563 390.005625 
L 495.381563 390.005625 
" style="fill: none"/>
   </g>
   <g id="patch_6">
    <path d="M 42.621563 23.345625 
L 495.381563 23.345625 
" style="fill: none"/>
   </g>
   <g id="patch_7">
    <path d="M 354.484235 206.245408 
Q 359.97151 197.084091 364.597049 189.361492 
" style="fill: none; stroke: #d32f2f; stroke-width: 1.5; stroke-linecap: round"/>
    <path d="M 360.825916 191.765354 
L 364.597049 189.361492 
L 364.257459 193.820716 
" style="fill: none; stroke: #d32f2f; stroke-width: 1.5; stroke-linecap: round"/>
   </g>
   <g id="text_20">
    <!-- Gap: 195 messages -->
    <g style="fill: #262626" transform="translate(301.496299 217.207246) scale(0.1 -0.1)">
     <defs>
      <path id="LiberationSans-47" d="M 322 2222 
Q 322 3294 897 3881 
Q 1472 4469 2513 4469 
Q 3244 4469 3700 4222 
Q 4156 3975 4403 3431 
L 3834 3263 
Q 3647 3638 3317 3809 
Q 2988 3981 2497 3981 
Q 1734 3981 1331 3520 
Q 928 3059 928 2222 
Q 928 1388 1356 905 
Q 1784 422 2541 422 
Q 2972 422 3345 553 
Q 3719 684 3950 909 
L 3950 1703 
L 2634 1703 
L 2634 2203 
L 4500 2203 
L 4500 684 
Q 4150 328 3642 132 
Q 3134 -63 2541 -63 
Q 1850 -63 1350 212 
Q 850 488 586 1005 
Q 322 1522 322 2222 
z
" transform="scale(0.015625)"/>
      <path id="LiberationSans-61" d="M 1294 -63 
Q 784 -63 528 206 
Q 272 475 272 944 
Q 272 1469 617 1750 
Q 963 2031 1731 2050 
L 2491 2063 
L 2491 2247 
Q 2491 2659 2316 2837 
Q 2141 3016 1766 3016 
Q 1388 3016 1216 2887 
Q 1044 2759 1009 2478 
L 422 2531 
Q 566 3444 1778 3444 
Q 2416 3444 2737 3151 
Q 3059 2859 3059 2306 
L 3059 850 
Q 3059 600 3125 473 
Q 3191 347 3375 347 
Q 3456 347 3559 369 
L 3559 19 
Q 3347 -31 3125 -31 
Q 2813 -31 2670 133 
Q 2528 297 2509 647 
L 2491 647 
Q 2275 259 1989 98 
Q 1703 -63 1294 -63 
z
M 1422 359 
Q 1731 359 1972 500 
Q 2213 641 2352 886 
Q 2491 1131 2491 1391 
L 2491 1669 
L 1875 1656 
Q 1478 1650 1273 1575 
Q 1069 1500 959 1344 
Q 850 1188 850 934 
Q 850 659 998 509 
Q 1147 359 1422 359 
z
" transform="scale(0.015625)"/>
      <path id="LiberationSans-70" d="M 3291 1706 
Q 3291 -63 2047 -63 
Q 1266 -63 997 525 
L 981 525 
Q 994 500 994 -6 
L 994 -1328 
L 431 -1328 
L 431 2691 
Q 431 3213 413 3381 
L 956 3381 
Q 959 3369 965 3292 
Q 972 3216 980 3056 
Q 988 2897 988 2838 
L 1000 2838 
Q 1150 3150 1397 3295 
Q 1644 3441 2047 3441 
Q 2672 3441 2981 3022 
Q 3291 2603 3291 1706 
z
M 2700 1694 
Q 2700 2400 2509 2703 
Q 2319 3006 1903 3006 
Q 1569 3006 1380 2865 
Q 1191 2725 1092 2426 
Q 994 2128 994 1650 
Q 994 984 1206 668 
Q 1419 353 1897 353 
Q 2316 353 2508 661 
Q 2700 969 2700 1694 
z
" transform="scale(0.015625)"/>
      <path id="LiberationSans-3a" d="M 584 2734 
L 584 3381 
L 1194 3381 
L 1194 2734 
L 584 2734 
z
M 584 0 
L 584 647 
L 1194 647 
L 1194 0 
L 584 0 
z
" transform="scale(0.015625)"/>
      <path id="LiberationSans-20" transform="scale(0.015625)"/>
      <path id="LiberationSans-39" d="M 3256 2291 
Q 3256 1156 2842 546 
Q 2428 -63 1663 -63 
Q 1147 -63 836 154 
Q 525 372 391 856 
L 928 941 
Q 1097 391 1672 391 
Q 2156 391 2422 841 
Q 2688 1291 2700 2125 
Q 2575 1844 2272 1673 
Q 1969 1503 1606 1503 
Q 1013 1503 656 1909 
Q 300 2316 300 2988 
Q 300 3678 687 4073 
Q 1075 4469 1766 4469 
Q 2500 4469 2878 3925 
Q 3256 3381 3256 2291 
z
M 2644 2834 
Q 2644 3366 2400 3689 
Q 2156 4013 1747 4013 
Q 1341 4013 1106 3736 
Q 872 3459 872 2988 
Q 872 2506 1106 2226 
Q 1341 1947 1741 1947 
Q 1984 1947 2193 2058 
Q 2403 2169 2523 2372 
Q 2644 2575 2644 2834 
z
" transform="scale(0.015625)"/>
      <path id="LiberationSans-6d" d="M 2400 0 
L 2400 2144 
Q 2400 2634 2265 2821 
Q 2131 3009 1781 3009 
Q 1422 3009 1212 2734 
Q 1003 2459 1003 1959 
L 1003 0 
L 444 0 
L 444 2659 
Q 444 3250 425 3381 
L 956 3381 
Q 959 3366 962 3297 
Q 966 3228 970 3139 
Q 975 3050 981 2803 
L 991 2803 
Q 1172 3163 1406 3303 
Q 1641 3444 1978 3444 
Q 2363 3444 2586 3291 
Q 2809 3138 2897 2803 
L 2906 2803 
Q 3081 3144 3329 3294 
Q 3578 3444 3931 3444 
Q 4444 3444 4676 3166 
Q 4909 2888 4909 2253 
L 4909 0 
L 4353 0 
L 4353 2144 
Q 4353 2634 4218 2821 
Q 4084 3009 3734 3009 
Q 3366 3009 3161 2736 
Q 2956 2463 2956 1959 
L 2956 0 
L 2400 0 
z
" transform="scale(0.015625)"/>
      <path id="LiberationSans-65" d="M 863 1572 
Q 863 991 1103 675 
Q 1344 359 1806 359 
Q 2172 359 2392 506 
Q 2613 653 2691 878 
L 3184 738 
Q 2881 -63 1806 -63 
Q 1056 -63 664 384 
Q 272 831 272 1713 
Q 272 2550 664 2997 
Q 1056 3444 1784 3444 
Q 3275 3444 3275 1647 
L 3275 1572 
L 863 1572 
z
M 2694 2003 
Q 2647 2538 2422 2783 
Q 2197 3028 1775 3028 
Q 1366 3028 1127 2754 
Q 888 2481 869 2003 
L 2694 2003 
z
" transform="scale(0.015625)"/>
      <path id="LiberationSans-73" d="M 2969 934 
Q 2969 456 2608 196 
Q 2247 -63 1597 -63 
Q 966 -63 623 145 
Q 281 353 178 794 
L 675 891 
Q 747 619 972 492 
Q 1197 366 1597 366 
Q 2025 366 2223 497 
Q 2422 628 2422 891 
Q 2422 1091 2284 1216 
Q 2147 1341 1841 1422 
L 1438 1528 
Q 953 1653 748 1773 
Q 544 1894 428 2066 
Q 313 2238 313 2488 
Q 313 2950 642 3192 
Q 972 3434 1603 3434 
Q 2163 3434 2492 3237 
Q 2822 3041 2909 2606 
L 2403 2544 
Q 2356 2769 2151 2889 
Q 1947 3009 1603 3009 
Q 1222 3009 1040 2893 
Q 859 2778 859 2544 
Q 859 2400 934 2306 
Q 1009 2213 1156 2147 
Q 1303 2081 1775 1966 
Q 2222 1853 2419 1758 
Q 2616 1663 2730 1547 
Q 2844 1431 2906 1279 
Q 2969 1128 2969 934 
z
" transform="scale(0.015625)"/>
      <path id="LiberationSans-67" d="M 1713 -1328 
Q 1159 -1328 831 -1111 
Q 503 -894 409 -494 
L 975 -413 
Q 1031 -647 1223 -773 
Q 1416 -900 1728 -900 
Q 2569 -900 2569 84 
L 2569 628 
L 2563 628 
Q 2403 303 2125 139 
Q 1847 -25 1475 -25 
Q 853 -25 561 387 
Q 269 800 269 1684 
Q 269 2581 583 3007 
Q 897 3434 1538 3434 
Q 1897 3434 2161 3270 
Q 2425 3106 2569 2803 
L 2575 2803 
Q 2575 2897 2587 3128 
Q 2600 3359 2613 3381 
L 3147 3381 
Q 3128 3213 3128 2681 
L 3128 97 
Q 3128 -1328 1713 -1328 
z
M 2569 1691 
Q 2569 2103 2456 2401 
Q 2344 2700 2139 2858 
Q 1934 3016 1675 3016 
Q 1244 3016 1047 2703 
Q 850 2391 850 1691 
Q 850 997 1034 694 
Q 1219 391 1666 391 
Q 1931 391 2137 547 
Q 2344 703 2456 995 
Q 2569 1288 2569 1691 
z
" transform="scale(0.015625)"/>
     </defs>
     <use xlink:href="#LiberationSans-47"/>
     <use xlink:href="#LiberationSans-61" transform="translate(77.783203 0)"/>
     <use xlink:href="#LiberationSans-70" transform="translate(133.398438 0)"/>
     <use xlink:href="#LiberationSans-3a" transform="translate(189.013672 0)"/>
     <use xlink:href="#LiberationSans-20" transform="translate(216.796875 0)"/>
     <use xlink:href="#LiberationSans-31" transform="translate(244.580078 0)"/>
     <use xlink:href="#LiberationSans-39" transform="translate(300.195312 0)"/>
     <use xlink:href="#LiberationSans-35" transform="translate(355.810547 0)"/>
     <use xlink:href="#LiberationSans-20" transform="translate(411.425781 0)"/>
     <use xlink:href="#LiberationSans-6d" transform="translate(439.208984 0)"/>
     <use xlink:href="#LiberationSans-65" transform="translate(522.509766 0)"/>
     <use xlink:href="#LiberationSans-73" transform="translate(578.125 0)"/>
     <use xlink:href="#LiberationSans-73" transform="translate(628.125 0)"/>
     <use xlink:href="#LiberationSans-61" transform="translate(678.125 0)"/>
     <use xlink:href="#LiberationSans-67" transform="translate(733.740234 0)"/>
     <use xlink:href="#LiberationSans-65" transform="translate(789.355469 0)"/>
     <use xlink:href="#LiberationSans-73" transform="translate(844.970703 0)"/>
    </g>
    <!-- at n=15 -->
    <g style="fill: #262626" transform="translate(301.496299 227.978496) scale(0.1 -0.1)">
     <defs>
      <path id="LiberationSans-74" d="M 1731 25 
Q 1453 -50 1163 -50 
Q 488 -50 488 716 
L 488 2972 
L 97 2972 
L 97 3381 
L 509 3381 
L 675 4138 
L 1050 4138 
L 1050 3381 
L 1675 3381 
L 1675 2972 
L 1050 2972 
L 1050 838 
Q 1050 594 1129 495 
Q 1209 397 1406 397 
Q 1519 397 1731 441 
L 1731 25 
z
" transform="scale(0.015625)"/>
      <path id="LiberationSans-6e" d="M 2578 0 
L 2578 2144 
Q 2578 2478 2512 2662 
Q 2447 2847 2303 2928 
Q 2159 3009 1881 3009 
Q 1475 3009 1240 2731 
Q 1006 2453 1006 1959 
L 1006 0 
L 444 0 
L 444 2659 
Q 444 3250 425 3381 
L 956 3381 
Q 959 3366 962 3297 
Q 966 3228 970 3139 
Q 975 3050 981 2803 
L 991 2803 
Q 1184 3153 1439 3298 
Q 1694 3444 2072 3444 
Q 2628 3444 2886 3167 
Q 3144 2891 3144 2253 
L 3144 0 
L 2578 0 
z
" transform="scale(0.015625)"/>
      <path id="LiberationSans-3d" d="M 313 2675 
L 313 3138 
L 3422 3138 
L 3422 2675 
L 313 2675 
z
M 313 1075 
L 313 1538 
L 3422 1538 
L 3422 1075 
L 313 1075 
z
" transform="scale(0.015625)"/>
     </defs>
     <use xlink:href="#LiberationSans-61"/>
     <use xlink:href="#LiberationSans-74" transform="translate(55.615234 0)"/>
     <use xlink:href="#LiberationSans-20" transform="translate(83.398438 0)"/>
     <use xlink:href="#LiberationSans-6e" transform="translate(111.181641 0)"/>
     <use xlink:href="#LiberationSans-3d" transform="translate(166.796875 0)"/>
     <use xlink:href="#LiberationSans-31" transform="translate(225.195312 0)"/>
     <use xlink:href="#LiberationSans-35" transform="translate(280.810547 0)"/>
    </g>
   </g>
   <g id="text_21">
    <!-- Coordination Complexity -->
    <g style="fill: #262626" transform="translate(185.7825 17.345625) scale(0.14 -0.14)">
     <defs>
      <path id="LiberationSans-Bold-70" d="M 3647 1706 
Q 3647 859 3308 398 
Q 2969 -63 2350 -63 
Q 1994 -63 1730 92 
Q 1466 247 1325 538 
L 1306 538 
Q 1325 444 1325 -31 
L 1325 -1328 
L 447 -1328 
L 447 2603 
Q 447 3081 422 3381 
L 1275 3381 
Q 1291 3325 1302 3159 
Q 1313 2994 1313 2831 
L 1325 2831 
Q 1622 3453 2406 3453 
Q 2997 3453 3322 2998 
Q 3647 2544 3647 1706 
z
M 2731 1706 
Q 2731 2844 2034 2844 
Q 1684 2844 1498 2537 
Q 1313 2231 1313 1681 
Q 1313 1134 1498 836 
Q 1684 538 2028 538 
Q 2731 538 2731 1706 
z
" transform="scale(0.015625)"/>
      <path id="LiberationSans-Bold-6c" d="M 447 0 
L 447 4638 
L 1325 4638 
L 1325 0 
L 447 0 
z
" transform="scale(0.015625)"/>
      <path id="LiberationSans-Bold-78" d="M 2559 0 
L 1772 1225 
L 978 0 
L 44 0 
L 1281 1747 
L 103 3381 
L 1050 3381 
L 1772 2275 
L 2491 3381 
L 3444 3381 
L 2266 1756 
L 3513 0 
L 2559 0 
z
" transform="scale(0.015625)"/>
      <path id="LiberationSans-Bold-79" d="M 884 -1328 
Q 569 -1328 331 -1288 
L 331 -663 
Q 497 -688 634 -688 
Q 822 -688 945 -628 
Q 1069 -569 1167 -431 
Q 1266 -294 1388 34 
L 50 3381 
L 978 3381 
L 1509 1797 
Q 1634 1456 1825 753 
L 1903 1050 
L 2106 1784 
L 2606 3381 
L 3525 3381 
L 2188 -178 
Q 1919 -828 1630 -1078 
Q 1341 -1328 884 -1328 
z
" transform="scale(0.015625)"/>
     </defs>
     <use xlink:href="#LiberationSans-Bold-43"/>
     <use xlink:href="#LiberationSans-Bold-6f" transform="translate(72.216797 0)"/>
     <use xlink:href="#LiberationSans-Bold-6f" transform="translate(133.300781 0)"/>
     <use xlink:href="#LiberationSans-Bold-72" transform="translate(194.384766 0)"/>
     <use xlink:href="#LiberationSans-Bold-64" transform="translate(233.300781 0)"/>
     <use xlink:href="#LiberationSans-Bold-69" transform="translate(294.384766 0)"/>
     <use xlink:href="#LiberationSans-Bold-6e" transform="translate(322.167969 0)"/>
     <use xlink:href="#LiberationSans-Bold-61" transform="translate(383.251953 0)"/>
     <use xlink:href="#LiberationSans-Bold-74" transform="translate(438.867188 0)"/>
     <use xlink:href="#LiberationSans-Bold-69" transform="translate(472.167969 0)"/>
     <use xlink:href="#LiberationSans-Bold-6f" transform="translate(499.951172 0)"/>
     <use xlink:href="#LiberationSans-Bold-6e" transform="translate(561.035156 0)"/>
     <use xlink:href="#LiberationSans-Bold-20" transform="translate(622.119141 0)"/>
     <use xlink:href="#LiberationSans-Bold-43" transform="translate(649.902344 0)"/>
     <use xlink:href="#LiberationSans-Bold-6f" transform="translate(722.119141 0)"/>
     <use xlink:href="#LiberationSans-Bold-6d" transform="translate(783.203125 0)"/>
     <use xlink:href="#LiberationSans-Bold-70" transform="translate(872.119141 0)"/>
     <use xlink:href="#LiberationSans-Bold-6c" transform="translate(933.203125 0)"/>
     <use xlink:href="#LiberationSans-Bold-65" transform="translate(960.986328 0)"/>
     <use xlink:href="#LiberationSans-Bold-78" transform="translate(1016.601562 0)"/>
     <use xlink:href="#LiberationSans-Bold-69" transform="translate(1072.216797 0)"/>
     <use xlink:href="#LiberationSans-Bold-74" transform="translate(1100 0)"/>
     <use xlink:href="#LiberationSans-Bold-79" transform="translate(1133.300781 0)"/>
    </g>
   </g>
   <g id="legend_1">
    <g id="line2d_37">
     <path d="M 52.521563 37.367188 
L 63.521563 37.367188 
L 74.521563 37.367188 
" style="fill: none; stroke: #d32f2f; stroke-width: 2.5; stroke-linecap: round"/>
     <g>
      <use xlink:href="#m671323d073" x="63.521563" y="37.367188" style="fill: #d32f2f; stroke: #d32f2f"/>
     </g>
    </g>
    <g id="text_22">
     <!-- Without infrastructure: Θ(n²) -->
     <g style="fill: #262626" transform="translate(83.321562 41.217188) scale(0.11 -0.11)">
      <defs>
       <path id="LiberationSans-57" d="M 4722 0 
L 4009 0 
L 3247 2797 
Q 3172 3059 3028 3738 
Q 2947 3375 2890 3131 
Q 2834 2888 2038 0 
L 1325 0 
L 28 4403 
L 650 4403 
L 1441 1606 
Q 1581 1081 1700 525 
Q 1775 869 1873 1275 
Q 1972 1681 2741 4403 
L 3313 4403 
L 4078 1663 
Q 4253 991 4353 525 
L 4381 634 
Q 4466 994 4519 1220 
Q 4572 1447 5397 4403 
L 6019 4403 
L 4722 0 
z
" transform="scale(0.015625)"/>
       <path id="LiberationSans-69" d="M 428 4100 
L 428 4638 
L 991 4638 
L 991 4100 
L 428 4100 
z
M 428 0 
L 428 3381 
L 991 3381 
L 991 0 
L 428 0 
z
" transform="scale(0.015625)"/>
       <path id="LiberationSans-68" d="M 991 2803 
Q 1172 3134 1426 3289 
Q 1681 3444 2072 3444 
Q 2622 3444 2883 3170 
Q 3144 2897 3144 2253 
L 3144 0 
L 2578 0 
L 2578 2144 
Q 2578 2500 2512 2673 
Q 2447 2847 2297 2928 
Q 2147 3009 1881 3009 
Q 1484 3009 1245 2734 
Q 1006 2459 1006 1994 
L 1006 0 
L 444 0 
L 444 4638 
L 1006 4638 
L 1006 3431 
Q 1006 3241 995 3037 
Q 984 2834 981 2803 
L 991 2803 
z
" transform="scale(0.015625)"/>
       <path id="LiberationSans-6f" d="M 3291 1694 
Q 3291 806 2900 371 
Q 2509 -63 1766 -63 
Q 1025 -63 647 389 
Q 269 841 269 1694 
Q 269 3444 1784 3444 
Q 2559 3444 2925 3017 
Q 3291 2591 3291 1694 
z
M 2700 1694 
Q 2700 2394 2492 2711 
Q 2284 3028 1794 3028 
Q 1300 3028 1079 2704 
Q 859 2381 859 1694 
Q 859 1025 1076 689 
Q 1294 353 1759 353 
Q 2266 353 2483 678 
Q 2700 1003 2700 1694 
z
" transform="scale(0.015625)"/>
       <path id="LiberationSans-75" d="M 981 3381 
L 981 1238 
Q 981 903 1047 718 
Q 1113 534 1256 453 
Q 1400 372 1678 372 
Q 2084 372 2318 650 
Q 2553 928 2553 1422 
L 2553 3381 
L 3116 3381 
L 3116 722 
Q 3116 131 3134 0 
L 2603 0 
Q 2600 16 2597 84 
Q 2594 153 2589 242 
Q 2584 331 2578 578 
L 2569 578 
Q 2375 228 2120 82 
Q 1866 -63 1488 -63 
Q 931 -63 673 214 
Q 416 491 416 1128 
L 416 3381 
L 981 3381 
z
" transform="scale(0.015625)"/>
       <path id="LiberationSans-66" d="M 1128 2972 
L 1128 0 
L 566 0 
L 566 2972 
L 91 2972 
L 91 3381 
L 566 3381 
L 566 3763 
Q 566 4225 769 4428 
Q 972 4631 1391 4631 
Q 1625 4631 1788 4594 
L 1788 4166 
Q 1647 4191 1538 4191 
Q 1322 4191 1225 4081 
Q 1128 3972 1128 3684 
L 1128 3381 
L 1788 3381 
L 1788 2972 
L 1128 2972 
z
" transform="scale(0.015625)"/>
       <path id="LiberationSans-72" d="M 444 0 
L 444 2594 
Q 444 2950 425 3381 
L 956 3381 
Q 981 2806 981 2691 
L 994 2691 
Q 1128 3125 1303 3284 
Q 1478 3444 1797 3444 
Q 1909 3444 2025 3413 
L 2025 2897 
Q 1913 2928 1725 2928 
Q 1375 2928 1190 2626 
Q 1006 2325 1006 1763 
L 1006 0 
L 444 0 
z
" transform="scale(0.015625)"/>
       <path id="LiberationSans-63" d="M 859 1706 
Q 859 1031 1071 706 
Q 1284 381 1713 381 
Q 2013 381 2214 543 
Q 2416 706 2463 1044 
L 3031 1006 
Q 2966 519 2616 228 
Q 2266 -63 1728 -63 
Q 1019 -63 645 385 
Q 272 834 272 1694 
Q 272 2547 647 2995 
Q 1022 3444 1722 3444 
Q 2241 3444 2583 3175 
Q 2925 2906 3013 2434 
L 2434 2391 
Q 2391 2672 2212 2837 
Q 2034 3003 1706 3003 
Q 1259 3003 1059 2706 
Q 859 2409 859 1706 
z
" transform="scale(0.015625)"/>
       <path id="LiberationSans-398" d="M 4672 2222 
Q 4672 1531 4408 1012 
Q 4144 494 3650 215 
Q 3156 -63 2484 -63 
Q 1806 -63 1314 212 
Q 822 488 562 1008 
Q 303 1528 303 2222 
Q 303 3278 881 3873 
Q 1459 4469 2491 4469 
Q 3163 4469 3656 4201 
Q 4150 3934 4411 3425 
Q 4672 2916 4672 2222 
z
M 4063 2222 
Q 4063 3044 3652 3512 
Q 3241 3981 2491 3981 
Q 1734 3981 1321 3518 
Q 909 3056 909 2222 
Q 909 1394 1326 908 
Q 1744 422 2484 422 
Q 3247 422 3655 892 
Q 4063 1363 4063 2222 
z
M 1569 2481 
L 3403 2481 
L 3403 1981 
L 1569 1981 
L 1569 2481 
z
" transform="scale(0.015625)"/>
       <path id="LiberationSans-28" d="M 397 1663 
Q 397 2566 680 3284 
Q 963 4003 1550 4638 
L 2094 4638 
Q 1509 3988 1236 3256 
Q 963 2525 963 1656 
Q 963 791 1233 62 
Q 1503 -666 2094 -1325 
L 1550 -1325 
Q 959 -688 678 32 
Q 397 753 397 1650 
L 397 1663 
z
" transform="scale(0.015625)"/>
       <path id="LiberationSans-b2" d="M 134 1759 
L 128 2081 
Q 225 2297 426 2501 
Q 628 2706 963 2938 
Q 1266 3150 1403 3325 
Q 1541 3500 1541 3681 
Q 1541 3875 1430 3992 
Q 1319 4109 1088 4109 
Q 875 4109 737 3995 
Q 600 3881 575 3669 
L 159 3694 
Q 200 4028 451 4234 
Q 703 4441 1106 4441 
Q 1503 4441 1736 4248 
Q 1969 4056 1969 3713 
Q 1969 3253 1381 2822 
Q 1000 2541 844 2397 
Q 688 2253 625 2113 
L 2009 2113 
L 2009 1759 
L 134 1759 
z
" transform="scale(0.015625)"/>
       <path id="LiberationSans-29" d="M 1734 1650 
Q 1734 747 1451 28 
Q 1169 -691 581 -1325 
L 38 -1325 
Q 625 -669 897 57 
Q 1169 784 1169 1656 
Q 1169 2528 895 3256 
Q 622 3984 38 4638 
L 581 4638 
Q 1172 4000 1453 3279 
Q 1734 2559 1734 1663 
L 1734 1650 
z
" transform="scale(0.015625)"/>
      </defs>
      <use xlink:href="#LiberationSans-57"/>
      <use xlink:href="#LiberationSans-69" transform="translate(94.384766 0)"/>
      <use xlink:href="#LiberationSans-74" transform="translate(116.601562 0)"/>
      <use xlink:href="#LiberationSans-68" transform="translate(144.384766 0)"/>
      <use xlink:href="#LiberationSans-6f" transform="translate(200 0)"/>
      <use xlink:href="#LiberationSans-75" transform="translate(255.615234 0)"/>
      <use xlink:href="#LiberationSans-74" transform="translate(311.230469 0)"/>
      <use xlink:href="#LiberationSans-20" transform="translate(339.013672 0)"/>
      <use xlink:href="#LiberationSans-69" transform="translate(366.796875 0)"/>
      <use xlink:href="#LiberationSans-6e" transform="translate(389.013672 0)"/>
      <use xlink:href="#LiberationSans-66" transform="translate(444.628906 0)"/>
      <use xlink:href="#LiberationSans-72" transform="translate(472.412109 0)"/>
      <use xlink:href="#LiberationSans-61" transform="translate(505.712891 0)"/>
      <use xlink:href="#LiberationSans-73" transform="translate(561.328125 0)"/>
      <use xlink:href="#LiberationSans-74" transform="translate(611.328125 0)"/>
      <use xlink:href="#LiberationSans-72" transform="translate(639.111328 0)"/>
      <use xlink:href="#LiberationSans-75" transform="translate(672.412109 0)"/>
      <use xlink:href="#LiberationSans-63" transform="translate(728.027344 0)"/>
      <use xlink:href="#LiberationSans-74" transform="translate(778.027344 0)"/>
      <use xlink:href="#LiberationSans-75" transform="translate(805.810547 0)"/>
      <use xlink:href="#LiberationSans-72" transform="translate(861.425781 0)"/>
      <use xlink:href="#LiberationSans-65" transform="translate(894.726562 0)"/>
      <use xlink:href="#LiberationSans-3a" transform="translate(950.341797 0)"/>
      <use xlink:href="#LiberationSans-20" transform="translate(978.125 0)"/>
      <use xlink:href="#LiberationSans-398" transform="translate(1005.908203 0)"/>
      <use xlink:href="#LiberationSans-28" transform="translate(1083.691406 0)"/>
      <use xlink:href="#LiberationSans-6e" transform="translate(1116.992188 0)"/>
      <use xlink:href="#LiberationSans-b2" transform="translate(1172.607422 0)"/>
      <use xlink:href="#LiberationSans-29" transform="translate(1205.908203 0)"/>
     </g>
    </g>
    <g id="line2d_38">
     <path d="M 52.521563 53.12125 
L 63.521563 53.12125 
L 74.521563 53.12125 
" style="fill: none; stroke: #388e3c; stroke-width: 2.5; stroke-linecap: round"/>
     <g>
      <use xlink:href="#m0839f5b62a" x="63.521563" y="53.12125" style="fill: #388e3c; stroke: #388e3c; stroke-linejoin: miter"/>
     </g>
    </g>
    <g id="text_23">
     <!-- With infrastructure: O(n) -->
     <g style="fill: #262626" transform="translate(83.321562 56.97125) scale(0.11 -0.11)">
      <defs>
       <path id="LiberationSans-4f" d="M 4672 2222 
Q 4672 1531 4408 1012 
Q 4144 494 3650 215 
Q 3156 -63 2484 -63 
Q 1806 -63 1314 212 
Q 822 488 562 1008 
Q 303 1528 303 2222 
Q 303 3278 881 3873 
Q 1459 4469 2491 4469 
Q 3163 4469 3656 4201 
Q 4150 3934 4411 3425 
Q 4672 2916 4672 2222 
z
M 4063 2222 
Q 4063 3044 3652 3512 
Q 3241 3981 2491 3981 
Q 1734 3981 1321 3518 
Q 909 3056 909 2222 
Q 909 1394 1326 908 
Q 1744 422 2484 422 
Q 3247 422 3655 892 
Q 4063 1363 4063 2222 
z
" transform="scale(0.015625)"/>
      </defs>
      <use xlink:href="#LiberationSans-57"/>
      <use xlink:href="#LiberationSans-69" transform="translate(94.384766 0)"/>
      <use xlink:href="#LiberationSans-74" transform="translate(116.601562 0)"/>
      <use xlink:href="#LiberationSans-68" transform="translate(144.384766 0)"/>
      <use xlink:href="#LiberationSans-20" transform="translate(200 0)"/>
      <use xlink:href="#LiberationSans-69" transform="translate(227.783203 0)"/>
      <use xlink:href="#LiberationSans-6e" transform="translate(250 0)"/>
      <use xlink:href="#LiberationSans-66" transform="translate(305.615234 0)"/>
      <use xlink:href="#LiberationSans-72" transform="translate(333.398438 0)"/>
      <use xlink:href="#LiberationSans-61" transform="translate(366.699219 0)"/>
      <use xlink:href="#LiberationSans-73" transform="translate(422.314453 0)"/>
      <use xlink:href="#LiberationSans-74" transform="translate(472.314453 0)"/>
      <use xlink:href="#LiberationSans-72" transform="translate(500.097656 0)"/>
      <use xlink:href="#LiberationSans-75" transform="translate(533.398438 0)"/>
      <use xlink:href="#LiberationSans-63" transform="translate(589.013672 0)"/>
      <use xlink:href="#LiberationSans-74" transform="translate(639.013672 0)"/>
      <use xlink:href="#LiberationSans-75" transform="translate(666.796875 0)"/>
      <use xlink:href="#LiberationSans-72" transform="translate(722.412109 0)"/>
      <use xlink:href="#LiberationSans-65" transform="translate(755.712891 0)"/>
      <use xlink:href="#LiberationSans-3a" transform="translate(811.328125 0)"/>
      <use xlink:href="#LiberationSans-20" transform="translate(839.111328 0)"/>
      <use xlink:href="#LiberationSans-4f" transform="translate(866.894531 0)"/>
      <use xlink:href="#LiberationSans-28" transform="translate(944.677734 0)"/>
      <use xlink:href="#LiberationSans-6e" transform="translate(977.978516 0)"/>
      <use xlink:href="#LiberationSans-29" transform="translate(1033.59375 0)"/>
     </g>
    </g>
   </g>
  </g>
  <g id="axes_2">
   <g id="patch_8">
    <path d="M 541.131562 390.005625 
L 993.891563 390.005625 
L 993.891563 23.345625 
L 541.131562 23.345625 
z
" style="fill: #eaeaf2"/>
   </g>
   <g id="matplotlib.axis_3">
    <g id="xtick_9">
     <g id="line2d_39">
      <path d="M 557.553987 390.005625 
L 557.553987 23.345625 
" clip-path="url(#pd87025b32e)" style="fill: none; stroke: #ffffff; stroke-opacity: 0.3; stroke-width: 0.8; stroke-linecap: round"/>
     </g>
     <g id="line2d_40"/>
     <g id="text_24">
      <!-- 0 -->
      <g style="fill: #262626" transform="translate(554.773518 400.7525) scale(0.1 -0.1)">
       <use xlink:href="#LiberationSans-30"/>
      </g>
     </g>
    </g>
    <g id="xtick_10">
     <g id="line2d_41">
      <path d="M 640.705502 390.005625 
L 640.705502 23.345625 
" clip-path="url(#pd87025b32e)" style="fill: none; stroke: #ffffff; stroke-opacity: 0.3; stroke-width: 0.8; stroke-linecap: round"/>
     </g>
     <g id="line2d_42"/>
     <g id="text_25">
      <!-- 20 -->
      <g style="fill: #262626" transform="translate(635.144564 400.7525) scale(0.1 -0.1)">
       <use xlink:href="#LiberationSans-32"/>
       <use xlink:href="#LiberationSans-30" transform="translate(55.615234 0)"/>
      </g>
     </g>
    </g>
    <g id="xtick_11">
     <g id="line2d_43">
      <path d="M 723.857017 390.005625 
L 723.857017 23.345625 
" clip-path="url(#pd87025b32e)" style="fill: none; stroke: #ffffff; stroke-opacity: 0.3; stroke-width: 0.8; stroke-linecap: round"/>
     </g>
     <g id="line2d_44"/>
     <g id="text_26">
      <!-- 40 -->
      <g style="fill: #262626" transform="translate(718.29608 400.7525) scale(0.1 -0.1)">
       <use xlink:href="#LiberationSans-34"/>
       <use xlink:href="#LiberationSans-30" transform="translate(55.615234 0)"/>
      </g>
     </g>
    </g>
    <g id="xtick_12">
     <g id="line2d_45">
      <path d="M 807.008532 390.005625 
L 807.008532 23.345625 
" clip-path="url(#pd87025b32e)" style="fill: none; stroke: #ffffff; stroke-opacity: 0.3; stroke-width: 0.8; stroke-linecap: round"/>
     </g>
     <g id="line2d_46"/>
     <g id="text_27">
      <!-- 60 -->
      <g style="fill: #262626" transform="translate(801.447595 400.7525) scale(0.1 -0.1)">
       <defs>
        <path id="LiberationSans-36" d="M 3278 1441 
Q 3278 744 2900 340 
Q 2522 -63 1856 -63 
Q 1113 -63 719 490 
Q 325 1044 325 2100 
Q 325 3244 734 3856 
Q 1144 4469 1900 4469 
Q 2897 4469 3156 3572 
L 2619 3475 
Q 2453 4013 1894 4013 
Q 1413 4013 1148 3564 
Q 884 3116 884 2266 
Q 1038 2550 1316 2698 
Q 1594 2847 1953 2847 
Q 2563 2847 2920 2465 
Q 3278 2084 3278 1441 
z
M 2706 1416 
Q 2706 1894 2472 2153 
Q 2238 2413 1819 2413 
Q 1425 2413 1183 2183 
Q 941 1953 941 1550 
Q 941 1041 1192 716 
Q 1444 391 1838 391 
Q 2244 391 2475 664 
Q 2706 938 2706 1416 
z
" transform="scale(0.015625)"/>
       </defs>
       <use xlink:href="#LiberationSans-36"/>
       <use xlink:href="#LiberationSans-30" transform="translate(55.615234 0)"/>
      </g>
     </g>
    </g>
    <g id="xtick_13">
     <g id="line2d_47">
      <path d="M 890.160047 390.005625 
L 890.160047 23.345625 
" clip-path="url(#pd87025b32e)" style="fill: none; stroke: #ffffff; stroke-opacity: 0.3; stroke-width: 0.8; stroke-linecap: round"/>
     </g>
     <g id="line2d_48"/>
     <g id="text_28">
      <!-- 80 -->
      <g style="fill: #262626" transform="translate(884.59911 400.7525) scale(0.1 -0.1)">
       <defs>
        <path id="LiberationSans-38" d="M 3281 1228 
Q 3281 619 2893 278 
Q 2506 -63 1781 -63 
Q 1075 -63 676 271 
Q 278 606 278 1222 
Q 278 1653 525 1947 
Q 772 2241 1156 2303 
L 1156 2316 
Q 797 2400 589 2681 
Q 381 2963 381 3341 
Q 381 3844 757 4156 
Q 1134 4469 1769 4469 
Q 2419 4469 2795 4162 
Q 3172 3856 3172 3334 
Q 3172 2956 2962 2675 
Q 2753 2394 2391 2322 
L 2391 2309 
Q 2813 2241 3047 1952 
Q 3281 1663 3281 1228 
z
M 2588 3303 
Q 2588 4050 1769 4050 
Q 1372 4050 1164 3862 
Q 956 3675 956 3303 
Q 956 2925 1170 2726 
Q 1384 2528 1775 2528 
Q 2172 2528 2380 2711 
Q 2588 2894 2588 3303 
z
M 2697 1281 
Q 2697 1691 2453 1898 
Q 2209 2106 1769 2106 
Q 1341 2106 1100 1882 
Q 859 1659 859 1269 
Q 859 359 1788 359 
Q 2247 359 2472 579 
Q 2697 800 2697 1281 
z
" transform="scale(0.015625)"/>
       </defs>
       <use xlink:href="#LiberationSans-38"/>
       <use xlink:href="#LiberationSans-30" transform="translate(55.615234 0)"/>
      </g>
     </g>
    </g>
    <g id="xtick_14">
     <g id="line2d_49">
      <path d="M 973.311563 390.005625 
L 973.311563 23.345625 
" clip-path="url(#pd87025b32e)" style="fill: none; stroke: #ffffff; stroke-opacity: 0.3; stroke-width: 0.8; stroke-linecap: round"/>
     </g>
     <g id="line2d_50"/>
     <g id="text_29">
      <!-- 100 -->
      <g style="fill: #262626" transform="translate(964.970156 400.7525) scale(0.1 -0.1)">
       <use xlink:href="#LiberationSans-31"/>
       <use xlink:href="#LiberationSans-30" transform="translate(55.615234 0)"/>
       <use xlink:href="#LiberationSans-30" transform="translate(111.230469 0)"/>
      </g>
     </g>
    </g>
    <g id="text_30">
     <!-- Number of Agents (n) -->
     <g style="fill: #262626" transform="translate(706.41 415.52375) scale(0.12 -0.12)">
      <use xlink:href="#LiberationSans-Bold-4e"/>
      <use xlink:href="#LiberationSans-Bold-75" transform="translate(72.216797 0)"/>
      <use xlink:href="#LiberationSans-Bold-6d" transform="translate(133.300781 0)"/>
      <use xlink:href="#LiberationSans-Bold-62" transform="translate(222.216797 0)"/>
      <use xlink:href="#LiberationSans-Bold-65" transform="translate(283.300781 0)"/>
      <use xlink:href="#LiberationSans-Bold-72" transform="translate(338.916016 0)"/>
      <use xlink:href="#LiberationSans-Bold-20" transform="translate(377.832031 0)"/>
      <use xlink:href="#LiberationSans-Bold-6f" transform="translate(405.615234 0)"/>
      <use xlink:href="#LiberationSans-Bold-66" transform="translate(466.699219 0)"/>
      <use xlink:href="#LiberationSans-Bold-20" transform="translate(500 0)"/>
      <use xlink:href="#LiberationSans-Bold-41" transform="translate(524.033203 0)"/>
      <use xlink:href="#LiberationSans-Bold-67" transform="translate(596.25 0)"/>
      <use xlink:href="#LiberationSans-Bold-65" transform="translate(657.333984 0)"/>
      <use xlink:href="#LiberationSans-Bold-6e" transform="translate(712.949219 0)"/>
      <use xlink:href="#LiberationSans-Bold-74" transform="translate(774.033203 0)"/>
      <use xlink:href="#LiberationSans-Bold-73" transform="translate(807.333984 0)"/>
      <use xlink:href="#LiberationSans-Bold-20" transform="translate(862.949219 0)"/>
      <use xlink:href="#LiberationSans-Bold-28" transform="translate(890.732422 0)"/>
      <use xlink:href="#LiberationSans-Bold-6e" transform="translate(924.033203 0)"/>
      <use xlink:href="#LiberationSans-Bold-29" transform="translate(985.117188 0)"/>
     </g>
    </g>
   </g>
   <g id="matplotlib.axis_4">
    <g id="ytick_10">
     <g id="line2d_51">
      <path d="M 541.131562 373.339261 
L 993.891563 373.339261 
" clip-path="url(#pd87025b32e)" style="fill: none; stroke: #ffffff; stroke-opacity: 0.3; stroke-width: 0.8; stroke-linecap: round"/>
     </g>
     <g id="line2d_52"/>
     <g id="text_31">
      <!-- 0 -->
      <g style="fill: #262626" transform="translate(532.070625 376.962699) scale(0.1 -0.1)">
       <use xlink:href="#LiberationSans-30"/>
      </g>
     </g>
    </g>
    <g id="ytick_11">
     <g id="line2d_53">
      <path d="M 541.131562 306.673807 
L 993.891563 306.673807 
" clip-path="url(#pd87025b32e)" style="fill: none; stroke: #ffffff; stroke-opacity: 0.3; stroke-width: 0.8; stroke-linecap: round"/>
     </g>
     <g id="line2d_54"/>
     <g id="text_32">
      <!-- 20 -->
      <g style="fill: #262626" transform="translate(526.509687 310.297244) scale(0.1 -0.1)">
       <use xlink:href="#LiberationSans-32"/>
       <use xlink:href="#LiberationSans-30" transform="translate(55.615234 0)"/>
      </g>
     </g>
    </g>
    <g id="ytick_12">
     <g id="line2d_55">
      <path d="M 541.131562 240.008352 
L 993.891563 240.008352 
" clip-path="url(#pd87025b32e)" style="fill: none; stroke: #ffffff; stroke-opacity: 0.3; stroke-width: 0.8; stroke-linecap: round"/>
     </g>
     <g id="line2d_56"/>
     <g id="text_33">
      <!-- 40 -->
      <g style="fill: #262626" transform="translate(526.509687 243.63179) scale(0.1 -0.1)">
       <use xlink:href="#LiberationSans-34"/>
       <use xlink:href="#LiberationSans-30" transform="translate(55.615234 0)"/>
      </g>
     </g>
    </g>
    <g id="ytick_13">
     <g id="line2d_57">
      <path d="M 541.131562 173.342898 
L 993.891563 173.342898 
" clip-path="url(#pd87025b32e)" style="fill: none; stroke: #ffffff; stroke-opacity: 0.3; stroke-width: 0.8; stroke-linecap: round"/>
     </g>
     <g id="line2d_58"/>
     <g id="text_34">
      <!-- 60 -->
      <g style="fill: #262626" transform="translate(526.509687 176.966335) scale(0.1 -0.1)">
       <use xlink:href="#LiberationSans-36"/>
       <use xlink:href="#LiberationSans-30" transform="translate(55.615234 0)"/>
      </g>
     </g>
    </g>
    <g id="ytick_14">
     <g id="line2d_59">
      <path d="M 541.131562 106.677443 
L 993.891563 106.677443 
" clip-path="url(#pd87025b32e)" style="fill: none; stroke: #ffffff; stroke-opacity: 0.3; stroke-width: 0.8; stroke-linecap: round"/>
     </g>
     <g id="line2d_60"/>
     <g id="text_35">
      <!-- 80 -->
      <g style="fill: #262626" transform="translate(526.509687 110.300881) scale(0.1 -0.1)">
       <use xlink:href="#LiberationSans-38"/>
       <use xlink:href="#LiberationSans-30" transform="translate(55.615234 0)"/>
      </g>
     </g>
    </g>
    <g id="ytick_15">
     <g id="line2d_61">
      <path d="M 541.131562 40.011989 
L 993.891563 40.011989 
" clip-path="url(#pd87025b32e)" style="fill: none; stroke: #ffffff; stroke-opacity: 0.3; stroke-width: 0.8; stroke-linecap: round"/>
     </g>
     <g id="line2d_62"/>
     <g id="text_36">
      <!-- 100 -->
      <g style="fill: #262626" transform="translate(520.94875 43.635426) scale(0.1 -0.1)">
       <use xlink:href="#LiberationSans-31"/>
       <use xlink:href="#LiberationSans-30" transform="translate(55.615234 0)"/>
       <use xlink:href="#LiberationSans-30" transform="translate(111.230469 0)"/>
      </g>
     </g>
    </g>
    <g id="text_37">
     <!-- Speedup Factor (Θ(n²)/O(n)) -->
     <g style="fill: #262626" transform="translate(514.45875 285.99375) rotate(-90) scale(0.12 -0.12)">
      <defs>
       <path id="LiberationSans-Bold-53" d="M 4019 1269 
Q 4019 622 3539 279 
Q 3059 -63 2131 -63 
Q 1284 -63 803 237 
Q 322 538 184 1147 
L 1075 1294 
Q 1166 944 1428 786 
Q 1691 628 2156 628 
Q 3122 628 3122 1216 
Q 3122 1403 3011 1525 
Q 2900 1647 2698 1728 
Q 2497 1809 1925 1925 
Q 1431 2041 1237 2111 
Q 1044 2181 887 2276 
Q 731 2372 622 2506 
Q 513 2641 452 2822 
Q 391 3003 391 3238 
Q 391 3834 839 4151 
Q 1288 4469 2144 4469 
Q 2963 4469 3373 4212 
Q 3784 3956 3903 3366 
L 3009 3244 
Q 2941 3528 2730 3672 
Q 2519 3816 2125 3816 
Q 1288 3816 1288 3291 
Q 1288 3119 1377 3009 
Q 1466 2900 1641 2823 
Q 1816 2747 2350 2631 
Q 2984 2497 3257 2383 
Q 3531 2269 3690 2117 
Q 3850 1966 3934 1755 
Q 4019 1544 4019 1269 
z
" transform="scale(0.015625)"/>
       <path id="LiberationSans-Bold-46" d="M 1350 3691 
L 1350 2328 
L 3603 2328 
L 3603 1616 
L 1350 1616 
L 1350 0 
L 428 0 
L 428 4403 
L 3675 4403 
L 3675 3691 
L 1350 3691 
z
" transform="scale(0.015625)"/>
       <path id="LiberationSans-Bold-63" d="M 1856 -63 
Q 1088 -63 669 395 
Q 250 853 250 1672 
Q 250 2509 672 2976 
Q 1094 3444 1869 3444 
Q 2466 3444 2856 3144 
Q 3247 2844 3347 2316 
L 2463 2272 
Q 2425 2531 2275 2686 
Q 2125 2841 1850 2841 
Q 1172 2841 1172 1706 
Q 1172 538 1863 538 
Q 2113 538 2281 695 
Q 2450 853 2491 1166 
L 3372 1125 
Q 3325 778 3123 506 
Q 2922 234 2594 85 
Q 2266 -63 1856 -63 
z
" transform="scale(0.015625)"/>
       <path id="LiberationSans-Bold-398" d="M 1569 2584 
L 3403 2584 
L 3403 1872 
L 1569 1872 
L 1569 2584 
z
M 4709 2222 
Q 4709 1534 4437 1012 
Q 4166 491 3659 214 
Q 3153 -63 2478 -63 
Q 1441 -63 852 548 
Q 263 1159 263 2222 
Q 263 3281 850 3875 
Q 1438 4469 2484 4469 
Q 3531 4469 4120 3869 
Q 4709 3269 4709 2222 
z
M 3769 2222 
Q 3769 2934 3431 3339 
Q 3094 3744 2484 3744 
Q 1866 3744 1528 3342 
Q 1191 2941 1191 2222 
Q 1191 1497 1536 1080 
Q 1881 663 2478 663 
Q 3097 663 3433 1069 
Q 3769 1475 3769 2222 
z
" transform="scale(0.015625)"/>
       <path id="LiberationSans-Bold-b2" d="M 166 2169 
L 159 2547 
Q 250 2738 415 2902 
Q 581 3066 866 3250 
Q 1138 3425 1238 3539 
Q 1338 3653 1338 3775 
Q 1338 4059 1084 4059 
Q 819 4059 788 3753 
L 181 3769 
Q 222 4078 459 4267 
Q 697 4456 1084 4456 
Q 1494 4456 1725 4282 
Q 1956 4109 1956 3800 
Q 1956 3409 1478 3103 
Q 1156 2897 1036 2800 
Q 916 2703 866 2600 
L 1997 2600 
L 1997 2169 
L 166 2169 
z
" transform="scale(0.015625)"/>
       <path id="LiberationSans-Bold-2f" d="M 63 -128 
L 972 4638 
L 1716 4638 
L 822 -128 
L 63 -128 
z
" transform="scale(0.015625)"/>
       <path id="LiberationSans-Bold-4f" d="M 4709 2222 
Q 4709 1534 4437 1012 
Q 4166 491 3659 214 
Q 3153 -63 2478 -63 
Q 1441 -63 852 548 
Q 263 1159 263 2222 
Q 263 3281 850 3875 
Q 1438 4469 2484 4469 
Q 3531 4469 4120 3869 
Q 4709 3269 4709 2222 
z
M 3769 2222 
Q 3769 2934 3431 3339 
Q 3094 3744 2484 3744 
Q 1866 3744 1528 3342 
Q 1191 2941 1191 2222 
Q 1191 1497 1536 1080 
Q 1881 663 2478 663 
Q 3097 663 3433 1069 
Q 3769 1475 3769 2222 
z
" transform="scale(0.015625)"/>
      </defs>
      <use xlink:href="#LiberationSans-Bold-53"/>
      <use xlink:href="#LiberationSans-Bold-70" transform="translate(66.699219 0)"/>
      <use xlink:href="#LiberationSans-Bold-65" transform="translate(127.783203 0)"/>
      <use xlink:href="#LiberationSans-Bold-65" transform="translate(183.398438 0)"/>
      <use xlink:href="#LiberationSans-Bold-64" transform="translate(239.013672 0)"/>
      <use xlink:href="#LiberationSans-Bold-75" transform="translate(300.097656 0)"/>
      <use xlink:href="#LiberationSans-Bold-70" transform="translate(361.181641 0)"/>
      <use xlink:href="#LiberationSans-Bold-20" transform="translate(422.265625 0)"/>
      <use xlink:href="#LiberationSans-Bold-46" transform="translate(450.048828 0)"/>
      <use xlink:href="#LiberationSans-Bold-61" transform="translate(511.132812 0)"/>
      <use xlink:href="#LiberationSans-Bold-63" transform="translate(566.748047 0)"/>
      <use xlink:href="#LiberationSans-Bold-74" transform="translate(622.363281 0)"/>
      <use xlink:href="#LiberationSans-Bold-6f" transform="translate(655.664062 0)"/>
      <use xlink:href="#LiberationSans-Bold-72" transform="translate(716.748047 0)"/>
      <use xlink:href="#LiberationSans-Bold-20" transform="translate(755.664062 0)"/>
      <use xlink:href="#LiberationSans-Bold-28" transform="translate(783.447266 0)"/>
      <use xlink:href="#LiberationSans-Bold-398" transform="translate(816.748047 0)"/>
      <use xlink:href="#LiberationSans-Bold-28" transform="translate(894.53125 0)"/>
      <use xlink:href="#LiberationSans-Bold-6e" transform="translate(927.832031 0)"/>
      <use xlink:href="#LiberationSans-Bold-b2" transform="translate(988.916016 0)"/>
      <use xlink:href="#LiberationSans-Bold-29" transform="translate(1022.216797 0)"/>
      <use xlink:href="#LiberationSans-Bold-2f" transform="translate(1055.517578 0)"/>
      <use xlink:href="#LiberationSans-Bold-4f" transform="translate(1083.300781 0)"/>
      <use xlink:href="#LiberationSans-Bold-28" transform="translate(1161.083984 0)"/>
      <use xlink:href="#LiberationSans-Bold-6e" transform="translate(1194.384766 0)"/>
      <use xlink:href="#LiberationSans-Bold-29" transform="translate(1255.46875 0)"/>
      <use xlink:href="#LiberationSans-Bold-29" transform="translate(1288.769531 0)"/>
     </g>
    </g>
   </g>
   <g id="FillBetweenPolyCollection_2">
    <defs>
     <path id="m597c65efbb" d="M 561.711562 -55.260261 
L 561.711562 -51.926989 
L 565.869138 -51.926989 
L 570.026714 -51.926989 
L 574.18429 -51.926989 
L 578.341866 -51.926989 
L 582.499441 -51.926989 
L 586.657017 -51.926989 
L 590.814593 -51.926989 
L 594.972169 -51.926989 
L 599.129744 -51.926989 
L 603.28732 -51.926989 
L 607.444896 -51.926989 
L 611.602472 -51.926989 
L 615.760047 -51.926989 
L 619.917623 -51.926989 
L 624.075199 -51.926989 
L 628.232775 -51.926989 
L 632.39035 -51.926989 
L 636.547926 -51.926989 
L 640.705502 -51.926989 
L 644.863078 -51.926989 
L 649.020653 -51.926989 
L 653.178229 -51.926989 
L 657.335805 -51.926989 
L 661.493381 -51.926989 
L 665.650956 -51.926989 
L 669.808532 -51.926989 
L 673.966108 -51.926989 
L 678.123684 -51.926989 
L 682.281259 -51.926989 
L 686.438835 -51.926989 
L 690.596411 -51.926989 
L 694.753987 -51.926989 
L 698.911562 -51.926989 
L 703.069138 -51.926989 
L 707.226714 -51.926989 
L 711.38429 -51.926989 
L 715.541866 -51.926989 
L 719.699441 -51.926989 
L 723.857017 -51.926989 
L 728.014593 -51.926989 
L 732.172169 -51.926989 
L 736.329744 -51.926989 
L 740.48732 -51.926989 
L 744.644896 -51.926989 
L 748.802472 -51.926989 
L 752.960047 -51.926989 
L 757.117623 -51.926989 
L 761.275199 -51.926989 
L 765.432775 -51.926989 
L 769.59035 -51.926989 
L 773.747926 -51.926989 
L 777.905502 -51.926989 
L 782.063078 -51.926989 
L 786.220653 -51.926989 
L 790.378229 -51.926989 
L 794.535805 -51.926989 
L 798.693381 -51.926989 
L 802.850956 -51.926989 
L 807.008532 -51.926989 
L 811.166108 -51.926989 
L 815.323684 -51.926989 
L 819.481259 -51.926989 
L 823.638835 -51.926989 
L 827.796411 -51.926989 
L 831.953987 -51.926989 
L 836.111562 -51.926989 
L 840.269138 -51.926989 
L 844.426714 -51.926989 
L 848.58429 -51.926989 
L 852.741866 -51.926989 
L 856.899441 -51.926989 
L 861.057017 -51.926989 
L 865.214593 -51.926989 
L 869.372169 -51.926989 
L 873.529744 -51.926989 
L 877.68732 -51.926989 
L 881.844896 -51.926989 
L 886.002472 -51.926989 
L 890.160047 -51.926989 
L 894.317623 -51.926989 
L 898.475199 -51.926989 
L 902.632775 -51.926989 
L 906.79035 -51.926989 
L 910.947926 -51.926989 
L 915.105502 -51.926989 
L 919.263078 -51.926989 
L 923.420653 -51.926989 
L 927.578229 -51.926989 
L 931.735805 -51.926989 
L 935.893381 -51.926989 
L 940.050956 -51.926989 
L 944.208532 -51.926989 
L 948.366108 -51.926989 
L 952.523684 -51.926989 
L 956.681259 -51.926989 
L 960.838835 -51.926989 
L 964.996411 -51.926989 
L 969.153987 -51.926989 
L 973.311563 -51.926989 
L 973.311563 -385.254261 
L 973.311563 -385.254261 
L 969.153987 -381.920989 
L 964.996411 -378.587716 
L 960.838835 -375.254443 
L 956.681259 -371.92117 
L 952.523684 -368.587898 
L 948.366108 -365.254625 
L 944.208532 -361.921352 
L 940.050956 -358.58808 
L 935.893381 -355.254807 
L 931.735805 -351.921534 
L 927.578229 -348.588261 
L 923.420653 -345.254989 
L 919.263078 -341.921716 
L 915.105502 -338.588443 
L 910.947926 -335.25517 
L 906.79035 -331.921898 
L 902.632775 -328.588625 
L 898.475199 -325.255352 
L 894.317623 -321.92208 
L 890.160047 -318.588807 
L 886.002472 -315.255534 
L 881.844896 -311.922261 
L 877.68732 -308.588989 
L 873.529744 -305.255716 
L 869.372169 -301.922443 
L 865.214593 -298.58917 
L 861.057017 -295.255898 
L 856.899441 -291.922625 
L 852.741866 -288.589352 
L 848.58429 -285.25608 
L 844.426714 -281.922807 
L 840.269138 -278.589534 
L 836.111562 -275.256261 
L 831.953987 -271.922989 
L 827.796411 -268.589716 
L 823.638835 -265.256443 
L 819.481259 -261.92317 
L 815.323684 -258.589898 
L 811.166108 -255.256625 
L 807.008532 -251.923352 
L 802.850956 -248.59008 
L 798.693381 -245.256807 
L 794.535805 -241.923534 
L 790.378229 -238.590261 
L 786.220653 -235.256989 
L 782.063078 -231.923716 
L 777.905502 -228.590443 
L 773.747926 -225.25717 
L 769.59035 -221.923898 
L 765.432775 -218.590625 
L 761.275199 -215.257352 
L 757.117623 -211.92408 
L 752.960047 -208.590807 
L 748.802472 -205.257534 
L 744.644896 -201.924261 
L 740.48732 -198.590989 
L 736.329744 -195.257716 
L 732.172169 -191.924443 
L 728.014593 -188.59117 
L 723.857017 -185.257898 
L 719.699441 -181.924625 
L 715.541866 -178.591352 
L 711.38429 -175.25808 
L 707.226714 -171.924807 
L 703.069138 -168.591534 
L 698.911562 -165.258261 
L 694.753987 -161.924989 
L 690.596411 -158.591716 
L 686.438835 -155.258443 
L 682.281259 -151.92517 
L 678.123684 -148.591898 
L 673.966108 -145.258625 
L 669.808532 -141.925352 
L 665.650956 -138.59208 
L 661.493381 -135.258807 
L 657.335805 -131.925534 
L 653.178229 -128.592261 
L 649.020653 -125.258989 
L 644.863078 -121.925716 
L 640.705502 -118.592443 
L 636.547926 -115.25917 
L 632.39035 -111.925898 
L 628.232775 -108.592625 
L 624.075199 -105.259352 
L 619.917623 -101.92608 
L 615.760047 -98.592807 
L 611.602472 -95.259534 
L 607.444896 -91.926261 
L 603.28732 -88.592989 
L 599.129744 -85.259716 
L 594.972169 -81.926443 
L 590.814593 -78.59317 
L 586.657017 -75.259898 
L 582.499441 -71.926625 
L 578.341866 -68.593352 
L 574.18429 -65.26008 
L 570.026714 -61.926807 
L 565.869138 -58.593534 
L 561.711562 -55.260261 
z
" style="stroke: #2196f3; stroke-opacity: 0.2"/>
    </defs>
    <g clip-path="url(#pd87025b32e)">
     <use xlink:href="#m597c65efbb" x="0" y="425.26625" style="fill: #2196f3; fill-opacity: 0.2; stroke: #2196f3; stroke-opacity: 0.2"/>
    </g>
   </g>
   <g id="line2d_63">
    <path d="M 561.711562 370.005989 
L 565.869138 366.672716 
L 570.026714 363.339443 
L 574.18429 360.00617 
L 578.341866 356.672898 
L 582.499441 353.339625 
L 586.657017 350.006352 
L 590.814593 346.67308 
L 594.972169 343.339807 
L 599.129744 340.006534 
L 603.28732 336.673261 
L 607.444896 333.339989 
L 611.602472 330.006716 
L 615.760047 326.673443 
L 619.917623 323.34017 
L 624.075199 320.006898 
L 628.232775 316.673625 
L 632.39035 313.340352 
L 636.547926 310.00708 
L 640.705502 306.673807 
L 644.863078 303.340534 
L 649.020653 300.007261 
L 653.178229 296.673989 
L 657.335805 293.340716 
L 661.493381 290.007443 
L 665.650956 286.67417 
L 669.808532 283.340898 
L 673.966108 280.007625 
L 678.123684 276.674352 
L 682.281259 273.34108 
L 686.438835 270.007807 
L 690.596411 266.674534 
L 694.753987 263.341261 
L 698.911562 260.007989 
L 703.069138 256.674716 
L 707.226714 253.341443 
L 711.38429 250.00817 
L 715.541866 246.674898 
L 719.699441 243.341625 
L 723.857017 240.008352 
L 728.014593 236.67508 
L 732.172169 233.341807 
L 736.329744 230.008534 
L 740.48732 226.675261 
L 744.644896 223.341989 
L 748.802472 220.008716 
L 752.960047 216.675443 
L 757.117623 213.34217 
L 761.275199 210.008898 
L 765.432775 206.675625 
L 769.59035 203.342352 
L 773.747926 200.00908 
L 777.905502 196.675807 
L 782.063078 193.342534 
L 786.220653 190.009261 
L 790.378229 186.675989 
L 794.535805 183.342716 
L 798.693381 180.009443 
L 802.850956 176.67617 
L 807.008532 173.342898 
L 811.166108 170.009625 
L 815.323684 166.676352 
L 819.481259 163.34308 
L 823.638835 160.009807 
L 827.796411 156.676534 
L 831.953987 153.343261 
L 836.111562 150.009989 
L 840.269138 146.676716 
L 844.426714 143.343443 
L 848.58429 140.01017 
L 852.741866 136.676898 
L 856.899441 133.343625 
L 861.057017 130.010352 
L 865.214593 126.67708 
L 869.372169 123.343807 
L 873.529744 120.010534 
L 877.68732 116.677261 
L 881.844896 113.343989 
L 886.002472 110.010716 
L 890.160047 106.677443 
L 894.317623 103.34417 
L 898.475199 100.010898 
L 902.632775 96.677625 
L 906.79035 93.344352 
L 910.947926 90.01108 
L 915.105502 86.677807 
L 919.263078 83.344534 
L 923.420653 80.011261 
L 927.578229 76.677989 
L 931.735805 73.344716 
L 935.893381 70.011443 
L 940.050956 66.67817 
L 944.208532 63.344898 
L 948.366108 60.011625 
L 952.523684 56.678352 
L 956.681259 53.34508 
L 960.838835 50.011807 
L 964.996411 46.678534 
L 969.153987 43.345261 
L 973.311563 40.011989 
" clip-path="url(#pd87025b32e)" style="fill: none; stroke: #2196f3; stroke-width: 3; stroke-linecap: round"/>
   </g>
   <g id="patch_9">
    <path d="M 541.131562 390.005625 
L 541.131562 23.345625 
" style="fill: none"/>
   </g>
   <g id="patch_10">
    <path d="M 993.891563 390.005625 
L 993.891563 23.345625 
" style="fill: none"/>
   </g>
   <g id="patch_11">
    <path d="M 541.131562 390.005625 
L 993.891562 390.005625 
" style="fill: none"/>
   </g>
   <g id="patch_12">
    <path d="M 541.131562 23.345625 
L 993.891562 23.345625 
" style="fill: none"/>
   </g>
   <g id="text_38">
    <g id="patch_13">
     <path d="M 727.916837 215.165625 
L 802.948712 215.165625 
Q 808.948712 215.165625 808.948712 209.165625 
L 808.948712 197.979375 
Q 808.948712 191.979375 802.948712 191.979375 
L 727.916837 191.979375 
Q 721.916837 191.979375 721.916837 197.979375 
L 721.916837 209.165625 
Q 721.916837 215.165625 727.916837 215.165625 
z
" style="fill: #ffff00; opacity: 0.5; stroke: #000000; stroke-linejoin: miter"/>
    </g>
    <!-- Benefit = Θ(n) -->
    <g style="fill: #262626" transform="translate(727.916837 206.675625) scale(0.12 -0.12)">
     <defs>
      <path id="LiberationSans-42" d="M 3931 1241 
Q 3931 653 3503 326 
Q 3075 0 2313 0 
L 525 0 
L 525 4403 
L 2125 4403 
Q 3675 4403 3675 3334 
Q 3675 2944 3456 2678 
Q 3238 2413 2838 2322 
Q 3363 2259 3647 1970 
Q 3931 1681 3931 1241 
z
M 3075 3263 
Q 3075 3619 2831 3772 
Q 2588 3925 2125 3925 
L 1122 3925 
L 1122 2531 
L 2125 2531 
Q 2603 2531 2839 2711 
Q 3075 2891 3075 3263 
z
M 3328 1288 
Q 3328 2066 2234 2066 
L 1122 2066 
L 1122 478 
L 2281 478 
Q 2828 478 3078 681 
Q 3328 884 3328 1288 
z
" transform="scale(0.015625)"/>
     </defs>
     <use xlink:href="#LiberationSans-42"/>
     <use xlink:href="#LiberationSans-65" transform="translate(66.699219 0)"/>
     <use xlink:href="#LiberationSans-6e" transform="translate(122.314453 0)"/>
     <use xlink:href="#LiberationSans-65" transform="translate(177.929688 0)"/>
     <use xlink:href="#LiberationSans-66" transform="translate(233.544922 0)"/>
     <use xlink:href="#LiberationSans-69" transform="translate(261.328125 0)"/>
     <use xlink:href="#LiberationSans-74" transform="translate(283.544922 0)"/>
     <use xlink:href="#LiberationSans-20" transform="translate(311.328125 0)"/>
     <use xlink:href="#LiberationSans-3d" transform="translate(339.111328 0)"/>
     <use xlink:href="#LiberationSans-20" transform="translate(397.509766 0)"/>
     <use xlink:href="#LiberationSans-398" transform="translate(425.292969 0)"/>
     <use xlink:href="#LiberationSans-28" transform="translate(503.076172 0)"/>
     <use xlink:href="#LiberationSans-6e" transform="translate(536.376953 0)"/>
     <use xlink:href="#LiberationSans-29" transform="translate(591.992188 0)"/>
    </g>
   </g>
   <g id="text_39">
    <!-- Infrastructure Benefit Grows Linearly -->
    <g style="fill: #262626" transform="translate(643.822656 17.345625) scale(0.14 -0.14)">
     <defs>
      <path id="LiberationSans-Bold-49" d="M 428 0 
L 428 4403 
L 1350 4403 
L 1350 0 
L 428 0 
z
" transform="scale(0.015625)"/>
      <path id="LiberationSans-Bold-42" d="M 4331 1256 
Q 4331 656 3881 328 
Q 3431 0 2631 0 
L 428 0 
L 428 4403 
L 2444 4403 
Q 3250 4403 3664 4123 
Q 4078 3844 4078 3297 
Q 4078 2922 3870 2664 
Q 3663 2406 3238 2316 
Q 3772 2253 4051 1979 
Q 4331 1706 4331 1256 
z
M 3150 3172 
Q 3150 3469 2961 3594 
Q 2772 3719 2400 3719 
L 1350 3719 
L 1350 2628 
L 2406 2628 
Q 2797 2628 2973 2764 
Q 3150 2900 3150 3172 
z
M 3406 1328 
Q 3406 1947 2519 1947 
L 1350 1947 
L 1350 684 
L 2553 684 
Q 2997 684 3201 845 
Q 3406 1006 3406 1328 
z
" transform="scale(0.015625)"/>
      <path id="LiberationSans-Bold-47" d="M 2519 659 
Q 2878 659 3215 764 
Q 3553 869 3738 1031 
L 3738 1641 
L 2663 1641 
L 2663 2322 
L 4581 2322 
L 4581 703 
Q 4231 344 3670 140 
Q 3109 -63 2494 -63 
Q 1419 -63 841 532 
Q 263 1128 263 2222 
Q 263 3309 844 3889 
Q 1425 4469 2516 4469 
Q 4066 4469 4488 3322 
L 3638 3066 
Q 3500 3400 3206 3572 
Q 2913 3744 2516 3744 
Q 1866 3744 1528 3350 
Q 1191 2956 1191 2222 
Q 1191 1475 1539 1067 
Q 1888 659 2519 659 
z
" transform="scale(0.015625)"/>
      <path id="LiberationSans-Bold-77" d="M 4103 0 
L 3175 0 
L 2638 2063 
Q 2600 2203 2491 2756 
L 2328 2056 
L 1784 0 
L 856 0 
L -19 3381 
L 806 3381 
L 1363 797 
L 1406 1028 
L 1484 1394 
L 2016 3381 
L 2956 3381 
L 3475 1394 
Q 3519 1231 3603 797 
L 3691 1209 
L 4178 3381 
L 4991 3381 
L 4103 0 
z
" transform="scale(0.015625)"/>
      <path id="LiberationSans-Bold-4c" d="M 428 0 
L 428 4403 
L 1350 4403 
L 1350 713 
L 3713 713 
L 3713 0 
L 428 0 
z
" transform="scale(0.015625)"/>
     </defs>
     <use xlink:href="#LiberationSans-Bold-49"/>
     <use xlink:href="#LiberationSans-Bold-6e" transform="translate(27.783203 0)"/>
     <use xlink:href="#LiberationSans-Bold-66" transform="translate(88.867188 0)"/>
     <use xlink:href="#LiberationSans-Bold-72" transform="translate(122.167969 0)"/>
     <use xlink:href="#LiberationSans-Bold-61" transform="translate(161.083984 0)"/>
     <use xlink:href="#LiberationSans-Bold-73" transform="translate(216.699219 0)"/>
     <use xlink:href="#LiberationSans-Bold-74" transform="translate(272.314453 0)"/>
     <use xlink:href="#LiberationSans-Bold-72" transform="translate(305.615234 0)"/>
     <use xlink:href="#LiberationSans-Bold-75" transform="translate(344.53125 0)"/>
     <use xlink:href="#LiberationSans-Bold-63" transform="translate(405.615234 0)"/>
     <use xlink:href="#LiberationSans-Bold-74" transform="translate(461.230469 0)"/>
     <use xlink:href="#LiberationSans-Bold-75" transform="translate(494.53125 0)"/>
     <use xlink:href="#LiberationSans-Bold-72" transform="translate(555.615234 0)"/>
     <use xlink:href="#LiberationSans-Bold-65" transform="translate(594.53125 0)"/>
     <use xlink:href="#LiberationSans-Bold-20" transform="translate(650.146484 0)"/>
     <use xlink:href="#LiberationSans-Bold-42" transform="translate(677.929688 0)"/>
     <use xlink:href="#LiberationSans-Bold-65" transform="translate(750.146484 0)"/>
     <use xlink:href="#LiberationSans-Bold-6e" transform="translate(805.761719 0)"/>
     <use xlink:href="#LiberationSans-Bold-65" transform="translate(866.845703 0)"/>
     <use xlink:href="#LiberationSans-Bold-66" transform="translate(922.460938 0)"/>
     <use xlink:href="#LiberationSans-Bold-69" transform="translate(955.761719 0)"/>
     <use xlink:href="#LiberationSans-Bold-74" transform="translate(983.544922 0)"/>
     <use xlink:href="#LiberationSans-Bold-20" transform="translate(1016.845703 0)"/>
     <use xlink:href="#LiberationSans-Bold-47" transform="translate(1044.628906 0)"/>
     <use xlink:href="#LiberationSans-Bold-72" transform="translate(1122.412109 0)"/>
     <use xlink:href="#LiberationSans-Bold-6f" transform="translate(1161.328125 0)"/>
     <use xlink:href="#LiberationSans-Bold-77" transform="translate(1222.412109 0)"/>
     <use xlink:href="#LiberationSans-Bold-73" transform="translate(1300.195312 0)"/>
     <use xlink:href="#LiberationSans-Bold-20" transform="translate(1355.810547 0)"/>
     <use xlink:href="#LiberationSans-Bold-4c" transform="translate(1383.59375 0)"/>
     <use xlink:href="#LiberationSans-Bold-69" transform="translate(1444.677734 0)"/>
     <use xlink:href="#LiberationSans-Bold-6e" transform="translate(1472.460938 0)"/>
     <use xlink:href="#LiberationSans-Bold-65" transform="translate(1533.544922 0)"/>
     <use xlink:href="#LiberationSans-Bold-61" transform="translate(1589.160156 0)"/>
     <use xlink:href="#LiberationSans-Bold-72" transform="translate(1644.775391 0)"/>
     <use xlink:href="#LiberationSans-Bold-6c" transform="translate(1683.691406 0)"/>
     <use xlink:href="#LiberationSans-Bold-79" transform="translate(1711.474609 0)"/>
    </g>
   </g>
  </g>
 </g>
 <defs>
  <clipPath id="p2801b8b3ba">
   <rect x="42.621563" y="23.345625" width="452.76" height="366.66"/>
  </clipPath>
  <clipPath id="pd87025b32e">
   <rect x="541.131562" y="23.345625" width="452.76" height="366.66"/>
  </clipPath>
 </defs>
</svg>
