<?xml version="1.0" encoding="utf-8" standalone="no"?>
<!DOCTYPE svg PUBLIC "-//W3C//DTD SVG 1.1//EN"
  "http://www.w3.org/Graphics/SVG/1.1/DTD/svg11.dtd">
<svg xmlns:xlink="http://www.w3.org/1999/xlink" width="857.2525pt" height="474.15944pt" viewBox="0 0 857.2525 474.15944" xmlns="http://www.w3.org/2000/svg" version="1.1">
 <metadata>
  <rdf:RDF xmlns:dc="http://purl.org/dc/elements/1.1/" xmlns:cc="http://creativecommons.org/ns#" xmlns:rdf="http://www.w3.org/1999/02/22-rdf-syntax-ns#">
   <cc:Work>
    <dc:type rdf:resource="http://purl.org/dc/dcmitype/StillImage"/>
    <dc:date>2025-11-16T17:04:51.883876</dc:date>
    <dc:format>image/svg+xml</dc:format>
    <dc:creator>
     <cc:Agent>
      <dc:title>Matplotlib v3.10.7, https://matplotlib.org/</dc:title>
     </cc:Agent>
    </dc:creator>
   </cc:Work>
  </rdf:RDF>
 </metadata>
 <defs>
  <style type="text/css">*{stroke-linejoin: round; stroke-linecap: butt}</style>
 </defs>
 <g id="figure_1">
  <g id="patch_1">
   <path d="M 0 474.15944 
L 857.2525 474.15944 
L 857.2525 0 
L 0 0 
z
" style="fill: #ffffff"/>
  </g>
  <g id="axes_1">
   <g id="patch_2">
    <path d="M 48.1825 438.951315 
L 850.0525 438.951315 
L 850.0525 124.075315 
L 48.1825 124.075315 
z
" style="fill: #eaeaf2"/>
   </g>
   <g id="matplotlib.axis_1">
    <g id="xtick_1">
     <g id="line2d_1">
      <path d="M 48.1825 438.951315 
L 48.1825 124.075315 
" clip-path="url(#pd31cfd4667)" style="fill: none; stroke: #ffffff; stroke-opacity: 0.3; stroke-width: 0.8; stroke-linecap: round"/>
     </g>
     <g id="line2d_2"/>
     <g id="text_1">
      <!-- 0 -->
      <g style="fill: #262626" transform="translate(45.402031 449.69819) scale(0.1 -0.1)">
       <defs>
        <path id="LiberationSans-30" d="M 3309 2203 
Q 3309 1100 2920 518 
Q 2531 -63 1772 -63 
Q 1013 -63 631 515 
Q 250 1094 250 2203 
Q 250 3338 620 3903 
Q 991 4469 1791 4469 
Q 2569 4469 2939 3897 
Q 3309 3325 3309 2203 
z
M 2738 2203 
Q 2738 3156 2517 3584 
Q 2297 4013 1791 4013 
Q 1272 4013 1045 3591 
Q 819 3169 819 2203 
Q 819 1266 1048 831 
Q 1278 397 1778 397 
Q 2275 397 2506 840 
Q 2738 1284 2738 2203 
z
" transform="scale(0.015625)"/>
       </defs>
       <use xlink:href="#LiberationSans-30"/>
      </g>
     </g>
    </g>
    <g id="xtick_2">
     <g id="line2d_3">
      <path d="M 215.23875 438.951315 
L 215.23875 124.075315 
" clip-path="url(#pd31cfd4667)" style="fill: none; stroke: #ffffff; stroke-opacity: 0.3; stroke-width: 0.8; stroke-linecap: round"/>
     </g>
     <g id="line2d_4"/>
     <g id="text_2">
      <!-- 5 -->
      <g style="fill: #262626" transform="translate(212.458281 449.69819) scale(0.1 -0.1)">
       <defs>
        <path id="LiberationSans-35" d="M 3291 1434 
Q 3291 738 2877 337 
Q 2463 -63 1728 -63 
Q 1113 -63 734 206 
Q 356 475 256 984 
L 825 1050 
Q 1003 397 1741 397 
Q 2194 397 2450 670 
Q 2706 944 2706 1422 
Q 2706 1838 2448 2094 
Q 2191 2350 1753 2350 
Q 1525 2350 1328 2278 
Q 1131 2206 934 2034 
L 384 2034 
L 531 4403 
L 3034 4403 
L 3034 3925 
L 1044 3925 
L 959 2528 
Q 1325 2809 1869 2809 
Q 2519 2809 2905 2428 
Q 3291 2047 3291 1434 
z
" transform="scale(0.015625)"/>
       </defs>
       <use xlink:href="#LiberationSans-35"/>
      </g>
     </g>
    </g>
    <g id="xtick_3">
     <g id="line2d_5">
      <path d="M 382.295 438.951315 
L 382.295 124.075315 
" clip-path="url(#pd31cfd4667)" style="fill: none; stroke: #ffffff; stroke-opacity: 0.3; stroke-width: 0.8; stroke-linecap: round"/>
     </g>
     <g id="line2d_6"/>
     <g id="text_3">
      <!-- 10 -->
      <g style="fill: #262626" transform="translate(376.734062 449.69819) scale(0.1 -0.1)">
       <defs>
        <path id="LiberationSans-31" d="M 488 0 
L 488 478 
L 1609 478 
L 1609 3866 
L 616 3156 
L 616 3688 
L 1656 4403 
L 2175 4403 
L 2175 478 
L 3247 478 
L 3247 0 
L 488 0 
z
" transform="scale(0.015625)"/>
       </defs>
       <use xlink:href="#LiberationSans-31"/>
       <use xlink:href="#LiberationSans-30" transform="translate(55.615234 0)"/>
      </g>
     </g>
    </g>
    <g id="xtick_4">
     <g id="line2d_7">
      <path d="M 549.35125 438.951315 
L 549.35125 124.075315 
" clip-path="url(#pd31cfd4667)" style="fill: none; stroke: #ffffff; stroke-opacity: 0.3; stroke-width: 0.8; stroke-linecap: round"/>
     </g>
     <g id="line2d_8"/>
     <g id="text_4">
      <!-- 15 -->
      <g style="fill: #262626" transform="translate(543.790312 449.69819) scale(0.1 -0.1)">
       <use xlink:href="#LiberationSans-31"/>
       <use xlink:href="#LiberationSans-35" transform="translate(55.615234 0)"/>
      </g>
     </g>
    </g>
    <g id="xtick_5">
     <g id="line2d_9">
      <path d="M 716.4075 438.951315 
L 716.4075 124.075315 
" clip-path="url(#pd31cfd4667)" style="fill: none; stroke: #ffffff; stroke-opacity: 0.3; stroke-width: 0.8; stroke-linecap: round"/>
     </g>
     <g id="line2d_10"/>
     <g id="text_5">
      <!-- 20 -->
      <g style="fill: #262626" transform="translate(710.846562 449.69819) scale(0.1 -0.1)">
       <defs>
        <path id="LiberationSans-32" d="M 322 0 
L 322 397 
Q 481 763 711 1042 
Q 941 1322 1194 1548 
Q 1447 1775 1695 1969 
Q 1944 2163 2144 2356 
Q 2344 2550 2467 2762 
Q 2591 2975 2591 3244 
Q 2591 3606 2378 3806 
Q 2166 4006 1788 4006 
Q 1428 4006 1195 3811 
Q 963 3616 922 3263 
L 347 3316 
Q 409 3844 795 4156 
Q 1181 4469 1788 4469 
Q 2453 4469 2811 4155 
Q 3169 3841 3169 3263 
Q 3169 3006 3051 2753 
Q 2934 2500 2703 2247 
Q 2472 1994 1819 1463 
Q 1459 1169 1246 933 
Q 1034 697 941 478 
L 3238 478 
L 3238 0 
L 322 0 
z
" transform="scale(0.015625)"/>
       </defs>
       <use xlink:href="#LiberationSans-32"/>
       <use xlink:href="#LiberationSans-30" transform="translate(55.615234 0)"/>
      </g>
     </g>
    </g>
    <g id="text_6">
     <!-- Time (months) -->
     <g style="fill: #262626" transform="translate(407.892812 464.46944) scale(0.12 -0.12)">
      <defs>
       <path id="LiberationSans-Bold-54" d="M 2416 3691 
L 2416 0 
L 1494 0 
L 1494 3691 
L 72 3691 
L 72 4403 
L 3841 4403 
L 3841 3691 
L 2416 3691 
z
" transform="scale(0.015625)"/>
       <path id="LiberationSans-Bold-69" d="M 447 3991 
L 447 4638 
L 1325 4638 
L 1325 3991 
L 447 3991 
z
M 447 0 
L 447 3381 
L 1325 3381 
L 1325 0 
L 447 0 
z
" transform="scale(0.015625)"/>
       <path id="LiberationSans-Bold-6d" d="M 2438 0 
L 2438 1897 
Q 2438 2788 1925 2788 
Q 1659 2788 1492 2516 
Q 1325 2244 1325 1813 
L 1325 0 
L 447 0 
L 447 2625 
Q 447 2897 439 3070 
Q 431 3244 422 3381 
L 1259 3381 
Q 1269 3322 1284 3064 
Q 1300 2806 1300 2709 
L 1313 2709 
Q 1475 3097 1717 3272 
Q 1959 3447 2297 3447 
Q 3072 3447 3238 2709 
L 3256 2709 
Q 3428 3103 3668 3275 
Q 3909 3447 4281 3447 
Q 4775 3447 5034 3111 
Q 5294 2775 5294 2147 
L 5294 0 
L 4422 0 
L 4422 1897 
Q 4422 2788 3909 2788 
Q 3653 2788 3489 2539 
Q 3325 2291 3309 1853 
L 3309 0 
L 2438 0 
z
" transform="scale(0.015625)"/>
       <path id="LiberationSans-Bold-65" d="M 1831 -63 
Q 1069 -63 659 389 
Q 250 841 250 1706 
Q 250 2544 665 2994 
Q 1081 3444 1844 3444 
Q 2572 3444 2956 2961 
Q 3341 2478 3341 1547 
L 3341 1522 
L 1172 1522 
Q 1172 1028 1355 776 
Q 1538 525 1875 525 
Q 2341 525 2463 928 
L 3291 856 
Q 2931 -63 1831 -63 
z
M 1831 2891 
Q 1522 2891 1355 2675 
Q 1188 2459 1178 2072 
L 2491 2072 
Q 2466 2481 2294 2686 
Q 2122 2891 1831 2891 
z
" transform="scale(0.015625)"/>
       <path id="LiberationSans-Bold-20" transform="scale(0.015625)"/>
       <path id="LiberationSans-Bold-28" d="M 1247 -1328 
Q 756 -622 537 81 
Q 319 784 319 1659 
Q 319 2531 537 3232 
Q 756 3934 1247 4638 
L 2125 4638 
Q 1631 3925 1407 3219 
Q 1184 2513 1184 1656 
Q 1184 803 1406 101 
Q 1628 -600 2125 -1328 
L 1247 -1328 
z
" transform="scale(0.015625)"/>
       <path id="LiberationSans-Bold-6f" d="M 3659 1694 
Q 3659 872 3203 404 
Q 2747 -63 1941 -63 
Q 1150 -63 700 406 
Q 250 875 250 1694 
Q 250 2509 700 2976 
Q 1150 3444 1959 3444 
Q 2788 3444 3223 2992 
Q 3659 2541 3659 1694 
z
M 2741 1694 
Q 2741 2297 2544 2569 
Q 2347 2841 1972 2841 
Q 1172 2841 1172 1694 
Q 1172 1128 1367 833 
Q 1563 538 1931 538 
Q 2741 538 2741 1694 
z
" transform="scale(0.015625)"/>
       <path id="LiberationSans-Bold-6e" d="M 2638 0 
L 2638 1897 
Q 2638 2788 2034 2788 
Q 1716 2788 1520 2514 
Q 1325 2241 1325 1813 
L 1325 0 
L 447 0 
L 447 2625 
Q 447 2897 439 3070 
Q 431 3244 422 3381 
L 1259 3381 
Q 1269 3322 1284 3064 
Q 1300 2806 1300 2709 
L 1313 2709 
Q 1491 3097 1759 3272 
Q 2028 3447 2400 3447 
Q 2938 3447 3225 3115 
Q 3513 2784 3513 2147 
L 3513 0 
L 2638 0 
z
" transform="scale(0.015625)"/>
       <path id="LiberationSans-Bold-74" d="M 1313 -56 
Q 925 -56 715 155 
Q 506 366 506 794 
L 506 2788 
L 78 2788 
L 78 3381 
L 550 3381 
L 825 4175 
L 1375 4175 
L 1375 3381 
L 2016 3381 
L 2016 2788 
L 1375 2788 
L 1375 1031 
Q 1375 784 1469 667 
Q 1563 550 1759 550 
Q 1863 550 2053 594 
L 2053 50 
Q 1728 -56 1313 -56 
z
" transform="scale(0.015625)"/>
       <path id="LiberationSans-Bold-68" d="M 1313 2706 
Q 1491 3094 1759 3269 
Q 2028 3444 2400 3444 
Q 2938 3444 3225 3112 
Q 3513 2781 3513 2144 
L 3513 0 
L 2638 0 
L 2638 1894 
Q 2638 2784 2034 2784 
Q 1716 2784 1520 2511 
Q 1325 2238 1325 1809 
L 1325 0 
L 447 0 
L 447 4638 
L 1325 4638 
L 1325 3372 
Q 1325 3031 1300 2706 
L 1313 2706 
z
" transform="scale(0.015625)"/>
       <path id="LiberationSans-Bold-73" d="M 3297 988 
Q 3297 497 2895 217 
Q 2494 -63 1784 -63 
Q 1088 -63 717 157 
Q 347 378 225 844 
L 997 959 
Q 1063 719 1223 619 
Q 1384 519 1784 519 
Q 2153 519 2322 612 
Q 2491 706 2491 906 
Q 2491 1069 2355 1164 
Q 2219 1259 1894 1325 
Q 1150 1472 890 1598 
Q 631 1725 495 1926 
Q 359 2128 359 2422 
Q 359 2906 732 3176 
Q 1106 3447 1791 3447 
Q 2394 3447 2761 3212 
Q 3128 2978 3219 2534 
L 2441 2453 
Q 2403 2659 2256 2761 
Q 2109 2863 1791 2863 
Q 1478 2863 1322 2783 
Q 1166 2703 1166 2516 
Q 1166 2369 1286 2283 
Q 1406 2197 1691 2141 
Q 2088 2059 2395 1973 
Q 2703 1888 2889 1769 
Q 3075 1650 3186 1464 
Q 3297 1278 3297 988 
z
" transform="scale(0.015625)"/>
       <path id="LiberationSans-Bold-29" d="M 6 -1328 
Q 506 -597 726 101 
Q 947 800 947 1656 
Q 947 2516 722 3223 
Q 497 3931 6 4638 
L 884 4638 
Q 1378 3928 1595 3225 
Q 1813 2522 1813 1659 
Q 1813 791 1595 87 
Q 1378 -616 884 -1328 
L 6 -1328 
z
" transform="scale(0.015625)"/>
      </defs>
      <use xlink:href="#LiberationSans-Bold-54"/>
      <use xlink:href="#LiberationSans-Bold-69" transform="translate(59.333984 0)"/>
      <use xlink:href="#LiberationSans-Bold-6d" transform="translate(87.117188 0)"/>
      <use xlink:href="#LiberationSans-Bold-65" transform="translate(176.033203 0)"/>
      <use xlink:href="#LiberationSans-Bold-20" transform="translate(231.648438 0)"/>
      <use xlink:href="#LiberationSans-Bold-28" transform="translate(259.431641 0)"/>
      <use xlink:href="#LiberationSans-Bold-6d" transform="translate(292.732422 0)"/>
      <use xlink:href="#LiberationSans-Bold-6f" transform="translate(381.648438 0)"/>
      <use xlink:href="#LiberationSans-Bold-6e" transform="translate(442.732422 0)"/>
      <use xlink:href="#LiberationSans-Bold-74" transform="translate(503.816406 0)"/>
      <use xlink:href="#LiberationSans-Bold-68" transform="translate(537.117188 0)"/>
      <use xlink:href="#LiberationSans-Bold-73" transform="translate(598.201172 0)"/>
      <use xlink:href="#LiberationSans-Bold-29" transform="translate(653.816406 0)"/>
     </g>
    </g>
   </g>
   <g id="matplotlib.axis_2">
    <g id="ytick_1">
     <g id="line2d_11">
      <path d="M 48.1825 424.63877 
L 850.0525 424.63877 
" clip-path="url(#pd31cfd4667)" style="fill: none; stroke: #ffffff; stroke-opacity: 0.3; stroke-width: 0.8; stroke-linecap: round"/>
     </g>
     <g id="line2d_12"/>
     <g id="text_7">
      <!-- 0 -->
      <g style="fill: #262626" transform="translate(39.121563 428.262207) scale(0.1 -0.1)">
       <use xlink:href="#LiberationSans-30"/>
      </g>
     </g>
    </g>
    <g id="ytick_2">
     <g id="line2d_13">
      <path d="M 48.1825 371.629342 
L 850.0525 371.629342 
" clip-path="url(#pd31cfd4667)" style="fill: none; stroke: #ffffff; stroke-opacity: 0.3; stroke-width: 0.8; stroke-linecap: round"/>
     </g>
     <g id="line2d_14"/>
     <g id="text_8">
      <!-- 200 -->
      <g style="fill: #262626" transform="translate(27.999688 375.252779) scale(0.1 -0.1)">
       <use xlink:href="#LiberationSans-32"/>
       <use xlink:href="#LiberationSans-30" transform="translate(55.615234 0)"/>
       <use xlink:href="#LiberationSans-30" transform="translate(111.230469 0)"/>
      </g>
     </g>
    </g>
    <g id="ytick_3">
     <g id="line2d_15">
      <path d="M 48.1825 318.619914 
L 850.0525 318.619914 
" clip-path="url(#pd31cfd4667)" style="fill: none; stroke: #ffffff; stroke-opacity: 0.3; stroke-width: 0.8; stroke-linecap: round"/>
     </g>
     <g id="line2d_16"/>
     <g id="text_9">
      <!-- 400 -->
      <g style="fill: #262626" transform="translate(27.999688 322.243352) scale(0.1 -0.1)">
       <defs>
        <path id="LiberationSans-34" d="M 2753 997 
L 2753 0 
L 2222 0 
L 2222 997 
L 147 997 
L 147 1434 
L 2163 4403 
L 2753 4403 
L 2753 1441 
L 3372 1441 
L 3372 997 
L 2753 997 
z
M 2222 3769 
Q 2216 3750 2134 3603 
Q 2053 3456 2013 3397 
L 884 1734 
L 716 1503 
L 666 1441 
L 2222 1441 
L 2222 3769 
z
" transform="scale(0.015625)"/>
       </defs>
       <use xlink:href="#LiberationSans-34"/>
       <use xlink:href="#LiberationSans-30" transform="translate(55.615234 0)"/>
       <use xlink:href="#LiberationSans-30" transform="translate(111.230469 0)"/>
      </g>
     </g>
    </g>
    <g id="ytick_4">
     <g id="line2d_17">
      <path d="M 48.1825 265.610487 
L 850.0525 265.610487 
" clip-path="url(#pd31cfd4667)" style="fill: none; stroke: #ffffff; stroke-opacity: 0.3; stroke-width: 0.8; stroke-linecap: round"/>
     </g>
     <g id="line2d_18"/>
     <g id="text_10">
      <!-- 600 -->
      <g style="fill: #262626" transform="translate(27.999688 269.233924) scale(0.1 -0.1)">
       <defs>
        <path id="LiberationSans-36" d="M 3278 1441 
Q 3278 744 2900 340 
Q 2522 -63 1856 -63 
Q 1113 -63 719 490 
Q 325 1044 325 2100 
Q 325 3244 734 3856 
Q 1144 4469 1900 4469 
Q 2897 4469 3156 3572 
L 2619 3475 
Q 2453 4013 1894 4013 
Q 1413 4013 1148 3564 
Q 884 3116 884 2266 
Q 1038 2550 1316 2698 
Q 1594 2847 1953 2847 
Q 2563 2847 2920 2465 
Q 3278 2084 3278 1441 
z
M 2706 1416 
Q 2706 1894 2472 2153 
Q 2238 2413 1819 2413 
Q 1425 2413 1183 2183 
Q 941 1953 941 1550 
Q 941 1041 1192 716 
Q 1444 391 1838 391 
Q 2244 391 2475 664 
Q 2706 938 2706 1416 
z
" transform="scale(0.015625)"/>
       </defs>
       <use xlink:href="#LiberationSans-36"/>
       <use xlink:href="#LiberationSans-30" transform="translate(55.615234 0)"/>
       <use xlink:href="#LiberationSans-30" transform="translate(111.230469 0)"/>
      </g>
     </g>
    </g>
    <g id="ytick_5">
     <g id="line2d_19">
      <path d="M 48.1825 212.601059 
L 850.0525 212.601059 
" clip-path="url(#pd31cfd4667)" style="fill: none; stroke: #ffffff; stroke-opacity: 0.3; stroke-width: 0.8; stroke-linecap: round"/>
     </g>
     <g id="line2d_20"/>
     <g id="text_11">
      <!-- 800 -->
      <g style="fill: #262626" transform="translate(27.999688 216.224497) scale(0.1 -0.1)">
       <defs>
        <path id="LiberationSans-38" d="M 3281 1228 
Q 3281 619 2893 278 
Q 2506 -63 1781 -63 
Q 1075 -63 676 271 
Q 278 606 278 1222 
Q 278 1653 525 1947 
Q 772 2241 1156 2303 
L 1156 2316 
Q 797 2400 589 2681 
Q 381 2963 381 3341 
Q 381 3844 757 4156 
Q 1134 4469 1769 4469 
Q 2419 4469 2795 4162 
Q 3172 3856 3172 3334 
Q 3172 2956 2962 2675 
Q 2753 2394 2391 2322 
L 2391 2309 
Q 2813 2241 3047 1952 
Q 3281 1663 3281 1228 
z
M 2588 3303 
Q 2588 4050 1769 4050 
Q 1372 4050 1164 3862 
Q 956 3675 956 3303 
Q 956 2925 1170 2726 
Q 1384 2528 1775 2528 
Q 2172 2528 2380 2711 
Q 2588 2894 2588 3303 
z
M 2697 1281 
Q 2697 1691 2453 1898 
Q 2209 2106 1769 2106 
Q 1341 2106 1100 1882 
Q 859 1659 859 1269 
Q 859 359 1788 359 
Q 2247 359 2472 579 
Q 2697 800 2697 1281 
z
" transform="scale(0.015625)"/>
       </defs>
       <use xlink:href="#LiberationSans-38"/>
       <use xlink:href="#LiberationSans-30" transform="translate(55.615234 0)"/>
       <use xlink:href="#LiberationSans-30" transform="translate(111.230469 0)"/>
      </g>
     </g>
    </g>
    <g id="ytick_6">
     <g id="line2d_21">
      <path d="M 48.1825 159.591632 
L 850.0525 159.591632 
" clip-path="url(#pd31cfd4667)" style="fill: none; stroke: #ffffff; stroke-opacity: 0.3; stroke-width: 0.8; stroke-linecap: round"/>
     </g>
     <g id="line2d_22"/>
     <g id="text_12">
      <!-- 1000 -->
      <g style="fill: #262626" transform="translate(22.43875 163.215069) scale(0.1 -0.1)">
       <use xlink:href="#LiberationSans-31"/>
       <use xlink:href="#LiberationSans-30" transform="translate(55.615234 0)"/>
       <use xlink:href="#LiberationSans-30" transform="translate(111.230469 0)"/>
       <use xlink:href="#LiberationSans-30" transform="translate(166.845703 0)"/>
      </g>
     </g>
    </g>
    <g id="text_13">
     <!-- Knowledge (arbitrary units) -->
     <g style="fill: #262626" transform="translate(15.89625 359.517065) rotate(-90) scale(0.12 -0.12)">
      <defs>
       <path id="LiberationSans-Bold-4b" d="M 3475 0 
L 1894 2022 
L 1350 1606 
L 1350 0 
L 428 0 
L 428 4403 
L 1350 4403 
L 1350 2406 
L 3334 4403 
L 4409 4403 
L 2528 2541 
L 4563 0 
L 3475 0 
z
" transform="scale(0.015625)"/>
       <path id="LiberationSans-Bold-77" d="M 4103 0 
L 3175 0 
L 2638 2063 
Q 2600 2203 2491 2756 
L 2328 2056 
L 1784 0 
L 856 0 
L -19 3381 
L 806 3381 
L 1363 797 
L 1406 1028 
L 1484 1394 
L 2016 3381 
L 2956 3381 
L 3475 1394 
Q 3519 1231 3603 797 
L 3691 1209 
L 4178 3381 
L 4991 3381 
L 4103 0 
z
" transform="scale(0.015625)"/>
       <path id="LiberationSans-Bold-6c" d="M 447 0 
L 447 4638 
L 1325 4638 
L 1325 0 
L 447 0 
z
" transform="scale(0.015625)"/>
       <path id="LiberationSans-Bold-64" d="M 2638 0 
Q 2625 47 2608 236 
Q 2591 425 2591 550 
L 2578 550 
Q 2294 -63 1497 -63 
Q 906 -63 584 398 
Q 263 859 263 1688 
Q 263 2528 602 2986 
Q 941 3444 1563 3444 
Q 1922 3444 2183 3294 
Q 2444 3144 2584 2847 
L 2591 2847 
L 2584 3403 
L 2584 4638 
L 3463 4638 
L 3463 738 
Q 3463 425 3488 0 
L 2638 0 
z
M 2597 1709 
Q 2597 2256 2414 2551 
Q 2231 2847 1875 2847 
Q 1522 2847 1350 2561 
Q 1178 2275 1178 1688 
Q 1178 538 1869 538 
Q 2216 538 2406 842 
Q 2597 1147 2597 1709 
z
" transform="scale(0.015625)"/>
       <path id="LiberationSans-Bold-67" d="M 1863 -1356 
Q 1244 -1356 867 -1120 
Q 491 -884 403 -447 
L 1281 -344 
Q 1328 -547 1483 -662 
Q 1638 -778 1888 -778 
Q 2253 -778 2422 -553 
Q 2591 -328 2591 116 
L 2591 294 
L 2597 628 
L 2591 628 
Q 2300 6 1503 6 
Q 913 6 588 450 
Q 263 894 263 1719 
Q 263 2547 597 2997 
Q 931 3447 1569 3447 
Q 2306 3447 2591 2838 
L 2606 2838 
Q 2606 2947 2620 3134 
Q 2634 3322 2650 3381 
L 3481 3381 
Q 3463 3044 3463 2600 
L 3463 103 
Q 3463 -619 3053 -987 
Q 2644 -1356 1863 -1356 
z
M 2597 1738 
Q 2597 2259 2411 2551 
Q 2225 2844 1881 2844 
Q 1178 2844 1178 1719 
Q 1178 616 1875 616 
Q 2225 616 2411 908 
Q 2597 1200 2597 1738 
z
" transform="scale(0.015625)"/>
       <path id="LiberationSans-Bold-61" d="M 1228 -63 
Q 738 -63 463 204 
Q 188 472 188 956 
Q 188 1481 530 1756 
Q 872 2031 1522 2038 
L 2250 2050 
L 2250 2222 
Q 2250 2553 2134 2714 
Q 2019 2875 1756 2875 
Q 1513 2875 1398 2764 
Q 1284 2653 1256 2397 
L 341 2441 
Q 425 2934 792 3189 
Q 1159 3444 1794 3444 
Q 2434 3444 2781 3128 
Q 3128 2813 3128 2231 
L 3128 1000 
Q 3128 716 3192 608 
Q 3256 500 3406 500 
Q 3506 500 3600 519 
L 3600 44 
Q 3522 25 3459 9 
Q 3397 -6 3334 -15 
Q 3272 -25 3201 -31 
Q 3131 -38 3038 -38 
Q 2706 -38 2548 125 
Q 2391 288 2359 603 
L 2341 603 
Q 1972 -63 1228 -63 
z
M 2250 1566 
L 1800 1559 
Q 1494 1547 1366 1492 
Q 1238 1438 1170 1325 
Q 1103 1213 1103 1025 
Q 1103 784 1214 667 
Q 1325 550 1509 550 
Q 1716 550 1886 662 
Q 2056 775 2153 973 
Q 2250 1172 2250 1394 
L 2250 1566 
z
" transform="scale(0.015625)"/>
       <path id="LiberationSans-Bold-72" d="M 447 0 
L 447 2588 
Q 447 2866 439 3052 
Q 431 3238 422 3381 
L 1259 3381 
Q 1269 3325 1284 3039 
Q 1300 2753 1300 2659 
L 1313 2659 
Q 1441 3016 1541 3161 
Q 1641 3306 1778 3376 
Q 1916 3447 2122 3447 
Q 2291 3447 2394 3400 
L 2394 2666 
Q 2181 2713 2019 2713 
Q 1691 2713 1508 2447 
Q 1325 2181 1325 1659 
L 1325 0 
L 447 0 
z
" transform="scale(0.015625)"/>
       <path id="LiberationSans-Bold-62" d="M 3647 1703 
Q 3647 866 3311 401 
Q 2975 -63 2350 -63 
Q 1991 -63 1728 93 
Q 1466 250 1325 544 
L 1319 544 
Q 1319 434 1305 243 
Q 1291 53 1275 0 
L 422 0 
Q 447 291 447 772 
L 447 4638 
L 1325 4638 
L 1325 3344 
L 1313 2794 
L 1325 2794 
Q 1622 3444 2406 3444 
Q 3006 3444 3326 2989 
Q 3647 2534 3647 1703 
z
M 2731 1703 
Q 2731 2278 2562 2556 
Q 2394 2834 2041 2834 
Q 1684 2834 1498 2536 
Q 1313 2238 1313 1675 
Q 1313 1138 1495 838 
Q 1678 538 2034 538 
Q 2731 538 2731 1703 
z
" transform="scale(0.015625)"/>
       <path id="LiberationSans-Bold-79" d="M 884 -1328 
Q 569 -1328 331 -1288 
L 331 -663 
Q 497 -688 634 -688 
Q 822 -688 945 -628 
Q 1069 -569 1167 -431 
Q 1266 -294 1388 34 
L 50 3381 
L 978 3381 
L 1509 1797 
Q 1634 1456 1825 753 
L 1903 1050 
L 2106 1784 
L 2606 3381 
L 3525 3381 
L 2188 -178 
Q 1919 -828 1630 -1078 
Q 1341 -1328 884 -1328 
z
" transform="scale(0.015625)"/>
       <path id="LiberationSans-Bold-75" d="M 1275 3381 
L 1275 1484 
Q 1275 594 1875 594 
Q 2194 594 2389 867 
Q 2584 1141 2584 1569 
L 2584 3381 
L 3463 3381 
L 3463 756 
Q 3463 325 3488 0 
L 2650 0 
Q 2613 450 2613 672 
L 2597 672 
Q 2422 288 2151 112 
Q 1881 -63 1509 -63 
Q 972 -63 684 267 
Q 397 597 397 1234 
L 397 3381 
L 1275 3381 
z
" transform="scale(0.015625)"/>
      </defs>
      <use xlink:href="#LiberationSans-Bold-4b"/>
      <use xlink:href="#LiberationSans-Bold-6e" transform="translate(72.216797 0)"/>
      <use xlink:href="#LiberationSans-Bold-6f" transform="translate(133.300781 0)"/>
      <use xlink:href="#LiberationSans-Bold-77" transform="translate(194.384766 0)"/>
      <use xlink:href="#LiberationSans-Bold-6c" transform="translate(272.167969 0)"/>
      <use xlink:href="#LiberationSans-Bold-65" transform="translate(299.951172 0)"/>
      <use xlink:href="#LiberationSans-Bold-64" transform="translate(355.566406 0)"/>
      <use xlink:href="#LiberationSans-Bold-67" transform="translate(416.650391 0)"/>
      <use xlink:href="#LiberationSans-Bold-65" transform="translate(477.734375 0)"/>
      <use xlink:href="#LiberationSans-Bold-20" transform="translate(533.349609 0)"/>
      <use xlink:href="#LiberationSans-Bold-28" transform="translate(561.132812 0)"/>
      <use xlink:href="#LiberationSans-Bold-61" transform="translate(594.433594 0)"/>
      <use xlink:href="#LiberationSans-Bold-72" transform="translate(650.048828 0)"/>
      <use xlink:href="#LiberationSans-Bold-62" transform="translate(688.964844 0)"/>
      <use xlink:href="#LiberationSans-Bold-69" transform="translate(750.048828 0)"/>
      <use xlink:href="#LiberationSans-Bold-74" transform="translate(777.832031 0)"/>
      <use xlink:href="#LiberationSans-Bold-72" transform="translate(811.132812 0)"/>
      <use xlink:href="#LiberationSans-Bold-61" transform="translate(850.048828 0)"/>
      <use xlink:href="#LiberationSans-Bold-72" transform="translate(905.664062 0)"/>
      <use xlink:href="#LiberationSans-Bold-79" transform="translate(944.580078 0)"/>
      <use xlink:href="#LiberationSans-Bold-20" transform="translate(1000.195312 0)"/>
      <use xlink:href="#LiberationSans-Bold-75" transform="translate(1027.978516 0)"/>
      <use xlink:href="#LiberationSans-Bold-6e" transform="translate(1089.0625 0)"/>
      <use xlink:href="#LiberationSans-Bold-69" transform="translate(1150.146484 0)"/>
      <use xlink:href="#LiberationSans-Bold-74" transform="translate(1177.929688 0)"/>
      <use xlink:href="#LiberationSans-Bold-73" transform="translate(1211.230469 0)"/>
      <use xlink:href="#LiberationSans-Bold-29" transform="translate(1266.845703 0)"/>
     </g>
    </g>
   </g>
   <g id="FillBetweenPolyCollection_1">
    <defs>
     <path id="mbfdb291c71" d="M 48.1825 -49.52067 
L 48.1825 -49.52067 
L 52.211997 -50.000153 
L 56.241495 -50.479635 
L 60.270992 -50.959117 
L 64.30049 -51.438599 
L 68.329987 -51.918082 
L 72.359485 -52.397564 
L 76.388982 -52.877046 
L 80.41848 -53.356529 
L 84.447977 -53.836011 
L 88.477475 -54.315493 
L 92.506972 -54.794975 
L 96.53647 -55.274458 
L 100.565967 -55.75394 
L 104.595465 -56.233422 
L 108.624962 -56.712904 
L 112.65446 -57.192387 
L 116.683957 -57.671869 
L 120.713455 -58.151351 
L 124.742952 -58.630833 
L 128.77245 -59.110316 
L 132.801947 -59.589798 
L 136.831445 -60.06928 
L 140.860942 -60.548762 
L 144.89044 -61.028245 
L 148.919937 -61.507727 
L 152.949435 -61.987209 
L 156.978932 -62.466691 
L 161.00843 -62.946174 
L 165.037927 -63.425656 
L 169.067425 -63.905138 
L 173.096922 -64.384621 
L 177.12642 -64.864103 
L 181.155917 -65.343585 
L 185.185415 -65.823067 
L 189.214912 -66.30255 
L 193.24441 -66.782032 
L 197.273907 -67.261514 
L 201.303405 -67.740996 
L 205.332902 -68.220479 
L 209.362399 -68.699961 
L 213.391897 -69.179443 
L 217.421394 -69.658925 
L 221.450892 -70.138408 
L 225.480389 -70.61789 
L 229.509887 -71.097372 
L 233.539384 -71.576854 
L 237.568882 -72.056337 
L 241.598379 -72.535819 
L 245.627877 -73.015301 
L 249.657374 -73.494783 
L 253.686872 -73.974266 
L 257.716369 -74.453748 
L 261.745867 -74.93323 
L 265.775364 -75.412712 
L 269.804862 -75.892195 
L 273.834359 -76.371677 
L 277.863857 -76.851159 
L 281.893354 -77.330642 
L 285.922852 -77.810124 
L 289.952349 -78.289606 
L 293.981847 -78.769088 
L 298.011344 -79.248571 
L 302.040842 -79.728053 
L 306.070339 -80.207535 
L 310.099837 -80.687017 
L 314.129334 -81.1665 
L 318.158832 -81.645982 
L 322.188329 -82.125464 
L 326.217827 -82.604946 
L 330.247324 -83.084429 
L 334.276822 -83.563911 
L 338.306319 -84.043393 
L 342.335817 -84.522875 
L 346.365314 -85.002358 
L 350.394812 -85.48184 
L 354.424309 -85.961322 
L 358.453807 -86.440804 
L 362.483304 -86.920287 
L 366.512802 -87.399769 
L 370.542299 -87.879251 
L 374.571796 -88.358733 
L 378.601294 -88.838216 
L 382.630791 -89.317698 
L 386.660289 -89.79718 
L 390.689786 -90.276663 
L 394.719284 -90.756145 
L 398.748781 -91.235627 
L 402.778279 -91.715109 
L 406.807776 -92.194592 
L 410.837274 -92.674074 
L 414.866771 -93.153556 
L 418.896269 -93.633038 
L 422.925766 -94.112521 
L 426.955264 -94.592003 
L 430.984761 -95.071485 
L 435.014259 -95.550967 
L 439.043756 -96.03045 
L 443.073254 -96.509932 
L 447.102751 -96.989414 
L 451.132249 -97.468896 
L 455.161746 -97.948379 
L 459.191244 -98.427861 
L 463.220741 -98.907343 
L 467.250239 -99.386825 
L 471.279736 -99.866308 
L 475.309234 -100.34579 
L 479.338731 -100.825272 
L 483.368229 -101.304755 
L 487.397726 -101.784237 
L 491.427224 -102.263719 
L 495.456721 -102.743201 
L 499.486219 -103.222684 
L 503.515716 -103.702166 
L 507.545214 -104.181648 
L 511.574711 -104.66113 
L 515.604209 -105.140613 
L 519.633706 -105.620095 
L 523.663204 -106.099577 
L 527.692701 -106.579059 
L 531.722198 -107.058542 
L 535.751696 -107.538024 
L 539.781193 -108.017506 
L 543.810691 -108.496988 
L 547.840188 -108.976471 
L 551.869686 -109.455953 
L 555.899183 -109.935435 
L 559.928681 -110.414917 
L 563.958178 -110.8944 
L 567.987676 -111.373882 
L 572.017173 -111.853364 
L 576.046671 -112.332846 
L 580.076168 -112.812329 
L 584.105666 -113.291811 
L 588.135163 -113.771293 
L 592.164661 -114.250776 
L 596.194158 -114.730258 
L 600.223656 -115.20974 
L 604.253153 -115.689222 
L 608.282651 -116.168705 
L 612.312148 -116.648187 
L 616.341646 -117.127669 
L 620.371143 -117.607151 
L 624.400641 -118.086634 
L 628.430138 -118.566116 
L 632.459636 -119.045598 
L 636.489133 -119.52508 
L 640.518631 -120.004563 
L 644.548128 -120.484045 
L 648.577626 -120.963527 
L 652.607123 -121.443009 
L 656.636621 -121.922492 
L 660.666118 -122.401974 
L 664.695616 -122.881456 
L 668.725113 -123.360938 
L 672.754611 -123.840421 
L 676.784108 -124.319903 
L 680.813606 -124.799385 
L 684.843103 -125.278868 
L 688.872601 -125.75835 
L 692.902098 -126.237832 
L 696.931595 -126.717314 
L 700.961093 -127.196797 
L 704.99059 -127.676279 
L 709.020088 -128.155761 
L 713.049585 -128.635243 
L 717.079083 -129.114726 
L 721.10858 -129.594208 
L 725.138078 -130.07369 
L 729.167575 -130.553172 
L 733.197073 -131.032655 
L 737.22657 -131.512137 
L 741.256068 -131.991619 
L 745.285565 -132.471101 
L 749.315063 -132.950584 
L 753.34456 -133.430066 
L 757.374058 -133.909548 
L 761.403555 -134.38903 
L 765.433053 -134.868513 
L 769.46255 -135.347995 
L 773.492048 -135.827477 
L 777.521545 -136.306959 
L 781.551043 -136.786442 
L 785.58054 -137.265924 
L 789.610038 -137.745406 
L 793.639535 -138.224889 
L 797.669033 -138.704371 
L 801.69853 -139.183853 
L 805.728028 -139.663335 
L 809.757525 -140.142818 
L 813.787023 -140.6223 
L 817.81652 -141.101782 
L 821.846018 -141.581264 
L 825.875515 -142.060747 
L 829.905013 -142.540229 
L 833.93451 -143.019711 
L 837.964008 -143.499193 
L 841.993505 -143.978676 
L 846.023003 -144.458158 
L 850.0525 -144.93764 
L 850.0525 -310.956946 
L 850.0525 -310.956946 
L 846.023003 -307.535627 
L 841.993505 -304.154924 
L 837.964008 -300.814354 
L 833.93451 -297.513441 
L 829.905013 -294.251713 
L 825.875515 -291.028706 
L 821.846018 -287.84396 
L 817.81652 -284.697021 
L 813.787023 -281.587439 
L 809.757525 -278.514773 
L 805.728028 -275.478582 
L 801.69853 -272.478435 
L 797.669033 -269.513903 
L 793.639535 -266.584564 
L 789.610038 -263.689999 
L 785.58054 -260.829796 
L 781.551043 -258.003548 
L 777.521545 -255.210851 
L 773.492048 -252.451306 
L 769.46255 -249.72452 
L 765.433053 -247.030105 
L 761.403555 -244.367675 
L 757.374058 -241.736852 
L 753.34456 -239.13726 
L 749.315063 -236.568528 
L 745.285565 -234.03029 
L 741.256068 -231.522184 
L 737.22657 -229.043852 
L 733.197073 -226.594942 
L 729.167575 -224.175102 
L 725.138078 -221.783989 
L 721.10858 -219.421262 
L 717.079083 -217.086583 
L 713.049585 -214.779619 
L 709.020088 -212.500042 
L 704.99059 -210.247526 
L 700.961093 -208.02175 
L 696.931595 -205.822397 
L 692.902098 -203.649153 
L 688.872601 -201.501708 
L 684.843103 -199.379755 
L 680.813606 -197.282993 
L 676.784108 -195.211122 
L 672.754611 -193.163847 
L 668.725113 -191.140875 
L 664.695616 -189.141918 
L 660.666118 -187.166691 
L 656.636621 -185.214913 
L 652.607123 -183.286304 
L 648.577626 -181.380591 
L 644.548128 -179.497501 
L 640.518631 -177.636765 
L 636.489133 -175.798118 
L 632.459636 -173.981299 
L 628.430138 -172.186047 
L 624.400641 -170.412107 
L 620.371143 -168.659225 
L 616.341646 -166.927153 
L 612.312148 -165.215643 
L 608.282651 -163.52445 
L 604.253153 -161.853333 
L 600.223656 -160.202055 
L 596.194158 -158.570379 
L 592.164661 -156.958074 
L 588.135163 -155.364908 
L 584.105666 -153.790656 
L 580.076168 -152.235091 
L 576.046671 -150.697993 
L 572.017173 -149.179142 
L 567.987676 -147.678322 
L 563.958178 -146.195318 
L 559.928681 -144.72992 
L 555.899183 -143.281917 
L 551.869686 -141.851104 
L 547.840188 -140.437276 
L 543.810691 -139.040233 
L 539.781193 -137.659774 
L 535.751696 -136.295702 
L 531.722198 -134.947824 
L 527.692701 -133.615947 
L 523.663204 -132.29988 
L 519.633706 -130.999437 
L 515.604209 -129.714432 
L 511.574711 -128.444681 
L 507.545214 -127.190004 
L 503.515716 -125.950222 
L 499.486219 -124.725157 
L 495.456721 -123.514635 
L 491.427224 -122.318483 
L 487.397726 -121.136532 
L 483.368229 -119.968611 
L 479.338731 -118.814555 
L 475.309234 -117.674199 
L 471.279736 -116.547381 
L 467.250239 -115.433939 
L 463.220741 -114.333715 
L 459.191244 -113.246552 
L 455.161746 -112.172295 
L 451.132249 -111.110791 
L 447.102751 -110.061888 
L 443.073254 -109.025437 
L 439.043756 -108.00129 
L 435.014259 -106.9893 
L 430.984761 -105.989325 
L 426.955264 -105.00122 
L 422.925766 -104.024845 
L 418.896269 -103.060061 
L 414.866771 -102.10673 
L 410.837274 -101.164716 
L 406.807776 -100.233885 
L 402.778279 -99.314104 
L 398.748781 -98.405242 
L 394.719284 -97.507169 
L 390.689786 -96.619758 
L 386.660289 -95.742881 
L 382.630791 -94.876414 
L 378.601294 -94.020233 
L 374.571796 -93.174215 
L 370.542299 -92.338241 
L 366.512802 -91.512191 
L 362.483304 -90.695947 
L 358.453807 -89.889393 
L 354.424309 -89.092414 
L 350.394812 -88.304896 
L 346.365314 -87.526727 
L 342.335817 -86.757795 
L 338.306319 -85.997992 
L 334.276822 -85.247208 
L 330.247324 -84.505337 
L 326.217827 -83.772273 
L 322.188329 -83.047911 
L 318.158832 -82.332149 
L 314.129334 -81.624883 
L 310.099837 -80.926014 
L 306.070339 -80.235441 
L 302.040842 -79.553065 
L 298.011344 -78.878791 
L 293.981847 -78.212521 
L 289.952349 -77.55416 
L 285.922852 -76.903615 
L 281.893354 -76.260793 
L 277.863857 -75.625601 
L 273.834359 -74.99795 
L 269.804862 -74.377751 
L 265.775364 -73.764913 
L 261.745867 -73.159351 
L 257.716369 -72.560978 
L 253.686872 -71.969708 
L 249.657374 -71.385457 
L 245.627877 -70.808142 
L 241.598379 -70.23768 
L 237.568882 -69.67399 
L 233.539384 -69.116992 
L 229.509887 -68.566607 
L 225.480389 -68.022754 
L 221.450892 -67.485359 
L 217.421394 -66.954342 
L 213.391897 -66.42963 
L 209.362399 -65.911146 
L 205.332902 -65.398818 
L 201.303405 -64.892571 
L 197.273907 -64.392335 
L 193.24441 -63.898036 
L 189.214912 -63.409606 
L 185.185415 -62.926974 
L 181.155917 -62.450071 
L 177.12642 -61.97883 
L 173.096922 -61.513182 
L 169.067425 -61.053063 
L 165.037927 -60.598406 
L 161.00843 -60.149146 
L 156.978932 -59.70522 
L 152.949435 -59.266563 
L 148.919937 -58.833114 
L 144.89044 -58.40481 
L 140.860942 -57.981591 
L 136.831445 -57.563396 
L 132.801947 -57.150165 
L 128.77245 -56.74184 
L 124.742952 -56.338362 
L 120.713455 -55.939674 
L 116.683957 -55.545719 
L 112.65446 -55.156441 
L 108.624962 -54.771784 
L 104.595465 -54.391693 
L 100.565967 -54.016114 
L 96.53647 -53.644994 
L 92.506972 -53.27828 
L 88.477475 -52.915919 
L 84.447977 -52.557859 
L 80.41848 -52.204051 
L 76.388982 -51.854442 
L 72.359485 -51.508984 
L 68.329987 -51.167626 
L 64.30049 -50.830321 
L 60.270992 -50.49702 
L 56.241495 -50.167676 
L 52.211997 -49.842242 
L 48.1825 -49.52067 
z
" style="stroke: #d32f2f; stroke-opacity: 0.2"/>
    </defs>
    <g clip-path="url(#pd31cfd4667)">
     <use xlink:href="#mbfdb291c71" x="0" y="474.15944" style="fill: #d32f2f; fill-opacity: 0.2; stroke: #d32f2f; stroke-opacity: 0.2"/>
    </g>
   </g>
   <g id="FillBetweenPolyCollection_2"/>
   <g id="line2d_23">
    <path d="M 48.1825 424.63877 
L 80.41848 421.955389 
L 108.624962 419.387656 
L 136.831445 416.596044 
L 165.037927 413.561034 
L 189.214912 410.749834 
L 213.391897 407.72981 
L 237.568882 404.48545 
L 261.745867 401.000089 
L 285.922852 397.255825 
L 306.070339 393.923999 
L 326.217827 390.387167 
L 346.365314 386.632713 
L 366.512802 382.647249 
L 386.660289 378.416559 
L 406.807776 373.925555 
L 426.955264 369.15822 
L 443.073254 365.134003 
L 459.191244 360.912888 
L 475.309234 356.485241 
L 491.427224 351.840957 
L 507.545214 346.969436 
L 523.663204 341.85956 
L 539.781193 336.499667 
L 555.899183 330.877523 
L 572.017173 324.980298 
L 588.135163 318.794532 
L 604.253153 312.306107 
L 616.341646 307.232287 
L 628.430138 301.973393 
L 640.518631 296.522675 
L 652.607123 290.873136 
L 664.695616 285.017522 
L 676.784108 278.948318 
L 688.872601 272.657732 
L 700.961093 266.13769 
L 713.049585 259.379821 
L 725.138078 252.375451 
L 737.22657 245.115588 
L 749.315063 237.590912 
L 761.403555 229.791765 
L 773.492048 221.708134 
L 785.58054 213.329644 
L 797.669033 204.645537 
L 809.757525 195.644667 
L 821.846018 186.31548 
L 833.93451 176.645999 
L 846.023003 166.623813 
L 850.0525 163.202494 
L 850.0525 163.202494 
" clip-path="url(#pd31cfd4667)" style="fill: none; stroke: #2196f3; stroke-width: 3; stroke-linecap: round"/>
   </g>
   <g id="line2d_24">
    <path d="M 48.1825 424.63877 
L 850.0525 329.2218 
L 850.0525 329.2218 
" clip-path="url(#pd31cfd4667)" style="fill: none; stroke-dasharray: 9.25,4; stroke-dashoffset: 0; stroke: #d32f2f; stroke-width: 2.5"/>
   </g>
   <g id="line2d_25">
    <path d="M 48.1825 424.63877 
L 850.0525 138.38786 
L 850.0525 138.38786 
" clip-path="url(#pd31cfd4667)" style="fill: none; stroke-dasharray: 9.25,4; stroke-dashoffset: 0; stroke: #388e3c; stroke-width: 2.5"/>
   </g>
   <g id="patch_3">
    <path d="M 48.1825 438.951315 
L 48.1825 124.075315 
" style="fill: none"/>
   </g>
   <g id="patch_4">
    <path d="M 850.0525 438.951315 
L 850.0525 124.075315 
" style="fill: none"/>
   </g>
   <g id="patch_5">
    <path d="M 48.1825 438.951315 
L 850.0525 438.951315 
" style="fill: none"/>
   </g>
   <g id="patch_6">
    <path d="M 48.1825 124.075315 
L 850.0525 124.075315 
" style="fill: none"/>
   </g>
   <g id="patch_7">
    <path d="M 520.405914 37.155386 
Q 584.564768 171.682105 647.761057 304.190542 
" style="fill: none; stroke: #d32f2f; stroke-width: 2; stroke-linecap: round"/>
    <path d="M 647.852707 299.272046 
L 647.761057 304.190542 
L 643.88125 301.166124 
" style="fill: none; stroke: #d32f2f; stroke-width: 2; stroke-linecap: round"/>
   </g>
   <g id="text_14">
    <g id="patch_8">
     <path d="M 449.1175 34.850563 
L 573.685625 34.850563 
Q 579.185625 34.850563 579.185625 29.350563 
L 579.185625 7.151875 
Q 579.185625 1.651875 573.685625 1.651875 
L 449.1175 1.651875 
Q 443.6175 1.651875 443.6175 7.151875 
L 443.6175 29.350563 
Q 443.6175 34.850563 449.1175 34.850563 
z
" style="fill: #ffffff; opacity: 0.8; stroke: #000000; stroke-linejoin: miter"/>
    </g>
    <!-- Without active learning: -->
    <g style="fill: #d32f2f" transform="translate(449.1175 15.171562) scale(0.11 -0.11)">
     <defs>
      <path id="LiberationSans-Bold-57" d="M 4897 0 
L 3803 0 
L 3206 2547 
Q 3097 2997 3022 3488 
Q 2947 3078 2900 2864 
Q 2853 2650 2234 0 
L 1141 0 
L 6 4403 
L 941 4403 
L 1578 1559 
L 1722 872 
Q 1809 1306 1892 1701 
Q 1975 2097 2516 4403 
L 3547 4403 
L 4103 2059 
Q 4169 1797 4325 872 
L 4403 1234 
L 4569 1953 
L 5100 4403 
L 6034 4403 
L 4897 0 
z
" transform="scale(0.015625)"/>
      <path id="LiberationSans-Bold-63" d="M 1856 -63 
Q 1088 -63 669 395 
Q 250 853 250 1672 
Q 250 2509 672 2976 
Q 1094 3444 1869 3444 
Q 2466 3444 2856 3144 
Q 3247 2844 3347 2316 
L 2463 2272 
Q 2425 2531 2275 2686 
Q 2125 2841 1850 2841 
Q 1172 2841 1172 1706 
Q 1172 538 1863 538 
Q 2113 538 2281 695 
Q 2450 853 2491 1166 
L 3372 1125 
Q 3325 778 3123 506 
Q 2922 234 2594 85 
Q 2266 -63 1856 -63 
z
" transform="scale(0.015625)"/>
      <path id="LiberationSans-Bold-76" d="M 2284 0 
L 1234 0 
L 25 3381 
L 953 3381 
L 1544 1491 
Q 1591 1334 1766 709 
Q 1797 838 1894 1159 
Q 1991 1481 2613 3381 
L 3531 3381 
L 2284 0 
z
" transform="scale(0.015625)"/>
      <path id="LiberationSans-Bold-3a" d="M 616 2350 
L 616 3231 
L 1516 3231 
L 1516 2350 
L 616 2350 
z
M 616 0 
L 616 878 
L 1516 878 
L 1516 0 
L 616 0 
z
" transform="scale(0.015625)"/>
     </defs>
     <use xlink:href="#LiberationSans-Bold-57"/>
     <use xlink:href="#LiberationSans-Bold-69" transform="translate(93.509766 0)"/>
     <use xlink:href="#LiberationSans-Bold-74" transform="translate(121.292969 0)"/>
     <use xlink:href="#LiberationSans-Bold-68" transform="translate(154.59375 0)"/>
     <use xlink:href="#LiberationSans-Bold-6f" transform="translate(215.677734 0)"/>
     <use xlink:href="#LiberationSans-Bold-75" transform="translate(276.761719 0)"/>
     <use xlink:href="#LiberationSans-Bold-74" transform="translate(337.845703 0)"/>
     <use xlink:href="#LiberationSans-Bold-20" transform="translate(371.146484 0)"/>
     <use xlink:href="#LiberationSans-Bold-61" transform="translate(398.929688 0)"/>
     <use xlink:href="#LiberationSans-Bold-63" transform="translate(454.544922 0)"/>
     <use xlink:href="#LiberationSans-Bold-74" transform="translate(510.160156 0)"/>
     <use xlink:href="#LiberationSans-Bold-69" transform="translate(543.460938 0)"/>
     <use xlink:href="#LiberationSans-Bold-76" transform="translate(571.244141 0)"/>
     <use xlink:href="#LiberationSans-Bold-65" transform="translate(626.859375 0)"/>
     <use xlink:href="#LiberationSans-Bold-20" transform="translate(682.474609 0)"/>
     <use xlink:href="#LiberationSans-Bold-6c" transform="translate(710.257812 0)"/>
     <use xlink:href="#LiberationSans-Bold-65" transform="translate(738.041016 0)"/>
     <use xlink:href="#LiberationSans-Bold-61" transform="translate(793.65625 0)"/>
     <use xlink:href="#LiberationSans-Bold-72" transform="translate(849.271484 0)"/>
     <use xlink:href="#LiberationSans-Bold-6e" transform="translate(888.1875 0)"/>
     <use xlink:href="#LiberationSans-Bold-69" transform="translate(949.271484 0)"/>
     <use xlink:href="#LiberationSans-Bold-6e" transform="translate(977.054688 0)"/>
     <use xlink:href="#LiberationSans-Bold-67" transform="translate(1038.138672 0)"/>
     <use xlink:href="#LiberationSans-Bold-3a" transform="translate(1099.222656 0)"/>
    </g>
    <!-- G(t) → ∞ -->
    <g style="fill: #d32f2f" transform="translate(449.1175 27.068062) scale(0.11 -0.11)">
     <defs>
      <path id="LiberationSans-Bold-47" d="M 2519 659 
Q 2878 659 3215 764 
Q 3553 869 3738 1031 
L 3738 1641 
L 2663 1641 
L 2663 2322 
L 4581 2322 
L 4581 703 
Q 4231 344 3670 140 
Q 3109 -63 2494 -63 
Q 1419 -63 841 532 
Q 263 1128 263 2222 
Q 263 3309 844 3889 
Q 1425 4469 2516 4469 
Q 4066 4469 4488 3322 
L 3638 3066 
Q 3500 3400 3206 3572 
Q 2913 3744 2516 3744 
Q 1866 3744 1528 3350 
Q 1191 2956 1191 2222 
Q 1191 1475 1539 1067 
Q 1888 659 2519 659 
z
" transform="scale(0.015625)"/>
      <path id="LiberationSans-Bold-2192" d="M 4397 1197 
Q 4219 1406 4025 1813 
L 4250 1813 
Q 4647 1347 5094 1119 
L 5094 1006 
Q 4647 778 4250 313 
L 4025 313 
Q 4219 719 4397 928 
L 1306 928 
L 1306 1197 
L 4397 1197 
z
" transform="scale(0.015625)"/>
      <path id="LiberationSans-Bold-221e" d="M 4341 1822 
Q 4341 1338 4050 1006 
Q 3759 675 3331 675 
Q 2663 675 2281 1422 
Q 1872 706 1241 706 
Q 788 706 506 1026 
Q 225 1347 225 1866 
Q 225 2363 514 2688 
Q 803 3013 1241 3013 
Q 1563 3013 1820 2839 
Q 2078 2666 2281 2266 
Q 2678 2984 3294 2984 
Q 3769 2984 4055 2667 
Q 4341 2350 4341 1822 
z
M 3256 2444 
Q 2881 2444 2588 1828 
Q 2725 1534 2879 1375 
Q 3034 1216 3253 1216 
Q 3469 1216 3608 1387 
Q 3747 1559 3747 1828 
Q 3747 2103 3612 2273 
Q 3478 2444 3256 2444 
z
M 1972 1859 
Q 1806 2213 1665 2345 
Q 1525 2478 1338 2478 
Q 1116 2478 967 2304 
Q 819 2131 819 1859 
Q 819 1597 959 1423 
Q 1100 1250 1341 1250 
Q 1525 1250 1675 1398 
Q 1825 1547 1972 1859 
z
" transform="scale(0.015625)"/>
     </defs>
     <use xlink:href="#LiberationSans-Bold-47"/>
     <use xlink:href="#LiberationSans-Bold-28" transform="translate(77.783203 0)"/>
     <use xlink:href="#LiberationSans-Bold-74" transform="translate(111.083984 0)"/>
     <use xlink:href="#LiberationSans-Bold-29" transform="translate(144.384766 0)"/>
     <use xlink:href="#LiberationSans-Bold-20" transform="translate(177.685547 0)"/>
     <use xlink:href="#LiberationSans-Bold-2192" transform="translate(205.46875 0)"/>
     <use xlink:href="#LiberationSans-Bold-20" transform="translate(305.46875 0)"/>
     <use xlink:href="#LiberationSans-Bold-221e" transform="translate(333.251953 0)"/>
    </g>
   </g>
   <g id="text_15">
    <!-- Knowledge Divergence: Theorem 3.1 -->
    <g style="fill: #262626" transform="translate(326.59125 118.075315) scale(0.14 -0.14)">
     <defs>
      <path id="LiberationSans-Bold-44" d="M 4353 2234 
Q 4353 1553 4086 1045 
Q 3819 538 3330 269 
Q 2841 0 2209 0 
L 428 0 
L 428 4403 
L 2022 4403 
Q 3134 4403 3743 3842 
Q 4353 3281 4353 2234 
z
M 3425 2234 
Q 3425 2944 3056 3317 
Q 2688 3691 2003 3691 
L 1350 3691 
L 1350 713 
L 2131 713 
Q 2725 713 3075 1122 
Q 3425 1531 3425 2234 
z
" transform="scale(0.015625)"/>
      <path id="LiberationSans-Bold-33" d="M 3328 1222 
Q 3328 603 2922 265 
Q 2516 -72 1766 -72 
Q 1056 -72 637 254 
Q 219 581 147 1197 
L 1041 1275 
Q 1125 641 1763 641 
Q 2078 641 2253 797 
Q 2428 953 2428 1275 
Q 2428 1569 2215 1725 
Q 2003 1881 1584 1881 
L 1278 1881 
L 1278 2591 
L 1566 2591 
Q 1944 2591 2134 2745 
Q 2325 2900 2325 3188 
Q 2325 3459 2173 3614 
Q 2022 3769 1731 3769 
Q 1459 3769 1292 3619 
Q 1125 3469 1100 3194 
L 222 3256 
Q 291 3825 694 4147 
Q 1097 4469 1747 4469 
Q 2438 4469 2827 4158 
Q 3216 3847 3216 3297 
Q 3216 2884 2973 2618 
Q 2731 2353 2275 2266 
L 2275 2253 
Q 2781 2194 3054 1920 
Q 3328 1647 3328 1222 
z
" transform="scale(0.015625)"/>
      <path id="LiberationSans-Bold-2e" d="M 434 0 
L 434 953 
L 1338 953 
L 1338 0 
L 434 0 
z
" transform="scale(0.015625)"/>
      <path id="LiberationSans-Bold-31" d="M 403 0 
L 403 653 
L 1494 653 
L 1494 3656 
L 438 2997 
L 438 3688 
L 1541 4403 
L 2372 4403 
L 2372 653 
L 3381 653 
L 3381 0 
L 403 0 
z
" transform="scale(0.015625)"/>
     </defs>
     <use xlink:href="#LiberationSans-Bold-4b"/>
     <use xlink:href="#LiberationSans-Bold-6e" transform="translate(72.216797 0)"/>
     <use xlink:href="#LiberationSans-Bold-6f" transform="translate(133.300781 0)"/>
     <use xlink:href="#LiberationSans-Bold-77" transform="translate(194.384766 0)"/>
     <use xlink:href="#LiberationSans-Bold-6c" transform="translate(272.167969 0)"/>
     <use xlink:href="#LiberationSans-Bold-65" transform="translate(299.951172 0)"/>
     <use xlink:href="#LiberationSans-Bold-64" transform="translate(355.566406 0)"/>
     <use xlink:href="#LiberationSans-Bold-67" transform="translate(416.650391 0)"/>
     <use xlink:href="#LiberationSans-Bold-65" transform="translate(477.734375 0)"/>
     <use xlink:href="#LiberationSans-Bold-20" transform="translate(533.349609 0)"/>
     <use xlink:href="#LiberationSans-Bold-44" transform="translate(561.132812 0)"/>
     <use xlink:href="#LiberationSans-Bold-69" transform="translate(633.349609 0)"/>
     <use xlink:href="#LiberationSans-Bold-76" transform="translate(661.132812 0)"/>
     <use xlink:href="#LiberationSans-Bold-65" transform="translate(716.748047 0)"/>
     <use xlink:href="#LiberationSans-Bold-72" transform="translate(772.363281 0)"/>
     <use xlink:href="#LiberationSans-Bold-67" transform="translate(811.279297 0)"/>
     <use xlink:href="#LiberationSans-Bold-65" transform="translate(872.363281 0)"/>
     <use xlink:href="#LiberationSans-Bold-6e" transform="translate(927.978516 0)"/>
     <use xlink:href="#LiberationSans-Bold-63" transform="translate(989.0625 0)"/>
     <use xlink:href="#LiberationSans-Bold-65" transform="translate(1044.677734 0)"/>
     <use xlink:href="#LiberationSans-Bold-3a" transform="translate(1100.292969 0)"/>
     <use xlink:href="#LiberationSans-Bold-20" transform="translate(1133.59375 0)"/>
     <use xlink:href="#LiberationSans-Bold-54" transform="translate(1161.376953 0)"/>
     <use xlink:href="#LiberationSans-Bold-68" transform="translate(1222.460938 0)"/>
     <use xlink:href="#LiberationSans-Bold-65" transform="translate(1283.544922 0)"/>
     <use xlink:href="#LiberationSans-Bold-6f" transform="translate(1339.160156 0)"/>
     <use xlink:href="#LiberationSans-Bold-72" transform="translate(1400.244141 0)"/>
     <use xlink:href="#LiberationSans-Bold-65" transform="translate(1439.160156 0)"/>
     <use xlink:href="#LiberationSans-Bold-6d" transform="translate(1494.775391 0)"/>
     <use xlink:href="#LiberationSans-Bold-20" transform="translate(1583.691406 0)"/>
     <use xlink:href="#LiberationSans-Bold-33" transform="translate(1611.474609 0)"/>
     <use xlink:href="#LiberationSans-Bold-2e" transform="translate(1667.089844 0)"/>
     <use xlink:href="#LiberationSans-Bold-31" transform="translate(1694.873047 0)"/>
    </g>
   </g>
   <g id="legend_1">
    <g id="line2d_26">
     <path d="M 57.1825 136.82219 
L 67.1825 136.82219 
L 77.1825 136.82219 
" style="fill: none; stroke: #2196f3; stroke-width: 3; stroke-linecap: round"/>
    </g>
    <g id="text_16">
     <!-- Knowledge Required: K(t) -->
     <g style="fill: #262626" transform="translate(85.1825 140.32219) scale(0.1 -0.1)">
      <defs>
       <path id="LiberationSans-4b" d="M 3456 0 
L 1697 2125 
L 1122 1688 
L 1122 0 
L 525 0 
L 525 4403 
L 1122 4403 
L 1122 2197 
L 3244 4403 
L 3947 4403 
L 2072 2491 
L 4197 0 
L 3456 0 
z
" transform="scale(0.015625)"/>
       <path id="LiberationSans-6e" d="M 2578 0 
L 2578 2144 
Q 2578 2478 2512 2662 
Q 2447 2847 2303 2928 
Q 2159 3009 1881 3009 
Q 1475 3009 1240 2731 
Q 1006 2453 1006 1959 
L 1006 0 
L 444 0 
L 444 2659 
Q 444 3250 425 3381 
L 956 3381 
Q 959 3366 962 3297 
Q 966 3228 970 3139 
Q 975 3050 981 2803 
L 991 2803 
Q 1184 3153 1439 3298 
Q 1694 3444 2072 3444 
Q 2628 3444 2886 3167 
Q 3144 2891 3144 2253 
L 3144 0 
L 2578 0 
z
" transform="scale(0.015625)"/>
       <path id="LiberationSans-6f" d="M 3291 1694 
Q 3291 806 2900 371 
Q 2509 -63 1766 -63 
Q 1025 -63 647 389 
Q 269 841 269 1694 
Q 269 3444 1784 3444 
Q 2559 3444 2925 3017 
Q 3291 2591 3291 1694 
z
M 2700 1694 
Q 2700 2394 2492 2711 
Q 2284 3028 1794 3028 
Q 1300 3028 1079 2704 
Q 859 2381 859 1694 
Q 859 1025 1076 689 
Q 1294 353 1759 353 
Q 2266 353 2483 678 
Q 2700 1003 2700 1694 
z
" transform="scale(0.015625)"/>
       <path id="LiberationSans-77" d="M 3669 0 
L 3016 0 
L 2425 2391 
L 2313 2919 
Q 2284 2778 2225 2514 
Q 2166 2250 1588 0 
L 938 0 
L -9 3381 
L 547 3381 
L 1119 1084 
Q 1141 1009 1253 466 
L 1306 697 
L 2013 3381 
L 2616 3381 
L 3206 1059 
L 3350 466 
L 3447 900 
L 4088 3381 
L 4638 3381 
L 3669 0 
z
" transform="scale(0.015625)"/>
       <path id="LiberationSans-6c" d="M 431 0 
L 431 4638 
L 994 4638 
L 994 0 
L 431 0 
z
" transform="scale(0.015625)"/>
       <path id="LiberationSans-65" d="M 863 1572 
Q 863 991 1103 675 
Q 1344 359 1806 359 
Q 2172 359 2392 506 
Q 2613 653 2691 878 
L 3184 738 
Q 2881 -63 1806 -63 
Q 1056 -63 664 384 
Q 272 831 272 1713 
Q 272 2550 664 2997 
Q 1056 3444 1784 3444 
Q 3275 3444 3275 1647 
L 3275 1572 
L 863 1572 
z
M 2694 2003 
Q 2647 2538 2422 2783 
Q 2197 3028 1775 3028 
Q 1366 3028 1127 2754 
Q 888 2481 869 2003 
L 2694 2003 
z
" transform="scale(0.015625)"/>
       <path id="LiberationSans-64" d="M 2566 544 
Q 2409 219 2151 78 
Q 1894 -63 1513 -63 
Q 872 -63 570 368 
Q 269 800 269 1675 
Q 269 3444 1513 3444 
Q 1897 3444 2153 3303 
Q 2409 3163 2566 2856 
L 2572 2856 
L 2566 3234 
L 2566 4638 
L 3128 4638 
L 3128 697 
Q 3128 169 3147 0 
L 2609 0 
Q 2600 50 2589 231 
Q 2578 413 2578 544 
L 2566 544 
z
M 859 1694 
Q 859 984 1046 678 
Q 1234 372 1656 372 
Q 2134 372 2350 703 
Q 2566 1034 2566 1731 
Q 2566 2403 2350 2715 
Q 2134 3028 1663 3028 
Q 1238 3028 1048 2714 
Q 859 2400 859 1694 
z
" transform="scale(0.015625)"/>
       <path id="LiberationSans-67" d="M 1713 -1328 
Q 1159 -1328 831 -1111 
Q 503 -894 409 -494 
L 975 -413 
Q 1031 -647 1223 -773 
Q 1416 -900 1728 -900 
Q 2569 -900 2569 84 
L 2569 628 
L 2563 628 
Q 2403 303 2125 139 
Q 1847 -25 1475 -25 
Q 853 -25 561 387 
Q 269 800 269 1684 
Q 269 2581 583 3007 
Q 897 3434 1538 3434 
Q 1897 3434 2161 3270 
Q 2425 3106 2569 2803 
L 2575 2803 
Q 2575 2897 2587 3128 
Q 2600 3359 2613 3381 
L 3147 3381 
Q 3128 3213 3128 2681 
L 3128 97 
Q 3128 -1328 1713 -1328 
z
M 2569 1691 
Q 2569 2103 2456 2401 
Q 2344 2700 2139 2858 
Q 1934 3016 1675 3016 
Q 1244 3016 1047 2703 
Q 850 2391 850 1691 
Q 850 997 1034 694 
Q 1219 391 1666 391 
Q 1931 391 2137 547 
Q 2344 703 2456 995 
Q 2569 1288 2569 1691 
z
" transform="scale(0.015625)"/>
       <path id="LiberationSans-20" transform="scale(0.015625)"/>
       <path id="LiberationSans-52" d="M 3638 0 
L 2494 1828 
L 1122 1828 
L 1122 0 
L 525 0 
L 525 4403 
L 2597 4403 
Q 3341 4403 3745 4070 
Q 4150 3738 4150 3144 
Q 4150 2653 3864 2318 
Q 3578 1984 3075 1897 
L 4325 0 
L 3638 0 
z
M 3550 3138 
Q 3550 3522 3289 3723 
Q 3028 3925 2538 3925 
L 1122 3925 
L 1122 2300 
L 2563 2300 
Q 3034 2300 3292 2520 
Q 3550 2741 3550 3138 
z
" transform="scale(0.015625)"/>
       <path id="LiberationSans-71" d="M 1513 -63 
Q 869 -63 569 371 
Q 269 806 269 1675 
Q 269 3444 1513 3444 
Q 1897 3444 2147 3308 
Q 2397 3172 2566 2856 
L 2572 2856 
Q 2572 2950 2584 3179 
Q 2597 3409 2609 3425 
L 3150 3425 
Q 3128 3241 3128 2503 
L 3128 -1328 
L 2566 -1328 
L 2566 44 
L 2578 556 
L 2572 556 
Q 2403 222 2156 79 
Q 1909 -63 1513 -63 
z
M 2566 1731 
Q 2566 2391 2350 2709 
Q 2134 3028 1663 3028 
Q 1234 3028 1046 2709 
Q 859 2391 859 1694 
Q 859 984 1048 678 
Q 1238 372 1656 372 
Q 2134 372 2350 712 
Q 2566 1053 2566 1731 
z
" transform="scale(0.015625)"/>
       <path id="LiberationSans-75" d="M 981 3381 
L 981 1238 
Q 981 903 1047 718 
Q 1113 534 1256 453 
Q 1400 372 1678 372 
Q 2084 372 2318 650 
Q 2553 928 2553 1422 
L 2553 3381 
L 3116 3381 
L 3116 722 
Q 3116 131 3134 0 
L 2603 0 
Q 2600 16 2597 84 
Q 2594 153 2589 242 
Q 2584 331 2578 578 
L 2569 578 
Q 2375 228 2120 82 
Q 1866 -63 1488 -63 
Q 931 -63 673 214 
Q 416 491 416 1128 
L 416 3381 
L 981 3381 
z
" transform="scale(0.015625)"/>
       <path id="LiberationSans-69" d="M 428 4100 
L 428 4638 
L 991 4638 
L 991 4100 
L 428 4100 
z
M 428 0 
L 428 3381 
L 991 3381 
L 991 0 
L 428 0 
z
" transform="scale(0.015625)"/>
       <path id="LiberationSans-72" d="M 444 0 
L 444 2594 
Q 444 2950 425 3381 
L 956 3381 
Q 981 2806 981 2691 
L 994 2691 
Q 1128 3125 1303 3284 
Q 1478 3444 1797 3444 
Q 1909 3444 2025 3413 
L 2025 2897 
Q 1913 2928 1725 2928 
Q 1375 2928 1190 2626 
Q 1006 2325 1006 1763 
L 1006 0 
L 444 0 
z
" transform="scale(0.015625)"/>
       <path id="LiberationSans-3a" d="M 584 2734 
L 584 3381 
L 1194 3381 
L 1194 2734 
L 584 2734 
z
M 584 0 
L 584 647 
L 1194 647 
L 1194 0 
L 584 0 
z
" transform="scale(0.015625)"/>
       <path id="LiberationSans-28" d="M 397 1663 
Q 397 2566 680 3284 
Q 963 4003 1550 4638 
L 2094 4638 
Q 1509 3988 1236 3256 
Q 963 2525 963 1656 
Q 963 791 1233 62 
Q 1503 -666 2094 -1325 
L 1550 -1325 
Q 959 -688 678 32 
Q 397 753 397 1650 
L 397 1663 
z
" transform="scale(0.015625)"/>
       <path id="LiberationSans-74" d="M 1731 25 
Q 1453 -50 1163 -50 
Q 488 -50 488 716 
L 488 2972 
L 97 2972 
L 97 3381 
L 509 3381 
L 675 4138 
L 1050 4138 
L 1050 3381 
L 1675 3381 
L 1675 2972 
L 1050 2972 
L 1050 838 
Q 1050 594 1129 495 
Q 1209 397 1406 397 
Q 1519 397 1731 441 
L 1731 25 
z
" transform="scale(0.015625)"/>
       <path id="LiberationSans-29" d="M 1734 1650 
Q 1734 747 1451 28 
Q 1169 -691 581 -1325 
L 38 -1325 
Q 625 -669 897 57 
Q 1169 784 1169 1656 
Q 1169 2528 895 3256 
Q 622 3984 38 4638 
L 581 4638 
Q 1172 4000 1453 3279 
Q 1734 2559 1734 1663 
L 1734 1650 
z
" transform="scale(0.015625)"/>
      </defs>
      <use xlink:href="#LiberationSans-4b"/>
      <use xlink:href="#LiberationSans-6e" transform="translate(66.699219 0)"/>
      <use xlink:href="#LiberationSans-6f" transform="translate(122.314453 0)"/>
      <use xlink:href="#LiberationSans-77" transform="translate(177.929688 0)"/>
      <use xlink:href="#LiberationSans-6c" transform="translate(250.146484 0)"/>
      <use xlink:href="#LiberationSans-65" transform="translate(272.363281 0)"/>
      <use xlink:href="#LiberationSans-64" transform="translate(327.978516 0)"/>
      <use xlink:href="#LiberationSans-67" transform="translate(383.59375 0)"/>
      <use xlink:href="#LiberationSans-65" transform="translate(439.208984 0)"/>
      <use xlink:href="#LiberationSans-20" transform="translate(494.824219 0)"/>
      <use xlink:href="#LiberationSans-52" transform="translate(522.607422 0)"/>
      <use xlink:href="#LiberationSans-65" transform="translate(594.824219 0)"/>
      <use xlink:href="#LiberationSans-71" transform="translate(650.439453 0)"/>
      <use xlink:href="#LiberationSans-75" transform="translate(706.054688 0)"/>
      <use xlink:href="#LiberationSans-69" transform="translate(761.669922 0)"/>
      <use xlink:href="#LiberationSans-72" transform="translate(783.886719 0)"/>
      <use xlink:href="#LiberationSans-65" transform="translate(817.1875 0)"/>
      <use xlink:href="#LiberationSans-64" transform="translate(872.802734 0)"/>
      <use xlink:href="#LiberationSans-3a" transform="translate(928.417969 0)"/>
      <use xlink:href="#LiberationSans-20" transform="translate(956.201172 0)"/>
      <use xlink:href="#LiberationSans-4b" transform="translate(983.984375 0)"/>
      <use xlink:href="#LiberationSans-28" transform="translate(1050.683594 0)"/>
      <use xlink:href="#LiberationSans-74" transform="translate(1083.984375 0)"/>
      <use xlink:href="#LiberationSans-29" transform="translate(1111.767578 0)"/>
     </g>
    </g>
    <g id="line2d_27">
     <path d="M 57.1825 151.144065 
L 67.1825 151.144065 
L 77.1825 151.144065 
" style="fill: none; stroke-dasharray: 9.25,4; stroke-dashoffset: 0; stroke: #d32f2f; stroke-width: 2.5"/>
    </g>
    <g id="text_17">
     <!-- Human Knowledge (passive): H_passive(t) -->
     <g style="fill: #262626" transform="translate(85.1825 154.644065) scale(0.1 -0.1)">
      <defs>
       <path id="LiberationSans-48" d="M 3503 0 
L 3503 2041 
L 1122 2041 
L 1122 0 
L 525 0 
L 525 4403 
L 1122 4403 
L 1122 2541 
L 3503 2541 
L 3503 4403 
L 4100 4403 
L 4100 0 
L 3503 0 
z
" transform="scale(0.015625)"/>
       <path id="LiberationSans-6d" d="M 2400 0 
L 2400 2144 
Q 2400 2634 2265 2821 
Q 2131 3009 1781 3009 
Q 1422 3009 1212 2734 
Q 1003 2459 1003 1959 
L 1003 0 
L 444 0 
L 444 2659 
Q 444 3250 425 3381 
L 956 3381 
Q 959 3366 962 3297 
Q 966 3228 970 3139 
Q 975 3050 981 2803 
L 991 2803 
Q 1172 3163 1406 3303 
Q 1641 3444 1978 3444 
Q 2363 3444 2586 3291 
Q 2809 3138 2897 2803 
L 2906 2803 
Q 3081 3144 3329 3294 
Q 3578 3444 3931 3444 
Q 4444 3444 4676 3166 
Q 4909 2888 4909 2253 
L 4909 0 
L 4353 0 
L 4353 2144 
Q 4353 2634 4218 2821 
Q 4084 3009 3734 3009 
Q 3366 3009 3161 2736 
Q 2956 2463 2956 1959 
L 2956 0 
L 2400 0 
z
" transform="scale(0.015625)"/>
       <path id="LiberationSans-61" d="M 1294 -63 
Q 784 -63 528 206 
Q 272 475 272 944 
Q 272 1469 617 1750 
Q 963 2031 1731 2050 
L 2491 2063 
L 2491 2247 
Q 2491 2659 2316 2837 
Q 2141 3016 1766 3016 
Q 1388 3016 1216 2887 
Q 1044 2759 1009 2478 
L 422 2531 
Q 566 3444 1778 3444 
Q 2416 3444 2737 3151 
Q 3059 2859 3059 2306 
L 3059 850 
Q 3059 600 3125 473 
Q 3191 347 3375 347 
Q 3456 347 3559 369 
L 3559 19 
Q 3347 -31 3125 -31 
Q 2813 -31 2670 133 
Q 2528 297 2509 647 
L 2491 647 
Q 2275 259 1989 98 
Q 1703 -63 1294 -63 
z
M 1422 359 
Q 1731 359 1972 500 
Q 2213 641 2352 886 
Q 2491 1131 2491 1391 
L 2491 1669 
L 1875 1656 
Q 1478 1650 1273 1575 
Q 1069 1500 959 1344 
Q 850 1188 850 934 
Q 850 659 998 509 
Q 1147 359 1422 359 
z
" transform="scale(0.015625)"/>
       <path id="LiberationSans-70" d="M 3291 1706 
Q 3291 -63 2047 -63 
Q 1266 -63 997 525 
L 981 525 
Q 994 500 994 -6 
L 994 -1328 
L 431 -1328 
L 431 2691 
Q 431 3213 413 3381 
L 956 3381 
Q 959 3369 965 3292 
Q 972 3216 980 3056 
Q 988 2897 988 2838 
L 1000 2838 
Q 1150 3150 1397 3295 
Q 1644 3441 2047 3441 
Q 2672 3441 2981 3022 
Q 3291 2603 3291 1706 
z
M 2700 1694 
Q 2700 2400 2509 2703 
Q 2319 3006 1903 3006 
Q 1569 3006 1380 2865 
Q 1191 2725 1092 2426 
Q 994 2128 994 1650 
Q 994 984 1206 668 
Q 1419 353 1897 353 
Q 2316 353 2508 661 
Q 2700 969 2700 1694 
z
" transform="scale(0.015625)"/>
       <path id="LiberationSans-73" d="M 2969 934 
Q 2969 456 2608 196 
Q 2247 -63 1597 -63 
Q 966 -63 623 145 
Q 281 353 178 794 
L 675 891 
Q 747 619 972 492 
Q 1197 366 1597 366 
Q 2025 366 2223 497 
Q 2422 628 2422 891 
Q 2422 1091 2284 1216 
Q 2147 1341 1841 1422 
L 1438 1528 
Q 953 1653 748 1773 
Q 544 1894 428 2066 
Q 313 2238 313 2488 
Q 313 2950 642 3192 
Q 972 3434 1603 3434 
Q 2163 3434 2492 3237 
Q 2822 3041 2909 2606 
L 2403 2544 
Q 2356 2769 2151 2889 
Q 1947 3009 1603 3009 
Q 1222 3009 1040 2893 
Q 859 2778 859 2544 
Q 859 2400 934 2306 
Q 1009 2213 1156 2147 
Q 1303 2081 1775 1966 
Q 2222 1853 2419 1758 
Q 2616 1663 2730 1547 
Q 2844 1431 2906 1279 
Q 2969 1128 2969 934 
z
" transform="scale(0.015625)"/>
       <path id="LiberationSans-76" d="M 1916 0 
L 1250 0 
L 22 3381 
L 622 3381 
L 1366 1181 
Q 1406 1056 1581 441 
L 1691 806 
L 1813 1175 
L 2581 3381 
L 3178 3381 
L 1916 0 
z
" transform="scale(0.015625)"/>
       <path id="LiberationSans-5f" d="M -97 -1272 
L -97 -866 
L 3631 -866 
L 3631 -1272 
L -97 -1272 
z
" transform="scale(0.015625)"/>
      </defs>
      <use xlink:href="#LiberationSans-48"/>
      <use xlink:href="#LiberationSans-75" transform="translate(72.216797 0)"/>
      <use xlink:href="#LiberationSans-6d" transform="translate(127.832031 0)"/>
      <use xlink:href="#LiberationSans-61" transform="translate(211.132812 0)"/>
      <use xlink:href="#LiberationSans-6e" transform="translate(266.748047 0)"/>
      <use xlink:href="#LiberationSans-20" transform="translate(322.363281 0)"/>
      <use xlink:href="#LiberationSans-4b" transform="translate(350.146484 0)"/>
      <use xlink:href="#LiberationSans-6e" transform="translate(416.845703 0)"/>
      <use xlink:href="#LiberationSans-6f" transform="translate(472.460938 0)"/>
      <use xlink:href="#LiberationSans-77" transform="translate(528.076172 0)"/>
      <use xlink:href="#LiberationSans-6c" transform="translate(600.292969 0)"/>
      <use xlink:href="#LiberationSans-65" transform="translate(622.509766 0)"/>
      <use xlink:href="#LiberationSans-64" transform="translate(678.125 0)"/>
      <use xlink:href="#LiberationSans-67" transform="translate(733.740234 0)"/>
      <use xlink:href="#LiberationSans-65" transform="translate(789.355469 0)"/>
      <use xlink:href="#LiberationSans-20" transform="translate(844.970703 0)"/>
      <use xlink:href="#LiberationSans-28" transform="translate(872.753906 0)"/>
      <use xlink:href="#LiberationSans-70" transform="translate(906.054688 0)"/>
      <use xlink:href="#LiberationSans-61" transform="translate(961.669922 0)"/>
      <use xlink:href="#LiberationSans-73" transform="translate(1017.285156 0)"/>
      <use xlink:href="#LiberationSans-73" transform="translate(1067.285156 0)"/>
      <use xlink:href="#LiberationSans-69" transform="translate(1117.285156 0)"/>
      <use xlink:href="#LiberationSans-76" transform="translate(1139.501953 0)"/>
      <use xlink:href="#LiberationSans-65" transform="translate(1189.501953 0)"/>
      <use xlink:href="#LiberationSans-29" transform="translate(1245.117188 0)"/>
      <use xlink:href="#LiberationSans-3a" transform="translate(1278.417969 0)"/>
      <use xlink:href="#LiberationSans-20" transform="translate(1306.201172 0)"/>
      <use xlink:href="#LiberationSans-48" transform="translate(1333.984375 0)"/>
      <use xlink:href="#LiberationSans-5f" transform="translate(1406.201172 0)"/>
      <use xlink:href="#LiberationSans-70" transform="translate(1461.816406 0)"/>
      <use xlink:href="#LiberationSans-61" transform="translate(1517.431641 0)"/>
      <use xlink:href="#LiberationSans-73" transform="translate(1573.046875 0)"/>
      <use xlink:href="#LiberationSans-73" transform="translate(1623.046875 0)"/>
      <use xlink:href="#LiberationSans-69" transform="translate(1673.046875 0)"/>
      <use xlink:href="#LiberationSans-76" transform="translate(1695.263672 0)"/>
      <use xlink:href="#LiberationSans-65" transform="translate(1745.263672 0)"/>
      <use xlink:href="#LiberationSans-28" transform="translate(1800.878906 0)"/>
      <use xlink:href="#LiberationSans-74" transform="translate(1834.179688 0)"/>
      <use xlink:href="#LiberationSans-29" transform="translate(1861.962891 0)"/>
     </g>
    </g>
    <g id="line2d_28">
     <path d="M 57.1825 165.46594 
L 67.1825 165.46594 
L 77.1825 165.46594 
" style="fill: none; stroke-dasharray: 9.25,4; stroke-dashoffset: 0; stroke: #388e3c; stroke-width: 2.5"/>
    </g>
    <g id="text_18">
     <!-- Human Knowledge (active learning): H_active(t) -->
     <g style="fill: #262626" transform="translate(85.1825 168.96594) scale(0.1 -0.1)">
      <defs>
       <path id="LiberationSans-63" d="M 859 1706 
Q 859 1031 1071 706 
Q 1284 381 1713 381 
Q 2013 381 2214 543 
Q 2416 706 2463 1044 
L 3031 1006 
Q 2966 519 2616 228 
Q 2266 -63 1728 -63 
Q 1019 -63 645 385 
Q 272 834 272 1694 
Q 272 2547 647 2995 
Q 1022 3444 1722 3444 
Q 2241 3444 2583 3175 
Q 2925 2906 3013 2434 
L 2434 2391 
Q 2391 2672 2212 2837 
Q 2034 3003 1706 3003 
Q 1259 3003 1059 2706 
Q 859 2409 859 1706 
z
" transform="scale(0.015625)"/>
      </defs>
      <use xlink:href="#LiberationSans-48"/>
      <use xlink:href="#LiberationSans-75" transform="translate(72.216797 0)"/>
      <use xlink:href="#LiberationSans-6d" transform="translate(127.832031 0)"/>
      <use xlink:href="#LiberationSans-61" transform="translate(211.132812 0)"/>
      <use xlink:href="#LiberationSans-6e" transform="translate(266.748047 0)"/>
      <use xlink:href="#LiberationSans-20" transform="translate(322.363281 0)"/>
      <use xlink:href="#LiberationSans-4b" transform="translate(350.146484 0)"/>
      <use xlink:href="#LiberationSans-6e" transform="translate(416.845703 0)"/>
      <use xlink:href="#LiberationSans-6f" transform="translate(472.460938 0)"/>
      <use xlink:href="#LiberationSans-77" transform="translate(528.076172 0)"/>
      <use xlink:href="#LiberationSans-6c" transform="translate(600.292969 0)"/>
      <use xlink:href="#LiberationSans-65" transform="translate(622.509766 0)"/>
      <use xlink:href="#LiberationSans-64" transform="translate(678.125 0)"/>
      <use xlink:href="#LiberationSans-67" transform="translate(733.740234 0)"/>
      <use xlink:href="#LiberationSans-65" transform="translate(789.355469 0)"/>
      <use xlink:href="#LiberationSans-20" transform="translate(844.970703 0)"/>
      <use xlink:href="#LiberationSans-28" transform="translate(872.753906 0)"/>
      <use xlink:href="#LiberationSans-61" transform="translate(906.054688 0)"/>
      <use xlink:href="#LiberationSans-63" transform="translate(961.669922 0)"/>
      <use xlink:href="#LiberationSans-74" transform="translate(1011.669922 0)"/>
      <use xlink:href="#LiberationSans-69" transform="translate(1039.453125 0)"/>
      <use xlink:href="#LiberationSans-76" transform="translate(1061.669922 0)"/>
      <use xlink:href="#LiberationSans-65" transform="translate(1111.669922 0)"/>
      <use xlink:href="#LiberationSans-20" transform="translate(1167.285156 0)"/>
      <use xlink:href="#LiberationSans-6c" transform="translate(1195.068359 0)"/>
      <use xlink:href="#LiberationSans-65" transform="translate(1217.285156 0)"/>
      <use xlink:href="#LiberationSans-61" transform="translate(1272.900391 0)"/>
      <use xlink:href="#LiberationSans-72" transform="translate(1328.515625 0)"/>
      <use xlink:href="#LiberationSans-6e" transform="translate(1361.816406 0)"/>
      <use xlink:href="#LiberationSans-69" transform="translate(1417.431641 0)"/>
      <use xlink:href="#LiberationSans-6e" transform="translate(1439.648438 0)"/>
      <use xlink:href="#LiberationSans-67" transform="translate(1495.263672 0)"/>
      <use xlink:href="#LiberationSans-29" transform="translate(1550.878906 0)"/>
      <use xlink:href="#LiberationSans-3a" transform="translate(1584.179688 0)"/>
      <use xlink:href="#LiberationSans-20" transform="translate(1611.962891 0)"/>
      <use xlink:href="#LiberationSans-48" transform="translate(1639.746094 0)"/>
      <use xlink:href="#LiberationSans-5f" transform="translate(1711.962891 0)"/>
      <use xlink:href="#LiberationSans-61" transform="translate(1767.578125 0)"/>
      <use xlink:href="#LiberationSans-63" transform="translate(1823.193359 0)"/>
      <use xlink:href="#LiberationSans-74" transform="translate(1873.193359 0)"/>
      <use xlink:href="#LiberationSans-69" transform="translate(1900.976562 0)"/>
      <use xlink:href="#LiberationSans-76" transform="translate(1923.193359 0)"/>
      <use xlink:href="#LiberationSans-65" transform="translate(1973.193359 0)"/>
      <use xlink:href="#LiberationSans-28" transform="translate(2028.808594 0)"/>
      <use xlink:href="#LiberationSans-74" transform="translate(2062.109375 0)"/>
      <use xlink:href="#LiberationSans-29" transform="translate(2089.892578 0)"/>
     </g>
    </g>
    <g id="patch_9">
     <path d="M 57.1825 183.287815 
L 77.1825 183.287815 
L 77.1825 176.287815 
L 57.1825 176.287815 
z
" style="fill: #d32f2f; fill-opacity: 0.2; stroke: #d32f2f; stroke-opacity: 0.2; stroke-linejoin: miter"/>
    </g>
    <g id="text_19">
     <!-- Gap (passive) → ∞ -->
     <g style="fill: #262626" transform="translate(85.1825 183.287815) scale(0.1 -0.1)">
      <defs>
       <path id="LiberationSans-47" d="M 322 2222 
Q 322 3294 897 3881 
Q 1472 4469 2513 4469 
Q 3244 4469 3700 4222 
Q 4156 3975 4403 3431 
L 3834 3263 
Q 3647 3638 3317 3809 
Q 2988 3981 2497 3981 
Q 1734 3981 1331 3520 
Q 928 3059 928 2222 
Q 928 1388 1356 905 
Q 1784 422 2541 422 
Q 2972 422 3345 553 
Q 3719 684 3950 909 
L 3950 1703 
L 2634 1703 
L 2634 2203 
L 4500 2203 
L 4500 684 
Q 4150 328 3642 132 
Q 3134 -63 2541 -63 
Q 1850 -63 1350 212 
Q 850 488 586 1005 
Q 322 1522 322 2222 
z
" transform="scale(0.015625)"/>
       <path id="LiberationSans-2192" d="M 4397 1197 
Q 4219 1406 4025 1813 
L 4250 1813 
Q 4647 1347 5094 1119 
L 5094 1006 
Q 4647 778 4250 313 
L 4025 313 
Q 4219 719 4397 928 
L 1306 928 
L 1306 1197 
L 4397 1197 
z
" transform="scale(0.015625)"/>
       <path id="LiberationSans-221e" d="M 4291 1844 
Q 4291 1325 4012 979 
Q 3734 634 3319 634 
Q 2684 634 2272 1516 
Q 2059 1100 1792 876 
Q 1525 653 1250 653 
Q 816 653 544 983 
Q 272 1313 272 1863 
Q 272 2397 548 2734 
Q 825 3072 1250 3072 
Q 1878 3072 2278 2188 
Q 2481 2594 2751 2823 
Q 3022 3053 3325 3053 
Q 3763 3053 4027 2718 
Q 4291 2384 4291 1844 
z
M 3250 2644 
Q 3031 2644 2845 2447 
Q 2659 2250 2484 1844 
Q 2644 1444 2830 1244 
Q 3016 1044 3256 1044 
Q 3516 1044 3686 1270 
Q 3856 1497 3856 1850 
Q 3856 2184 3686 2414 
Q 3516 2644 3250 2644 
z
M 2075 1863 
Q 1916 2263 1730 2463 
Q 1544 2663 1300 2663 
Q 1038 2663 873 2433 
Q 709 2203 709 1856 
Q 709 1506 871 1284 
Q 1034 1063 1306 1063 
Q 1525 1063 1712 1259 
Q 1900 1456 2075 1863 
z
" transform="scale(0.015625)"/>
      </defs>
      <use xlink:href="#LiberationSans-47"/>
      <use xlink:href="#LiberationSans-61" transform="translate(77.783203 0)"/>
      <use xlink:href="#LiberationSans-70" transform="translate(133.398438 0)"/>
      <use xlink:href="#LiberationSans-20" transform="translate(189.013672 0)"/>
      <use xlink:href="#LiberationSans-28" transform="translate(216.796875 0)"/>
      <use xlink:href="#LiberationSans-70" transform="translate(250.097656 0)"/>
      <use xlink:href="#LiberationSans-61" transform="translate(305.712891 0)"/>
      <use xlink:href="#LiberationSans-73" transform="translate(361.328125 0)"/>
      <use xlink:href="#LiberationSans-73" transform="translate(411.328125 0)"/>
      <use xlink:href="#LiberationSans-69" transform="translate(461.328125 0)"/>
      <use xlink:href="#LiberationSans-76" transform="translate(483.544922 0)"/>
      <use xlink:href="#LiberationSans-65" transform="translate(533.544922 0)"/>
      <use xlink:href="#LiberationSans-29" transform="translate(589.160156 0)"/>
      <use xlink:href="#LiberationSans-20" transform="translate(622.460938 0)"/>
      <use xlink:href="#LiberationSans-2192" transform="translate(650.244141 0)"/>
      <use xlink:href="#LiberationSans-20" transform="translate(750.244141 0)"/>
      <use xlink:href="#LiberationSans-221e" transform="translate(778.027344 0)"/>
     </g>
    </g>
    <g id="patch_10">
     <path d="M 57.1825 197.60969 
L 77.1825 197.60969 
L 77.1825 190.60969 
L 57.1825 190.60969 
z
" style="fill: #f57c00; fill-opacity: 0.15; stroke: #f57c00; stroke-opacity: 0.15; stroke-linejoin: miter"/>
    </g>
    <g id="text_20">
     <!-- Gap (active) → bounded -->
     <g style="fill: #262626" transform="translate(85.1825 197.60969) scale(0.1 -0.1)">
      <defs>
       <path id="LiberationSans-62" d="M 3291 1706 
Q 3291 -63 2047 -63 
Q 1663 -63 1408 76 
Q 1153 216 994 525 
L 988 525 
Q 988 428 975 229 
Q 963 31 956 0 
L 413 0 
Q 431 169 431 697 
L 431 4638 
L 994 4638 
L 994 3316 
Q 994 3113 981 2838 
L 994 2838 
Q 1150 3163 1408 3303 
Q 1666 3444 2047 3444 
Q 2688 3444 2989 3012 
Q 3291 2581 3291 1706 
z
M 2700 1688 
Q 2700 2397 2512 2703 
Q 2325 3009 1903 3009 
Q 1428 3009 1211 2684 
Q 994 2359 994 1653 
Q 994 988 1206 670 
Q 1419 353 1897 353 
Q 2322 353 2511 667 
Q 2700 981 2700 1688 
z
" transform="scale(0.015625)"/>
      </defs>
      <use xlink:href="#LiberationSans-47"/>
      <use xlink:href="#LiberationSans-61" transform="translate(77.783203 0)"/>
      <use xlink:href="#LiberationSans-70" transform="translate(133.398438 0)"/>
      <use xlink:href="#LiberationSans-20" transform="translate(189.013672 0)"/>
      <use xlink:href="#LiberationSans-28" transform="translate(216.796875 0)"/>
      <use xlink:href="#LiberationSans-61" transform="translate(250.097656 0)"/>
      <use xlink:href="#LiberationSans-63" transform="translate(305.712891 0)"/>
      <use xlink:href="#LiberationSans-74" transform="translate(355.712891 0)"/>
      <use xlink:href="#LiberationSans-69" transform="translate(383.496094 0)"/>
      <use xlink:href="#LiberationSans-76" transform="translate(405.712891 0)"/>
      <use xlink:href="#LiberationSans-65" transform="translate(455.712891 0)"/>
      <use xlink:href="#LiberationSans-29" transform="translate(511.328125 0)"/>
      <use xlink:href="#LiberationSans-20" transform="translate(544.628906 0)"/>
      <use xlink:href="#LiberationSans-2192" transform="translate(572.412109 0)"/>
      <use xlink:href="#LiberationSans-20" transform="translate(672.412109 0)"/>
      <use xlink:href="#LiberationSans-62" transform="translate(700.195312 0)"/>
      <use xlink:href="#LiberationSans-6f" transform="translate(755.810547 0)"/>
      <use xlink:href="#LiberationSans-75" transform="translate(811.425781 0)"/>
      <use xlink:href="#LiberationSans-6e" transform="translate(867.041016 0)"/>
      <use xlink:href="#LiberationSans-64" transform="translate(922.65625 0)"/>
      <use xlink:href="#LiberationSans-65" transform="translate(978.271484 0)"/>
      <use xlink:href="#LiberationSans-64" transform="translate(1033.886719 0)"/>
     </g>
    </g>
   </g>
  </g>
 </g>
 <defs>
  <clipPath id="pd31cfd4667">
   <rect x="48.1825" y="124.075315" width="801.87" height="314.876"/>
  </clipPath>
 </defs>
</svg>
