<?xml version="1.0" encoding="utf-8" standalone="no"?>
<!DOCTYPE svg PUBLIC "-//W3C//DTD SVG 1.1//EN"
  "http://www.w3.org/Graphics/SVG/1.1/DTD/svg11.dtd">
<svg xmlns:xlink="http://www.w3.org/1999/xlink" width="784.304723pt" height="497.21375pt" viewBox="0 0 784.304723 497.21375" xmlns="http://www.w3.org/2000/svg" version="1.1">
 <metadata>
  <rdf:RDF xmlns:dc="http://purl.org/dc/elements/1.1/" xmlns:cc="http://creativecommons.org/ns#" xmlns:rdf="http://www.w3.org/1999/02/22-rdf-syntax-ns#">
   <cc:Work>
    <dc:type rdf:resource="http://purl.org/dc/dcmitype/StillImage"/>
    <dc:date>2025-11-16T17:04:54.498518</dc:date>
    <dc:format>image/svg+xml</dc:format>
    <dc:creator>
     <cc:Agent>
      <dc:title>Matplotlib v3.10.7, https://matplotlib.org/</dc:title>
     </cc:Agent>
    </dc:creator>
   </cc:Work>
  </rdf:RDF>
 </metadata>
 <defs>
  <style type="text/css">*{stroke-linejoin: round; stroke-linecap: butt}</style>
 </defs>
 <g id="figure_1">
  <g id="patch_1">
   <path d="M 0 497.21375 
L 784.304723 497.21375 
L 784.304723 0 
L 0 0 
z
" style="fill: #ffffff"/>
  </g>
  <g id="axes_1">
   <g id="patch_2">
    <path d="M 45.38625 462.005625 
L 777.104723 462.005625 
L 777.104723 23.345625 
L 45.38625 23.345625 
z
" style="fill: #eaeaf2"/>
   </g>
   <g id="matplotlib.axis_1">
    <g id="xtick_1">
     <g id="line2d_1">
      <path d="M 152.557138 462.005625 
L 152.557138 23.345625 
" clip-path="url(#p9cad4ecce5)" style="fill: none; stroke: #ffffff; stroke-opacity: 0.3; stroke-width: 0.8; stroke-linecap: round"/>
     </g>
     <g id="line2d_2"/>
     <g id="text_1">
      <!-- 2 -->
      <g style="fill: #262626" transform="translate(149.776669 472.7525) scale(0.1 -0.1)">
       <defs>
        <path id="LiberationSans-32" d="M 322 0 
L 322 397 
Q 481 763 711 1042 
Q 941 1322 1194 1548 
Q 1447 1775 1695 1969 
Q 1944 2163 2144 2356 
Q 2344 2550 2467 2762 
Q 2591 2975 2591 3244 
Q 2591 3606 2378 3806 
Q 2166 4006 1788 4006 
Q 1428 4006 1195 3811 
Q 963 3616 922 3263 
L 347 3316 
Q 409 3844 795 4156 
Q 1181 4469 1788 4469 
Q 2453 4469 2811 4155 
Q 3169 3841 3169 3263 
Q 3169 3006 3051 2753 
Q 2934 2500 2703 2247 
Q 2472 1994 1819 1463 
Q 1459 1169 1246 933 
Q 1034 697 941 478 
L 3238 478 
L 3238 0 
L 322 0 
z
" transform="scale(0.015625)"/>
       </defs>
       <use xlink:href="#LiberationSans-32"/>
      </g>
     </g>
    </g>
    <g id="xtick_2">
     <g id="line2d_3">
      <path d="M 300.379051 462.005625 
L 300.379051 23.345625 
" clip-path="url(#p9cad4ecce5)" style="fill: none; stroke: #ffffff; stroke-opacity: 0.3; stroke-width: 0.8; stroke-linecap: round"/>
     </g>
     <g id="line2d_4"/>
     <g id="text_2">
      <!-- 4 -->
      <g style="fill: #262626" transform="translate(297.598583 472.7525) scale(0.1 -0.1)">
       <defs>
        <path id="LiberationSans-34" d="M 2753 997 
L 2753 0 
L 2222 0 
L 2222 997 
L 147 997 
L 147 1434 
L 2163 4403 
L 2753 4403 
L 2753 1441 
L 3372 1441 
L 3372 997 
L 2753 997 
z
M 2222 3769 
Q 2216 3750 2134 3603 
Q 2053 3456 2013 3397 
L 884 1734 
L 716 1503 
L 666 1441 
L 2222 1441 
L 2222 3769 
z
" transform="scale(0.015625)"/>
       </defs>
       <use xlink:href="#LiberationSans-34"/>
      </g>
     </g>
    </g>
    <g id="xtick_3">
     <g id="line2d_5">
      <path d="M 448.200965 462.005625 
L 448.200965 23.345625 
" clip-path="url(#p9cad4ecce5)" style="fill: none; stroke: #ffffff; stroke-opacity: 0.3; stroke-width: 0.8; stroke-linecap: round"/>
     </g>
     <g id="line2d_6"/>
     <g id="text_3">
      <!-- 6 -->
      <g style="fill: #262626" transform="translate(445.420496 472.7525) scale(0.1 -0.1)">
       <defs>
        <path id="LiberationSans-36" d="M 3278 1441 
Q 3278 744 2900 340 
Q 2522 -63 1856 -63 
Q 1113 -63 719 490 
Q 325 1044 325 2100 
Q 325 3244 734 3856 
Q 1144 4469 1900 4469 
Q 2897 4469 3156 3572 
L 2619 3475 
Q 2453 4013 1894 4013 
Q 1413 4013 1148 3564 
Q 884 3116 884 2266 
Q 1038 2550 1316 2698 
Q 1594 2847 1953 2847 
Q 2563 2847 2920 2465 
Q 3278 2084 3278 1441 
z
M 2706 1416 
Q 2706 1894 2472 2153 
Q 2238 2413 1819 2413 
Q 1425 2413 1183 2183 
Q 941 1953 941 1550 
Q 941 1041 1192 716 
Q 1444 391 1838 391 
Q 2244 391 2475 664 
Q 2706 938 2706 1416 
z
" transform="scale(0.015625)"/>
       </defs>
       <use xlink:href="#LiberationSans-36"/>
      </g>
     </g>
    </g>
    <g id="xtick_4">
     <g id="line2d_7">
      <path d="M 596.022879 462.005625 
L 596.022879 23.345625 
" clip-path="url(#p9cad4ecce5)" style="fill: none; stroke: #ffffff; stroke-opacity: 0.3; stroke-width: 0.8; stroke-linecap: round"/>
     </g>
     <g id="line2d_8"/>
     <g id="text_4">
      <!-- 8 -->
      <g style="fill: #262626" transform="translate(593.24241 472.7525) scale(0.1 -0.1)">
       <defs>
        <path id="LiberationSans-38" d="M 3281 1228 
Q 3281 619 2893 278 
Q 2506 -63 1781 -63 
Q 1075 -63 676 271 
Q 278 606 278 1222 
Q 278 1653 525 1947 
Q 772 2241 1156 2303 
L 1156 2316 
Q 797 2400 589 2681 
Q 381 2963 381 3341 
Q 381 3844 757 4156 
Q 1134 4469 1769 4469 
Q 2419 4469 2795 4162 
Q 3172 3856 3172 3334 
Q 3172 2956 2962 2675 
Q 2753 2394 2391 2322 
L 2391 2309 
Q 2813 2241 3047 1952 
Q 3281 1663 3281 1228 
z
M 2588 3303 
Q 2588 4050 1769 4050 
Q 1372 4050 1164 3862 
Q 956 3675 956 3303 
Q 956 2925 1170 2726 
Q 1384 2528 1775 2528 
Q 2172 2528 2380 2711 
Q 2588 2894 2588 3303 
z
M 2697 1281 
Q 2697 1691 2453 1898 
Q 2209 2106 1769 2106 
Q 1341 2106 1100 1882 
Q 859 1659 859 1269 
Q 859 359 1788 359 
Q 2247 359 2472 579 
Q 2697 800 2697 1281 
z
" transform="scale(0.015625)"/>
       </defs>
       <use xlink:href="#LiberationSans-38"/>
      </g>
     </g>
    </g>
    <g id="xtick_5">
     <g id="line2d_9">
      <path d="M 743.844793 462.005625 
L 743.844793 23.345625 
" clip-path="url(#p9cad4ecce5)" style="fill: none; stroke: #ffffff; stroke-opacity: 0.3; stroke-width: 0.8; stroke-linecap: round"/>
     </g>
     <g id="line2d_10"/>
     <g id="text_5">
      <!-- 10 -->
      <g style="fill: #262626" transform="translate(738.283855 472.7525) scale(0.1 -0.1)">
       <defs>
        <path id="LiberationSans-31" d="M 488 0 
L 488 478 
L 1609 478 
L 1609 3866 
L 616 3156 
L 616 3688 
L 1656 4403 
L 2175 4403 
L 2175 478 
L 3247 478 
L 3247 0 
L 488 0 
z
" transform="scale(0.015625)"/>
        <path id="LiberationSans-30" d="M 3309 2203 
Q 3309 1100 2920 518 
Q 2531 -63 1772 -63 
Q 1013 -63 631 515 
Q 250 1094 250 2203 
Q 250 3338 620 3903 
Q 991 4469 1791 4469 
Q 2569 4469 2939 3897 
Q 3309 3325 3309 2203 
z
M 2738 2203 
Q 2738 3156 2517 3584 
Q 2297 4013 1791 4013 
Q 1272 4013 1045 3591 
Q 819 3169 819 2203 
Q 819 1266 1048 831 
Q 1278 397 1778 397 
Q 2275 397 2506 840 
Q 2738 1284 2738 2203 
z
" transform="scale(0.015625)"/>
       </defs>
       <use xlink:href="#LiberationSans-31"/>
       <use xlink:href="#LiberationSans-30" transform="translate(55.615234 0)"/>
      </g>
     </g>
    </g>
    <g id="text_6">
     <!-- Number of Verification Layers (k) -->
     <g style="fill: #262626" transform="translate(317.224549 487.52375) scale(0.12 -0.12)">
      <defs>
       <path id="LiberationSans-Bold-4e" d="M 3109 0 
L 1191 3391 
Q 1247 2897 1247 2597 
L 1247 0 
L 428 0 
L 428 4403 
L 1481 4403 
L 3428 984 
Q 3372 1456 3372 1844 
L 3372 4403 
L 4191 4403 
L 4191 0 
L 3109 0 
z
" transform="scale(0.015625)"/>
       <path id="LiberationSans-Bold-75" d="M 1275 3381 
L 1275 1484 
Q 1275 594 1875 594 
Q 2194 594 2389 867 
Q 2584 1141 2584 1569 
L 2584 3381 
L 3463 3381 
L 3463 756 
Q 3463 325 3488 0 
L 2650 0 
Q 2613 450 2613 672 
L 2597 672 
Q 2422 288 2151 112 
Q 1881 -63 1509 -63 
Q 972 -63 684 267 
Q 397 597 397 1234 
L 397 3381 
L 1275 3381 
z
" transform="scale(0.015625)"/>
       <path id="LiberationSans-Bold-6d" d="M 2438 0 
L 2438 1897 
Q 2438 2788 1925 2788 
Q 1659 2788 1492 2516 
Q 1325 2244 1325 1813 
L 1325 0 
L 447 0 
L 447 2625 
Q 447 2897 439 3070 
Q 431 3244 422 3381 
L 1259 3381 
Q 1269 3322 1284 3064 
Q 1300 2806 1300 2709 
L 1313 2709 
Q 1475 3097 1717 3272 
Q 1959 3447 2297 3447 
Q 3072 3447 3238 2709 
L 3256 2709 
Q 3428 3103 3668 3275 
Q 3909 3447 4281 3447 
Q 4775 3447 5034 3111 
Q 5294 2775 5294 2147 
L 5294 0 
L 4422 0 
L 4422 1897 
Q 4422 2788 3909 2788 
Q 3653 2788 3489 2539 
Q 3325 2291 3309 1853 
L 3309 0 
L 2438 0 
z
" transform="scale(0.015625)"/>
       <path id="LiberationSans-Bold-62" d="M 3647 1703 
Q 3647 866 3311 401 
Q 2975 -63 2350 -63 
Q 1991 -63 1728 93 
Q 1466 250 1325 544 
L 1319 544 
Q 1319 434 1305 243 
Q 1291 53 1275 0 
L 422 0 
Q 447 291 447 772 
L 447 4638 
L 1325 4638 
L 1325 3344 
L 1313 2794 
L 1325 2794 
Q 1622 3444 2406 3444 
Q 3006 3444 3326 2989 
Q 3647 2534 3647 1703 
z
M 2731 1703 
Q 2731 2278 2562 2556 
Q 2394 2834 2041 2834 
Q 1684 2834 1498 2536 
Q 1313 2238 1313 1675 
Q 1313 1138 1495 838 
Q 1678 538 2034 538 
Q 2731 538 2731 1703 
z
" transform="scale(0.015625)"/>
       <path id="LiberationSans-Bold-65" d="M 1831 -63 
Q 1069 -63 659 389 
Q 250 841 250 1706 
Q 250 2544 665 2994 
Q 1081 3444 1844 3444 
Q 2572 3444 2956 2961 
Q 3341 2478 3341 1547 
L 3341 1522 
L 1172 1522 
Q 1172 1028 1355 776 
Q 1538 525 1875 525 
Q 2341 525 2463 928 
L 3291 856 
Q 2931 -63 1831 -63 
z
M 1831 2891 
Q 1522 2891 1355 2675 
Q 1188 2459 1178 2072 
L 2491 2072 
Q 2466 2481 2294 2686 
Q 2122 2891 1831 2891 
z
" transform="scale(0.015625)"/>
       <path id="LiberationSans-Bold-72" d="M 447 0 
L 447 2588 
Q 447 2866 439 3052 
Q 431 3238 422 3381 
L 1259 3381 
Q 1269 3325 1284 3039 
Q 1300 2753 1300 2659 
L 1313 2659 
Q 1441 3016 1541 3161 
Q 1641 3306 1778 3376 
Q 1916 3447 2122 3447 
Q 2291 3447 2394 3400 
L 2394 2666 
Q 2181 2713 2019 2713 
Q 1691 2713 1508 2447 
Q 1325 2181 1325 1659 
L 1325 0 
L 447 0 
z
" transform="scale(0.015625)"/>
       <path id="LiberationSans-Bold-20" transform="scale(0.015625)"/>
       <path id="LiberationSans-Bold-6f" d="M 3659 1694 
Q 3659 872 3203 404 
Q 2747 -63 1941 -63 
Q 1150 -63 700 406 
Q 250 875 250 1694 
Q 250 2509 700 2976 
Q 1150 3444 1959 3444 
Q 2788 3444 3223 2992 
Q 3659 2541 3659 1694 
z
M 2741 1694 
Q 2741 2297 2544 2569 
Q 2347 2841 1972 2841 
Q 1172 2841 1172 1694 
Q 1172 1128 1367 833 
Q 1563 538 1931 538 
Q 2741 538 2741 1694 
z
" transform="scale(0.015625)"/>
       <path id="LiberationSans-Bold-66" d="M 1478 2788 
L 1478 0 
L 603 0 
L 603 2788 
L 109 2788 
L 109 3381 
L 603 3381 
L 603 3734 
Q 603 4194 847 4416 
Q 1091 4638 1588 4638 
Q 1834 4638 2144 4588 
L 2144 4022 
Q 2016 4050 1888 4050 
Q 1663 4050 1570 3961 
Q 1478 3872 1478 3647 
L 1478 3381 
L 2144 3381 
L 2144 2788 
L 1478 2788 
z
" transform="scale(0.015625)"/>
       <path id="LiberationSans-Bold-56" d="M 2606 0 
L 1672 0 
L 44 4403 
L 1006 4403 
L 1913 1575 
Q 1997 1300 2144 744 
L 2209 1013 
L 2369 1575 
L 3272 4403 
L 4225 4403 
L 2606 0 
z
" transform="scale(0.015625)"/>
       <path id="LiberationSans-Bold-69" d="M 447 3991 
L 447 4638 
L 1325 4638 
L 1325 3991 
L 447 3991 
z
M 447 0 
L 447 3381 
L 1325 3381 
L 1325 0 
L 447 0 
z
" transform="scale(0.015625)"/>
       <path id="LiberationSans-Bold-63" d="M 1856 -63 
Q 1088 -63 669 395 
Q 250 853 250 1672 
Q 250 2509 672 2976 
Q 1094 3444 1869 3444 
Q 2466 3444 2856 3144 
Q 3247 2844 3347 2316 
L 2463 2272 
Q 2425 2531 2275 2686 
Q 2125 2841 1850 2841 
Q 1172 2841 1172 1706 
Q 1172 538 1863 538 
Q 2113 538 2281 695 
Q 2450 853 2491 1166 
L 3372 1125 
Q 3325 778 3123 506 
Q 2922 234 2594 85 
Q 2266 -63 1856 -63 
z
" transform="scale(0.015625)"/>
       <path id="LiberationSans-Bold-61" d="M 1228 -63 
Q 738 -63 463 204 
Q 188 472 188 956 
Q 188 1481 530 1756 
Q 872 2031 1522 2038 
L 2250 2050 
L 2250 2222 
Q 2250 2553 2134 2714 
Q 2019 2875 1756 2875 
Q 1513 2875 1398 2764 
Q 1284 2653 1256 2397 
L 341 2441 
Q 425 2934 792 3189 
Q 1159 3444 1794 3444 
Q 2434 3444 2781 3128 
Q 3128 2813 3128 2231 
L 3128 1000 
Q 3128 716 3192 608 
Q 3256 500 3406 500 
Q 3506 500 3600 519 
L 3600 44 
Q 3522 25 3459 9 
Q 3397 -6 3334 -15 
Q 3272 -25 3201 -31 
Q 3131 -38 3038 -38 
Q 2706 -38 2548 125 
Q 2391 288 2359 603 
L 2341 603 
Q 1972 -63 1228 -63 
z
M 2250 1566 
L 1800 1559 
Q 1494 1547 1366 1492 
Q 1238 1438 1170 1325 
Q 1103 1213 1103 1025 
Q 1103 784 1214 667 
Q 1325 550 1509 550 
Q 1716 550 1886 662 
Q 2056 775 2153 973 
Q 2250 1172 2250 1394 
L 2250 1566 
z
" transform="scale(0.015625)"/>
       <path id="LiberationSans-Bold-74" d="M 1313 -56 
Q 925 -56 715 155 
Q 506 366 506 794 
L 506 2788 
L 78 2788 
L 78 3381 
L 550 3381 
L 825 4175 
L 1375 4175 
L 1375 3381 
L 2016 3381 
L 2016 2788 
L 1375 2788 
L 1375 1031 
Q 1375 784 1469 667 
Q 1563 550 1759 550 
Q 1863 550 2053 594 
L 2053 50 
Q 1728 -56 1313 -56 
z
" transform="scale(0.015625)"/>
       <path id="LiberationSans-Bold-6e" d="M 2638 0 
L 2638 1897 
Q 2638 2788 2034 2788 
Q 1716 2788 1520 2514 
Q 1325 2241 1325 1813 
L 1325 0 
L 447 0 
L 447 2625 
Q 447 2897 439 3070 
Q 431 3244 422 3381 
L 1259 3381 
Q 1269 3322 1284 3064 
Q 1300 2806 1300 2709 
L 1313 2709 
Q 1491 3097 1759 3272 
Q 2028 3447 2400 3447 
Q 2938 3447 3225 3115 
Q 3513 2784 3513 2147 
L 3513 0 
L 2638 0 
z
" transform="scale(0.015625)"/>
       <path id="LiberationSans-Bold-4c" d="M 428 0 
L 428 4403 
L 1350 4403 
L 1350 713 
L 3713 713 
L 3713 0 
L 428 0 
z
" transform="scale(0.015625)"/>
       <path id="LiberationSans-Bold-79" d="M 884 -1328 
Q 569 -1328 331 -1288 
L 331 -663 
Q 497 -688 634 -688 
Q 822 -688 945 -628 
Q 1069 -569 1167 -431 
Q 1266 -294 1388 34 
L 50 3381 
L 978 3381 
L 1509 1797 
Q 1634 1456 1825 753 
L 1903 1050 
L 2106 1784 
L 2606 3381 
L 3525 3381 
L 2188 -178 
Q 1919 -828 1630 -1078 
Q 1341 -1328 884 -1328 
z
" transform="scale(0.015625)"/>
       <path id="LiberationSans-Bold-73" d="M 3297 988 
Q 3297 497 2895 217 
Q 2494 -63 1784 -63 
Q 1088 -63 717 157 
Q 347 378 225 844 
L 997 959 
Q 1063 719 1223 619 
Q 1384 519 1784 519 
Q 2153 519 2322 612 
Q 2491 706 2491 906 
Q 2491 1069 2355 1164 
Q 2219 1259 1894 1325 
Q 1150 1472 890 1598 
Q 631 1725 495 1926 
Q 359 2128 359 2422 
Q 359 2906 732 3176 
Q 1106 3447 1791 3447 
Q 2394 3447 2761 3212 
Q 3128 2978 3219 2534 
L 2441 2453 
Q 2403 2659 2256 2761 
Q 2109 2863 1791 2863 
Q 1478 2863 1322 2783 
Q 1166 2703 1166 2516 
Q 1166 2369 1286 2283 
Q 1406 2197 1691 2141 
Q 2088 2059 2395 1973 
Q 2703 1888 2889 1769 
Q 3075 1650 3186 1464 
Q 3297 1278 3297 988 
z
" transform="scale(0.015625)"/>
       <path id="LiberationSans-Bold-28" d="M 1247 -1328 
Q 756 -622 537 81 
Q 319 784 319 1659 
Q 319 2531 537 3232 
Q 756 3934 1247 4638 
L 2125 4638 
Q 1631 3925 1407 3219 
Q 1184 2513 1184 1656 
Q 1184 803 1406 101 
Q 1628 -600 2125 -1328 
L 1247 -1328 
z
" transform="scale(0.015625)"/>
       <path id="LiberationSans-Bold-6b" d="M 2606 0 
L 1703 1531 
L 1325 1269 
L 1325 0 
L 447 0 
L 447 4638 
L 1325 4638 
L 1325 1981 
L 2531 3381 
L 3475 3381 
L 2288 2063 
L 3566 0 
L 2606 0 
z
" transform="scale(0.015625)"/>
       <path id="LiberationSans-Bold-29" d="M 6 -1328 
Q 506 -597 726 101 
Q 947 800 947 1656 
Q 947 2516 722 3223 
Q 497 3931 6 4638 
L 884 4638 
Q 1378 3928 1595 3225 
Q 1813 2522 1813 1659 
Q 1813 791 1595 87 
Q 1378 -616 884 -1328 
L 6 -1328 
z
" transform="scale(0.015625)"/>
      </defs>
      <use xlink:href="#LiberationSans-Bold-4e"/>
      <use xlink:href="#LiberationSans-Bold-75" transform="translate(72.216797 0)"/>
      <use xlink:href="#LiberationSans-Bold-6d" transform="translate(133.300781 0)"/>
      <use xlink:href="#LiberationSans-Bold-62" transform="translate(222.216797 0)"/>
      <use xlink:href="#LiberationSans-Bold-65" transform="translate(283.300781 0)"/>
      <use xlink:href="#LiberationSans-Bold-72" transform="translate(338.916016 0)"/>
      <use xlink:href="#LiberationSans-Bold-20" transform="translate(377.832031 0)"/>
      <use xlink:href="#LiberationSans-Bold-6f" transform="translate(405.615234 0)"/>
      <use xlink:href="#LiberationSans-Bold-66" transform="translate(466.699219 0)"/>
      <use xlink:href="#LiberationSans-Bold-20" transform="translate(500 0)"/>
      <use xlink:href="#LiberationSans-Bold-56" transform="translate(527.783203 0)"/>
      <use xlink:href="#LiberationSans-Bold-65" transform="translate(588.982422 0)"/>
      <use xlink:href="#LiberationSans-Bold-72" transform="translate(644.597656 0)"/>
      <use xlink:href="#LiberationSans-Bold-69" transform="translate(683.513672 0)"/>
      <use xlink:href="#LiberationSans-Bold-66" transform="translate(711.296875 0)"/>
      <use xlink:href="#LiberationSans-Bold-69" transform="translate(744.597656 0)"/>
      <use xlink:href="#LiberationSans-Bold-63" transform="translate(772.380859 0)"/>
      <use xlink:href="#LiberationSans-Bold-61" transform="translate(827.996094 0)"/>
      <use xlink:href="#LiberationSans-Bold-74" transform="translate(883.611328 0)"/>
      <use xlink:href="#LiberationSans-Bold-69" transform="translate(916.912109 0)"/>
      <use xlink:href="#LiberationSans-Bold-6f" transform="translate(944.695312 0)"/>
      <use xlink:href="#LiberationSans-Bold-6e" transform="translate(1005.779297 0)"/>
      <use xlink:href="#LiberationSans-Bold-20" transform="translate(1066.863281 0)"/>
      <use xlink:href="#LiberationSans-Bold-4c" transform="translate(1094.646484 0)"/>
      <use xlink:href="#LiberationSans-Bold-61" transform="translate(1155.730469 0)"/>
      <use xlink:href="#LiberationSans-Bold-79" transform="translate(1211.345703 0)"/>
      <use xlink:href="#LiberationSans-Bold-65" transform="translate(1266.960938 0)"/>
      <use xlink:href="#LiberationSans-Bold-72" transform="translate(1322.576172 0)"/>
      <use xlink:href="#LiberationSans-Bold-73" transform="translate(1361.492188 0)"/>
      <use xlink:href="#LiberationSans-Bold-20" transform="translate(1417.107422 0)"/>
      <use xlink:href="#LiberationSans-Bold-28" transform="translate(1444.890625 0)"/>
      <use xlink:href="#LiberationSans-Bold-6b" transform="translate(1478.191406 0)"/>
      <use xlink:href="#LiberationSans-Bold-29" transform="translate(1533.806641 0)"/>
     </g>
    </g>
   </g>
   <g id="matplotlib.axis_2">
    <g id="ytick_1">
     <g id="line2d_11">
      <path d="M 45.38625 462.005625 
L 777.104723 462.005625 
" clip-path="url(#p9cad4ecce5)" style="fill: none; stroke: #ffffff; stroke-opacity: 0.3; stroke-width: 0.8; stroke-linecap: round"/>
     </g>
     <g id="line2d_12"/>
     <g id="text_7">
      <!-- $\mathdefault{10^{-6}}$ -->
      <g style="fill: #262626" transform="translate(22.38625 465.629062) scale(0.1 -0.1)">
       <defs>
        <path id="LiberationSans-2212" d="M 316 1900 
L 316 2356 
L 3425 2356 
L 3425 1900 
L 316 1900 
z
" transform="scale(0.015625)"/>
       </defs>
       <use xlink:href="#LiberationSans-31" transform="translate(0 0.140625)"/>
       <use xlink:href="#LiberationSans-30" transform="translate(55.615234 0.140625)"/>
       <use xlink:href="#LiberationSans-2212" transform="translate(112.154961 37.120312) scale(0.7)"/>
       <use xlink:href="#LiberationSans-36" transform="translate(153.033867 37.120312) scale(0.7)"/>
      </g>
     </g>
    </g>
    <g id="ytick_2">
     <g id="line2d_13">
      <path d="M 45.38625 388.895625 
L 777.104723 388.895625 
" clip-path="url(#p9cad4ecce5)" style="fill: none; stroke: #ffffff; stroke-opacity: 0.3; stroke-width: 0.8; stroke-linecap: round"/>
     </g>
     <g id="line2d_14"/>
     <g id="text_8">
      <!-- $\mathdefault{10^{-5}}$ -->
      <g style="fill: #262626" transform="translate(22.38625 392.519063) scale(0.1 -0.1)">
       <defs>
        <path id="LiberationSans-35" d="M 3291 1434 
Q 3291 738 2877 337 
Q 2463 -63 1728 -63 
Q 1113 -63 734 206 
Q 356 475 256 984 
L 825 1050 
Q 1003 397 1741 397 
Q 2194 397 2450 670 
Q 2706 944 2706 1422 
Q 2706 1838 2448 2094 
Q 2191 2350 1753 2350 
Q 1525 2350 1328 2278 
Q 1131 2206 934 2034 
L 384 2034 
L 531 4403 
L 3034 4403 
L 3034 3925 
L 1044 3925 
L 959 2528 
Q 1325 2809 1869 2809 
Q 2519 2809 2905 2428 
Q 3291 2047 3291 1434 
z
" transform="scale(0.015625)"/>
       </defs>
       <use xlink:href="#LiberationSans-31" transform="translate(0 0.8625)"/>
       <use xlink:href="#LiberationSans-30" transform="translate(55.615234 0.8625)"/>
       <use xlink:href="#LiberationSans-2212" transform="translate(112.154961 37.842188) scale(0.7)"/>
       <use xlink:href="#LiberationSans-35" transform="translate(153.033867 37.842188) scale(0.7)"/>
      </g>
     </g>
    </g>
    <g id="ytick_3">
     <g id="line2d_15">
      <path d="M 45.38625 315.785625 
L 777.104723 315.785625 
" clip-path="url(#p9cad4ecce5)" style="fill: none; stroke: #ffffff; stroke-opacity: 0.3; stroke-width: 0.8; stroke-linecap: round"/>
     </g>
     <g id="line2d_16"/>
     <g id="text_9">
      <!-- $\mathdefault{10^{-4}}$ -->
      <g style="fill: #262626" transform="translate(22.38625 319.409063) scale(0.1 -0.1)">
       <use xlink:href="#LiberationSans-31" transform="translate(0 0.8625)"/>
       <use xlink:href="#LiberationSans-30" transform="translate(55.615234 0.8625)"/>
       <use xlink:href="#LiberationSans-2212" transform="translate(112.154961 37.842188) scale(0.7)"/>
       <use xlink:href="#LiberationSans-34" transform="translate(153.033867 37.842188) scale(0.7)"/>
      </g>
     </g>
    </g>
    <g id="ytick_4">
     <g id="line2d_17">
      <path d="M 45.38625 242.675625 
L 777.104723 242.675625 
" clip-path="url(#p9cad4ecce5)" style="fill: none; stroke: #ffffff; stroke-opacity: 0.3; stroke-width: 0.8; stroke-linecap: round"/>
     </g>
     <g id="line2d_18"/>
     <g id="text_10">
      <!-- $\mathdefault{10^{-3}}$ -->
      <g style="fill: #262626" transform="translate(22.38625 246.299062) scale(0.1 -0.1)">
       <defs>
        <path id="LiberationSans-33" d="M 3278 1216 
Q 3278 606 2890 271 
Q 2503 -63 1784 -63 
Q 1116 -63 717 239 
Q 319 541 244 1131 
L 825 1184 
Q 938 403 1784 403 
Q 2209 403 2451 612 
Q 2694 822 2694 1234 
Q 2694 1594 2417 1795 
Q 2141 1997 1619 1997 
L 1300 1997 
L 1300 2484 
L 1606 2484 
Q 2069 2484 2323 2686 
Q 2578 2888 2578 3244 
Q 2578 3597 2370 3801 
Q 2163 4006 1753 4006 
Q 1381 4006 1151 3815 
Q 922 3625 884 3278 
L 319 3322 
Q 381 3863 767 4166 
Q 1153 4469 1759 4469 
Q 2422 4469 2789 4161 
Q 3156 3853 3156 3303 
Q 3156 2881 2920 2617 
Q 2684 2353 2234 2259 
L 2234 2247 
Q 2728 2194 3003 1916 
Q 3278 1638 3278 1216 
z
" transform="scale(0.015625)"/>
       </defs>
       <use xlink:href="#LiberationSans-31" transform="translate(0 0.140625)"/>
       <use xlink:href="#LiberationSans-30" transform="translate(55.615234 0.140625)"/>
       <use xlink:href="#LiberationSans-2212" transform="translate(112.154961 37.120312) scale(0.7)"/>
       <use xlink:href="#LiberationSans-33" transform="translate(153.033867 37.120312) scale(0.7)"/>
      </g>
     </g>
    </g>
    <g id="ytick_5">
     <g id="line2d_19">
      <path d="M 45.38625 169.565625 
L 777.104723 169.565625 
" clip-path="url(#p9cad4ecce5)" style="fill: none; stroke: #ffffff; stroke-opacity: 0.3; stroke-width: 0.8; stroke-linecap: round"/>
     </g>
     <g id="line2d_20"/>
     <g id="text_11">
      <!-- $\mathdefault{10^{-2}}$ -->
      <g style="fill: #262626" transform="translate(22.38625 173.189062) scale(0.1 -0.1)">
       <use xlink:href="#LiberationSans-31" transform="translate(0 0.140625)"/>
       <use xlink:href="#LiberationSans-30" transform="translate(55.615234 0.140625)"/>
       <use xlink:href="#LiberationSans-2212" transform="translate(112.154961 37.120312) scale(0.7)"/>
       <use xlink:href="#LiberationSans-32" transform="translate(153.033867 37.120312) scale(0.7)"/>
      </g>
     </g>
    </g>
    <g id="ytick_6">
     <g id="line2d_21">
      <path d="M 45.38625 96.455625 
L 777.104723 96.455625 
" clip-path="url(#p9cad4ecce5)" style="fill: none; stroke: #ffffff; stroke-opacity: 0.3; stroke-width: 0.8; stroke-linecap: round"/>
     </g>
     <g id="line2d_22"/>
     <g id="text_12">
      <!-- $\mathdefault{10^{-1}}$ -->
      <g style="fill: #262626" transform="translate(22.38625 100.079063) scale(0.1 -0.1)">
       <use xlink:href="#LiberationSans-31" transform="translate(0 0.8625)"/>
       <use xlink:href="#LiberationSans-30" transform="translate(55.615234 0.8625)"/>
       <use xlink:href="#LiberationSans-2212" transform="translate(112.154961 37.842188) scale(0.7)"/>
       <use xlink:href="#LiberationSans-31" transform="translate(153.033867 37.842188) scale(0.7)"/>
      </g>
     </g>
    </g>
    <g id="ytick_7">
     <g id="line2d_23">
      <path d="M 45.38625 23.345625 
L 777.104723 23.345625 
" clip-path="url(#p9cad4ecce5)" style="fill: none; stroke: #ffffff; stroke-opacity: 0.3; stroke-width: 0.8; stroke-linecap: round"/>
     </g>
     <g id="line2d_24"/>
     <g id="text_13">
      <!-- $\mathdefault{10^{0}}$ -->
      <g style="fill: #262626" transform="translate(26.48625 26.969063) scale(0.1 -0.1)">
       <use xlink:href="#LiberationSans-31" transform="translate(0 0.140625)"/>
       <use xlink:href="#LiberationSans-30" transform="translate(55.615234 0.140625)"/>
       <use xlink:href="#LiberationSans-30" transform="translate(112.154961 37.120312) scale(0.7)"/>
      </g>
     </g>
    </g>
    <g id="ytick_8">
     <g id="line2d_25">
      <path d="M 45.38625 439.997322 
L 777.104723 439.997322 
" clip-path="url(#p9cad4ecce5)" style="fill: none; stroke: #ffffff; stroke-opacity: 0.3; stroke-width: 0.8; stroke-linecap: round"/>
     </g>
     <g id="line2d_26"/>
    </g>
    <g id="ytick_9">
     <g id="line2d_27">
      <path d="M 45.38625 427.12329 
L 777.104723 427.12329 
" clip-path="url(#p9cad4ecce5)" style="fill: none; stroke: #ffffff; stroke-opacity: 0.3; stroke-width: 0.8; stroke-linecap: round"/>
     </g>
     <g id="line2d_28"/>
    </g>
    <g id="ytick_10">
     <g id="line2d_29">
      <path d="M 45.38625 417.989019 
L 777.104723 417.989019 
" clip-path="url(#p9cad4ecce5)" style="fill: none; stroke: #ffffff; stroke-opacity: 0.3; stroke-width: 0.8; stroke-linecap: round"/>
     </g>
     <g id="line2d_30"/>
    </g>
    <g id="ytick_11">
     <g id="line2d_31">
      <path d="M 45.38625 410.903928 
L 777.104723 410.903928 
" clip-path="url(#p9cad4ecce5)" style="fill: none; stroke: #ffffff; stroke-opacity: 0.3; stroke-width: 0.8; stroke-linecap: round"/>
     </g>
     <g id="line2d_32"/>
    </g>
    <g id="ytick_12">
     <g id="line2d_33">
      <path d="M 45.38625 405.114987 
L 777.104723 405.114987 
" clip-path="url(#p9cad4ecce5)" style="fill: none; stroke: #ffffff; stroke-opacity: 0.3; stroke-width: 0.8; stroke-linecap: round"/>
     </g>
     <g id="line2d_34"/>
    </g>
    <g id="ytick_13">
     <g id="line2d_35">
      <path d="M 45.38625 400.220507 
L 777.104723 400.220507 
" clip-path="url(#p9cad4ecce5)" style="fill: none; stroke: #ffffff; stroke-opacity: 0.3; stroke-width: 0.8; stroke-linecap: round"/>
     </g>
     <g id="line2d_36"/>
    </g>
    <g id="ytick_14">
     <g id="line2d_37">
      <path d="M 45.38625 395.980716 
L 777.104723 395.980716 
" clip-path="url(#p9cad4ecce5)" style="fill: none; stroke: #ffffff; stroke-opacity: 0.3; stroke-width: 0.8; stroke-linecap: round"/>
     </g>
     <g id="line2d_38"/>
    </g>
    <g id="ytick_15">
     <g id="line2d_39">
      <path d="M 45.38625 392.240955 
L 777.104723 392.240955 
" clip-path="url(#p9cad4ecce5)" style="fill: none; stroke: #ffffff; stroke-opacity: 0.3; stroke-width: 0.8; stroke-linecap: round"/>
     </g>
     <g id="line2d_40"/>
    </g>
    <g id="ytick_16">
     <g id="line2d_41">
      <path d="M 45.38625 366.887322 
L 777.104723 366.887322 
" clip-path="url(#p9cad4ecce5)" style="fill: none; stroke: #ffffff; stroke-opacity: 0.3; stroke-width: 0.8; stroke-linecap: round"/>
     </g>
     <g id="line2d_42"/>
    </g>
    <g id="ytick_17">
     <g id="line2d_43">
      <path d="M 45.38625 354.01329 
L 777.104723 354.01329 
" clip-path="url(#p9cad4ecce5)" style="fill: none; stroke: #ffffff; stroke-opacity: 0.3; stroke-width: 0.8; stroke-linecap: round"/>
     </g>
     <g id="line2d_44"/>
    </g>
    <g id="ytick_18">
     <g id="line2d_45">
      <path d="M 45.38625 344.879019 
L 777.104723 344.879019 
" clip-path="url(#p9cad4ecce5)" style="fill: none; stroke: #ffffff; stroke-opacity: 0.3; stroke-width: 0.8; stroke-linecap: round"/>
     </g>
     <g id="line2d_46"/>
    </g>
    <g id="ytick_19">
     <g id="line2d_47">
      <path d="M 45.38625 337.793928 
L 777.104723 337.793928 
" clip-path="url(#p9cad4ecce5)" style="fill: none; stroke: #ffffff; stroke-opacity: 0.3; stroke-width: 0.8; stroke-linecap: round"/>
     </g>
     <g id="line2d_48"/>
    </g>
    <g id="ytick_20">
     <g id="line2d_49">
      <path d="M 45.38625 332.004987 
L 777.104723 332.004987 
" clip-path="url(#p9cad4ecce5)" style="fill: none; stroke: #ffffff; stroke-opacity: 0.3; stroke-width: 0.8; stroke-linecap: round"/>
     </g>
     <g id="line2d_50"/>
    </g>
    <g id="ytick_21">
     <g id="line2d_51">
      <path d="M 45.38625 327.110507 
L 777.104723 327.110507 
" clip-path="url(#p9cad4ecce5)" style="fill: none; stroke: #ffffff; stroke-opacity: 0.3; stroke-width: 0.8; stroke-linecap: round"/>
     </g>
     <g id="line2d_52"/>
    </g>
    <g id="ytick_22">
     <g id="line2d_53">
      <path d="M 45.38625 322.870716 
L 777.104723 322.870716 
" clip-path="url(#p9cad4ecce5)" style="fill: none; stroke: #ffffff; stroke-opacity: 0.3; stroke-width: 0.8; stroke-linecap: round"/>
     </g>
     <g id="line2d_54"/>
    </g>
    <g id="ytick_23">
     <g id="line2d_55">
      <path d="M 45.38625 319.130955 
L 777.104723 319.130955 
" clip-path="url(#p9cad4ecce5)" style="fill: none; stroke: #ffffff; stroke-opacity: 0.3; stroke-width: 0.8; stroke-linecap: round"/>
     </g>
     <g id="line2d_56"/>
    </g>
    <g id="ytick_24">
     <g id="line2d_57">
      <path d="M 45.38625 293.777322 
L 777.104723 293.777322 
" clip-path="url(#p9cad4ecce5)" style="fill: none; stroke: #ffffff; stroke-opacity: 0.3; stroke-width: 0.8; stroke-linecap: round"/>
     </g>
     <g id="line2d_58"/>
    </g>
    <g id="ytick_25">
     <g id="line2d_59">
      <path d="M 45.38625 280.90329 
L 777.104723 280.90329 
" clip-path="url(#p9cad4ecce5)" style="fill: none; stroke: #ffffff; stroke-opacity: 0.3; stroke-width: 0.8; stroke-linecap: round"/>
     </g>
     <g id="line2d_60"/>
    </g>
    <g id="ytick_26">
     <g id="line2d_61">
      <path d="M 45.38625 271.769019 
L 777.104723 271.769019 
" clip-path="url(#p9cad4ecce5)" style="fill: none; stroke: #ffffff; stroke-opacity: 0.3; stroke-width: 0.8; stroke-linecap: round"/>
     </g>
     <g id="line2d_62"/>
    </g>
    <g id="ytick_27">
     <g id="line2d_63">
      <path d="M 45.38625 264.683928 
L 777.104723 264.683928 
" clip-path="url(#p9cad4ecce5)" style="fill: none; stroke: #ffffff; stroke-opacity: 0.3; stroke-width: 0.8; stroke-linecap: round"/>
     </g>
     <g id="line2d_64"/>
    </g>
    <g id="ytick_28">
     <g id="line2d_65">
      <path d="M 45.38625 258.894987 
L 777.104723 258.894987 
" clip-path="url(#p9cad4ecce5)" style="fill: none; stroke: #ffffff; stroke-opacity: 0.3; stroke-width: 0.8; stroke-linecap: round"/>
     </g>
     <g id="line2d_66"/>
    </g>
    <g id="ytick_29">
     <g id="line2d_67">
      <path d="M 45.38625 254.000507 
L 777.104723 254.000507 
" clip-path="url(#p9cad4ecce5)" style="fill: none; stroke: #ffffff; stroke-opacity: 0.3; stroke-width: 0.8; stroke-linecap: round"/>
     </g>
     <g id="line2d_68"/>
    </g>
    <g id="ytick_30">
     <g id="line2d_69">
      <path d="M 45.38625 249.760716 
L 777.104723 249.760716 
" clip-path="url(#p9cad4ecce5)" style="fill: none; stroke: #ffffff; stroke-opacity: 0.3; stroke-width: 0.8; stroke-linecap: round"/>
     </g>
     <g id="line2d_70"/>
    </g>
    <g id="ytick_31">
     <g id="line2d_71">
      <path d="M 45.38625 246.020955 
L 777.104723 246.020955 
" clip-path="url(#p9cad4ecce5)" style="fill: none; stroke: #ffffff; stroke-opacity: 0.3; stroke-width: 0.8; stroke-linecap: round"/>
     </g>
     <g id="line2d_72"/>
    </g>
    <g id="ytick_32">
     <g id="line2d_73">
      <path d="M 45.38625 220.667322 
L 777.104723 220.667322 
" clip-path="url(#p9cad4ecce5)" style="fill: none; stroke: #ffffff; stroke-opacity: 0.3; stroke-width: 0.8; stroke-linecap: round"/>
     </g>
     <g id="line2d_74"/>
    </g>
    <g id="ytick_33">
     <g id="line2d_75">
      <path d="M 45.38625 207.79329 
L 777.104723 207.79329 
" clip-path="url(#p9cad4ecce5)" style="fill: none; stroke: #ffffff; stroke-opacity: 0.3; stroke-width: 0.8; stroke-linecap: round"/>
     </g>
     <g id="line2d_76"/>
    </g>
    <g id="ytick_34">
     <g id="line2d_77">
      <path d="M 45.38625 198.659019 
L 777.104723 198.659019 
" clip-path="url(#p9cad4ecce5)" style="fill: none; stroke: #ffffff; stroke-opacity: 0.3; stroke-width: 0.8; stroke-linecap: round"/>
     </g>
     <g id="line2d_78"/>
    </g>
    <g id="ytick_35">
     <g id="line2d_79">
      <path d="M 45.38625 191.573928 
L 777.104723 191.573928 
" clip-path="url(#p9cad4ecce5)" style="fill: none; stroke: #ffffff; stroke-opacity: 0.3; stroke-width: 0.8; stroke-linecap: round"/>
     </g>
     <g id="line2d_80"/>
    </g>
    <g id="ytick_36">
     <g id="line2d_81">
      <path d="M 45.38625 185.784987 
L 777.104723 185.784987 
" clip-path="url(#p9cad4ecce5)" style="fill: none; stroke: #ffffff; stroke-opacity: 0.3; stroke-width: 0.8; stroke-linecap: round"/>
     </g>
     <g id="line2d_82"/>
    </g>
    <g id="ytick_37">
     <g id="line2d_83">
      <path d="M 45.38625 180.890507 
L 777.104723 180.890507 
" clip-path="url(#p9cad4ecce5)" style="fill: none; stroke: #ffffff; stroke-opacity: 0.3; stroke-width: 0.8; stroke-linecap: round"/>
     </g>
     <g id="line2d_84"/>
    </g>
    <g id="ytick_38">
     <g id="line2d_85">
      <path d="M 45.38625 176.650716 
L 777.104723 176.650716 
" clip-path="url(#p9cad4ecce5)" style="fill: none; stroke: #ffffff; stroke-opacity: 0.3; stroke-width: 0.8; stroke-linecap: round"/>
     </g>
     <g id="line2d_86"/>
    </g>
    <g id="ytick_39">
     <g id="line2d_87">
      <path d="M 45.38625 172.910955 
L 777.104723 172.910955 
" clip-path="url(#p9cad4ecce5)" style="fill: none; stroke: #ffffff; stroke-opacity: 0.3; stroke-width: 0.8; stroke-linecap: round"/>
     </g>
     <g id="line2d_88"/>
    </g>
    <g id="ytick_40">
     <g id="line2d_89">
      <path d="M 45.38625 147.557322 
L 777.104723 147.557322 
" clip-path="url(#p9cad4ecce5)" style="fill: none; stroke: #ffffff; stroke-opacity: 0.3; stroke-width: 0.8; stroke-linecap: round"/>
     </g>
     <g id="line2d_90"/>
    </g>
    <g id="ytick_41">
     <g id="line2d_91">
      <path d="M 45.38625 134.68329 
L 777.104723 134.68329 
" clip-path="url(#p9cad4ecce5)" style="fill: none; stroke: #ffffff; stroke-opacity: 0.3; stroke-width: 0.8; stroke-linecap: round"/>
     </g>
     <g id="line2d_92"/>
    </g>
    <g id="ytick_42">
     <g id="line2d_93">
      <path d="M 45.38625 125.549019 
L 777.104723 125.549019 
" clip-path="url(#p9cad4ecce5)" style="fill: none; stroke: #ffffff; stroke-opacity: 0.3; stroke-width: 0.8; stroke-linecap: round"/>
     </g>
     <g id="line2d_94"/>
    </g>
    <g id="ytick_43">
     <g id="line2d_95">
      <path d="M 45.38625 118.463928 
L 777.104723 118.463928 
" clip-path="url(#p9cad4ecce5)" style="fill: none; stroke: #ffffff; stroke-opacity: 0.3; stroke-width: 0.8; stroke-linecap: round"/>
     </g>
     <g id="line2d_96"/>
    </g>
    <g id="ytick_44">
     <g id="line2d_97">
      <path d="M 45.38625 112.674987 
L 777.104723 112.674987 
" clip-path="url(#p9cad4ecce5)" style="fill: none; stroke: #ffffff; stroke-opacity: 0.3; stroke-width: 0.8; stroke-linecap: round"/>
     </g>
     <g id="line2d_98"/>
    </g>
    <g id="ytick_45">
     <g id="line2d_99">
      <path d="M 45.38625 107.780507 
L 777.104723 107.780507 
" clip-path="url(#p9cad4ecce5)" style="fill: none; stroke: #ffffff; stroke-opacity: 0.3; stroke-width: 0.8; stroke-linecap: round"/>
     </g>
     <g id="line2d_100"/>
    </g>
    <g id="ytick_46">
     <g id="line2d_101">
      <path d="M 45.38625 103.540716 
L 777.104723 103.540716 
" clip-path="url(#p9cad4ecce5)" style="fill: none; stroke: #ffffff; stroke-opacity: 0.3; stroke-width: 0.8; stroke-linecap: round"/>
     </g>
     <g id="line2d_102"/>
    </g>
    <g id="ytick_47">
     <g id="line2d_103">
      <path d="M 45.38625 99.800955 
L 777.104723 99.800955 
" clip-path="url(#p9cad4ecce5)" style="fill: none; stroke: #ffffff; stroke-opacity: 0.3; stroke-width: 0.8; stroke-linecap: round"/>
     </g>
     <g id="line2d_104"/>
    </g>
    <g id="ytick_48">
     <g id="line2d_105">
      <path d="M 45.38625 74.447322 
L 777.104723 74.447322 
" clip-path="url(#p9cad4ecce5)" style="fill: none; stroke: #ffffff; stroke-opacity: 0.3; stroke-width: 0.8; stroke-linecap: round"/>
     </g>
     <g id="line2d_106"/>
    </g>
    <g id="ytick_49">
     <g id="line2d_107">
      <path d="M 45.38625 61.57329 
L 777.104723 61.57329 
" clip-path="url(#p9cad4ecce5)" style="fill: none; stroke: #ffffff; stroke-opacity: 0.3; stroke-width: 0.8; stroke-linecap: round"/>
     </g>
     <g id="line2d_108"/>
    </g>
    <g id="ytick_50">
     <g id="line2d_109">
      <path d="M 45.38625 52.439019 
L 777.104723 52.439019 
" clip-path="url(#p9cad4ecce5)" style="fill: none; stroke: #ffffff; stroke-opacity: 0.3; stroke-width: 0.8; stroke-linecap: round"/>
     </g>
     <g id="line2d_110"/>
    </g>
    <g id="ytick_51">
     <g id="line2d_111">
      <path d="M 45.38625 45.353928 
L 777.104723 45.353928 
" clip-path="url(#p9cad4ecce5)" style="fill: none; stroke: #ffffff; stroke-opacity: 0.3; stroke-width: 0.8; stroke-linecap: round"/>
     </g>
     <g id="line2d_112"/>
    </g>
    <g id="ytick_52">
     <g id="line2d_113">
      <path d="M 45.38625 39.564987 
L 777.104723 39.564987 
" clip-path="url(#p9cad4ecce5)" style="fill: none; stroke: #ffffff; stroke-opacity: 0.3; stroke-width: 0.8; stroke-linecap: round"/>
     </g>
     <g id="line2d_114"/>
    </g>
    <g id="ytick_53">
     <g id="line2d_115">
      <path d="M 45.38625 34.670507 
L 777.104723 34.670507 
" clip-path="url(#p9cad4ecce5)" style="fill: none; stroke: #ffffff; stroke-opacity: 0.3; stroke-width: 0.8; stroke-linecap: round"/>
     </g>
     <g id="line2d_116"/>
    </g>
    <g id="ytick_54">
     <g id="line2d_117">
      <path d="M 45.38625 30.430716 
L 777.104723 30.430716 
" clip-path="url(#p9cad4ecce5)" style="fill: none; stroke: #ffffff; stroke-opacity: 0.3; stroke-width: 0.8; stroke-linecap: round"/>
     </g>
     <g id="line2d_118"/>
    </g>
    <g id="ytick_55">
     <g id="line2d_119">
      <path d="M 45.38625 26.690955 
L 777.104723 26.690955 
" clip-path="url(#p9cad4ecce5)" style="fill: none; stroke: #ffffff; stroke-opacity: 0.3; stroke-width: 0.8; stroke-linecap: round"/>
     </g>
     <g id="line2d_120"/>
    </g>
    <g id="text_14">
     <!-- Probability of Successful Exploit -->
     <g style="fill: #262626" transform="translate(15.89625 336.020625) rotate(-90) scale(0.12 -0.12)">
      <defs>
       <path id="LiberationSans-Bold-50" d="M 4050 3009 
Q 4050 2584 3856 2250 
Q 3663 1916 3302 1733 
Q 2941 1550 2444 1550 
L 1350 1550 
L 1350 0 
L 428 0 
L 428 4403 
L 2406 4403 
Q 3197 4403 3623 4039 
Q 4050 3675 4050 3009 
z
M 3122 2994 
Q 3122 3688 2303 3688 
L 1350 3688 
L 1350 2259 
L 2328 2259 
Q 2709 2259 2915 2448 
Q 3122 2638 3122 2994 
z
" transform="scale(0.015625)"/>
       <path id="LiberationSans-Bold-6c" d="M 447 0 
L 447 4638 
L 1325 4638 
L 1325 0 
L 447 0 
z
" transform="scale(0.015625)"/>
       <path id="LiberationSans-Bold-53" d="M 4019 1269 
Q 4019 622 3539 279 
Q 3059 -63 2131 -63 
Q 1284 -63 803 237 
Q 322 538 184 1147 
L 1075 1294 
Q 1166 944 1428 786 
Q 1691 628 2156 628 
Q 3122 628 3122 1216 
Q 3122 1403 3011 1525 
Q 2900 1647 2698 1728 
Q 2497 1809 1925 1925 
Q 1431 2041 1237 2111 
Q 1044 2181 887 2276 
Q 731 2372 622 2506 
Q 513 2641 452 2822 
Q 391 3003 391 3238 
Q 391 3834 839 4151 
Q 1288 4469 2144 4469 
Q 2963 4469 3373 4212 
Q 3784 3956 3903 3366 
L 3009 3244 
Q 2941 3528 2730 3672 
Q 2519 3816 2125 3816 
Q 1288 3816 1288 3291 
Q 1288 3119 1377 3009 
Q 1466 2900 1641 2823 
Q 1816 2747 2350 2631 
Q 2984 2497 3257 2383 
Q 3531 2269 3690 2117 
Q 3850 1966 3934 1755 
Q 4019 1544 4019 1269 
z
" transform="scale(0.015625)"/>
       <path id="LiberationSans-Bold-45" d="M 428 0 
L 428 4403 
L 3891 4403 
L 3891 3691 
L 1350 3691 
L 1350 2584 
L 3700 2584 
L 3700 1872 
L 1350 1872 
L 1350 713 
L 4019 713 
L 4019 0 
L 428 0 
z
" transform="scale(0.015625)"/>
       <path id="LiberationSans-Bold-78" d="M 2559 0 
L 1772 1225 
L 978 0 
L 44 0 
L 1281 1747 
L 103 3381 
L 1050 3381 
L 1772 2275 
L 2491 3381 
L 3444 3381 
L 2266 1756 
L 3513 0 
L 2559 0 
z
" transform="scale(0.015625)"/>
       <path id="LiberationSans-Bold-70" d="M 3647 1706 
Q 3647 859 3308 398 
Q 2969 -63 2350 -63 
Q 1994 -63 1730 92 
Q 1466 247 1325 538 
L 1306 538 
Q 1325 444 1325 -31 
L 1325 -1328 
L 447 -1328 
L 447 2603 
Q 447 3081 422 3381 
L 1275 3381 
Q 1291 3325 1302 3159 
Q 1313 2994 1313 2831 
L 1325 2831 
Q 1622 3453 2406 3453 
Q 2997 3453 3322 2998 
Q 3647 2544 3647 1706 
z
M 2731 1706 
Q 2731 2844 2034 2844 
Q 1684 2844 1498 2537 
Q 1313 2231 1313 1681 
Q 1313 1134 1498 836 
Q 1684 538 2028 538 
Q 2731 538 2731 1706 
z
" transform="scale(0.015625)"/>
      </defs>
      <use xlink:href="#LiberationSans-Bold-50"/>
      <use xlink:href="#LiberationSans-Bold-72" transform="translate(66.699219 0)"/>
      <use xlink:href="#LiberationSans-Bold-6f" transform="translate(105.615234 0)"/>
      <use xlink:href="#LiberationSans-Bold-62" transform="translate(166.699219 0)"/>
      <use xlink:href="#LiberationSans-Bold-61" transform="translate(227.783203 0)"/>
      <use xlink:href="#LiberationSans-Bold-62" transform="translate(283.398438 0)"/>
      <use xlink:href="#LiberationSans-Bold-69" transform="translate(344.482422 0)"/>
      <use xlink:href="#LiberationSans-Bold-6c" transform="translate(372.265625 0)"/>
      <use xlink:href="#LiberationSans-Bold-69" transform="translate(400.048828 0)"/>
      <use xlink:href="#LiberationSans-Bold-74" transform="translate(427.832031 0)"/>
      <use xlink:href="#LiberationSans-Bold-79" transform="translate(461.132812 0)"/>
      <use xlink:href="#LiberationSans-Bold-20" transform="translate(516.748047 0)"/>
      <use xlink:href="#LiberationSans-Bold-6f" transform="translate(544.53125 0)"/>
      <use xlink:href="#LiberationSans-Bold-66" transform="translate(605.615234 0)"/>
      <use xlink:href="#LiberationSans-Bold-20" transform="translate(638.916016 0)"/>
      <use xlink:href="#LiberationSans-Bold-53" transform="translate(666.699219 0)"/>
      <use xlink:href="#LiberationSans-Bold-75" transform="translate(733.398438 0)"/>
      <use xlink:href="#LiberationSans-Bold-63" transform="translate(794.482422 0)"/>
      <use xlink:href="#LiberationSans-Bold-63" transform="translate(850.097656 0)"/>
      <use xlink:href="#LiberationSans-Bold-65" transform="translate(905.712891 0)"/>
      <use xlink:href="#LiberationSans-Bold-73" transform="translate(961.328125 0)"/>
      <use xlink:href="#LiberationSans-Bold-73" transform="translate(1016.943359 0)"/>
      <use xlink:href="#LiberationSans-Bold-66" transform="translate(1072.558594 0)"/>
      <use xlink:href="#LiberationSans-Bold-75" transform="translate(1105.859375 0)"/>
      <use xlink:href="#LiberationSans-Bold-6c" transform="translate(1166.943359 0)"/>
      <use xlink:href="#LiberationSans-Bold-20" transform="translate(1194.726562 0)"/>
      <use xlink:href="#LiberationSans-Bold-45" transform="translate(1222.509766 0)"/>
      <use xlink:href="#LiberationSans-Bold-78" transform="translate(1289.208984 0)"/>
      <use xlink:href="#LiberationSans-Bold-70" transform="translate(1344.824219 0)"/>
      <use xlink:href="#LiberationSans-Bold-6c" transform="translate(1405.908203 0)"/>
      <use xlink:href="#LiberationSans-Bold-6f" transform="translate(1433.691406 0)"/>
      <use xlink:href="#LiberationSans-Bold-69" transform="translate(1494.775391 0)"/>
      <use xlink:href="#LiberationSans-Bold-74" transform="translate(1522.558594 0)"/>
     </g>
    </g>
   </g>
   <g id="FillBetweenPolyCollection_1">
    <defs>
     <path id="mde7bfe9065" d="M 78.646181 -327.648125 
L 78.646181 -181.428125 
L 152.557138 -181.428125 
L 226.468094 -181.428125 
L 300.379051 -181.428125 
L 374.290008 -181.428125 
L 448.200965 -181.428125 
L 522.111922 -181.428125 
L 596.022879 -181.428125 
L 669.933836 -181.428125 
L 743.844793 -181.428125 
L 743.844793 -327.648125 
L 743.844793 -327.648125 
L 669.933836 -327.648125 
L 596.022879 -327.648125 
L 522.111922 -327.648125 
L 448.200965 -327.648125 
L 374.290008 -327.648125 
L 300.379051 -327.648125 
L 226.468094 -327.648125 
L 152.557138 -327.648125 
L 78.646181 -327.648125 
z
" style="stroke: #008000; stroke-opacity: 0.1"/>
    </defs>
    <g clip-path="url(#p9cad4ecce5)">
     <use xlink:href="#mde7bfe9065" x="0" y="497.21375" style="fill: #008000; fill-opacity: 0.1; stroke: #008000; stroke-opacity: 0.1"/>
    </g>
   </g>
   <g id="line2d_121">
    <path d="M 78.646181 61.57329 
L 152.557138 99.800955 
L 226.468094 138.02862 
L 300.379051 176.256285 
L 374.290008 214.48395 
L 448.200965 252.711615 
L 522.111922 290.93928 
L 596.022879 329.166946 
L 669.933836 367.394611 
L 743.844793 405.622276 
" clip-path="url(#p9cad4ecce5)" style="fill: none; stroke: #d32f2f; stroke-width: 3; stroke-linecap: round"/>
    <defs>
     <path id="m5c8d5d952c" d="M 0 5 
C 1.326016 5 2.597899 4.473168 3.535534 3.535534 
C 4.473168 2.597899 5 1.326016 5 0 
C 5 -1.326016 4.473168 -2.597899 3.535534 -3.535534 
C 2.597899 -4.473168 1.326016 -5 0 -5 
C -1.326016 -5 -2.597899 -4.473168 -3.535534 -3.535534 
C -4.473168 -2.597899 -5 -1.326016 -5 0 
C -5 1.326016 -4.473168 2.597899 -3.535534 3.535534 
C -2.597899 4.473168 -1.326016 5 0 5 
z
" style="stroke: #d32f2f"/>
    </defs>
    <g clip-path="url(#p9cad4ecce5)">
     <use xlink:href="#m5c8d5d952c" x="78.646181" y="61.57329" style="fill: #d32f2f; stroke: #d32f2f"/>
     <use xlink:href="#m5c8d5d952c" x="152.557138" y="99.800955" style="fill: #d32f2f; stroke: #d32f2f"/>
     <use xlink:href="#m5c8d5d952c" x="226.468094" y="138.02862" style="fill: #d32f2f; stroke: #d32f2f"/>
     <use xlink:href="#m5c8d5d952c" x="300.379051" y="176.256285" style="fill: #d32f2f; stroke: #d32f2f"/>
     <use xlink:href="#m5c8d5d952c" x="374.290008" y="214.48395" style="fill: #d32f2f; stroke: #d32f2f"/>
     <use xlink:href="#m5c8d5d952c" x="448.200965" y="252.711615" style="fill: #d32f2f; stroke: #d32f2f"/>
     <use xlink:href="#m5c8d5d952c" x="522.111922" y="290.93928" style="fill: #d32f2f; stroke: #d32f2f"/>
     <use xlink:href="#m5c8d5d952c" x="596.022879" y="329.166946" style="fill: #d32f2f; stroke: #d32f2f"/>
     <use xlink:href="#m5c8d5d952c" x="669.933836" y="367.394611" style="fill: #d32f2f; stroke: #d32f2f"/>
     <use xlink:href="#m5c8d5d952c" x="743.844793" y="405.622276" style="fill: #d32f2f; stroke: #d32f2f"/>
    </g>
   </g>
   <g id="line2d_122">
    <path d="M 45.38625 169.565625 
L 777.104723 169.565625 
" clip-path="url(#p9cad4ecce5)" style="fill: none; stroke-dasharray: 7.4,3.2; stroke-dashoffset: 0; stroke: #008000; stroke-opacity: 0.7; stroke-width: 2"/>
   </g>
   <g id="line2d_123">
    <path d="M 45.38625 242.675625 
L 777.104723 242.675625 
" clip-path="url(#p9cad4ecce5)" style="fill: none; stroke-dasharray: 7.4,3.2; stroke-dashoffset: 0; stroke: #006400; stroke-opacity: 0.7; stroke-width: 2"/>
   </g>
   <g id="patch_3">
    <path d="M 45.38625 462.005625 
L 45.38625 23.345625 
" style="fill: none"/>
   </g>
   <g id="patch_4">
    <path d="M 777.104723 462.005625 
L 777.104723 23.345625 
" style="fill: none"/>
   </g>
   <g id="patch_5">
    <path d="M 45.38625 462.005625 
L 777.104723 462.005625 
" style="fill: none"/>
   </g>
   <g id="patch_6">
    <path d="M 45.38625 23.345625 
L 777.104723 23.345625 
" style="fill: none"/>
   </g>
   <g id="patch_7">
    <path d="M 528.896922 106.58899 
Q 452.413257 159.964365 377.763287 212.060066 
" style="fill: none; stroke: #000000; stroke-width: 2; stroke-linecap: round"/>
    <path d="M 383.073032 211.281214 
L 377.763287 212.060066 
L 380.326052 207.344959 
" style="fill: none; stroke: #000000; stroke-width: 2; stroke-linecap: round"/>
   </g>
   <g id="text_15">
    <g id="patch_8">
     <path d="M 522.111922 104.945625 
L 592.137547 104.945625 
Q 598.137547 104.945625 598.137547 98.945625 
L 598.137547 74.833875 
Q 598.137547 68.833875 592.137547 68.833875 
L 522.111922 68.833875 
Q 516.111922 68.833875 516.111922 74.833875 
L 516.111922 98.945625 
Q 516.111922 104.945625 522.111922 104.945625 
z
" style="fill: #ffff00; opacity: 0.6; stroke: #000000; stroke-linejoin: miter"/>
    </g>
    <!-- Exponential -->
    <g style="fill: #262626" transform="translate(522.111922 83.530125) scale(0.12 -0.12)">
     <use xlink:href="#LiberationSans-Bold-45"/>
     <use xlink:href="#LiberationSans-Bold-78" transform="translate(66.699219 0)"/>
     <use xlink:href="#LiberationSans-Bold-70" transform="translate(122.314453 0)"/>
     <use xlink:href="#LiberationSans-Bold-6f" transform="translate(183.398438 0)"/>
     <use xlink:href="#LiberationSans-Bold-6e" transform="translate(244.482422 0)"/>
     <use xlink:href="#LiberationSans-Bold-65" transform="translate(305.566406 0)"/>
     <use xlink:href="#LiberationSans-Bold-6e" transform="translate(361.181641 0)"/>
     <use xlink:href="#LiberationSans-Bold-74" transform="translate(422.265625 0)"/>
     <use xlink:href="#LiberationSans-Bold-69" transform="translate(455.566406 0)"/>
     <use xlink:href="#LiberationSans-Bold-61" transform="translate(483.349609 0)"/>
     <use xlink:href="#LiberationSans-Bold-6c" transform="translate(538.964844 0)"/>
    </g>
    <!-- security in k -->
    <g style="fill: #262626" transform="translate(522.111922 96.455625) scale(0.12 -0.12)">
     <use xlink:href="#LiberationSans-Bold-73"/>
     <use xlink:href="#LiberationSans-Bold-65" transform="translate(55.615234 0)"/>
     <use xlink:href="#LiberationSans-Bold-63" transform="translate(111.230469 0)"/>
     <use xlink:href="#LiberationSans-Bold-75" transform="translate(166.845703 0)"/>
     <use xlink:href="#LiberationSans-Bold-72" transform="translate(227.929688 0)"/>
     <use xlink:href="#LiberationSans-Bold-69" transform="translate(266.845703 0)"/>
     <use xlink:href="#LiberationSans-Bold-74" transform="translate(294.628906 0)"/>
     <use xlink:href="#LiberationSans-Bold-79" transform="translate(327.929688 0)"/>
     <use xlink:href="#LiberationSans-Bold-20" transform="translate(383.544922 0)"/>
     <use xlink:href="#LiberationSans-Bold-69" transform="translate(411.328125 0)"/>
     <use xlink:href="#LiberationSans-Bold-6e" transform="translate(439.111328 0)"/>
     <use xlink:href="#LiberationSans-Bold-20" transform="translate(500.195312 0)"/>
     <use xlink:href="#LiberationSans-Bold-6b" transform="translate(527.978516 0)"/>
    </g>
   </g>
   <g id="text_16">
    <g id="patch_9">
     <path d="M 298.595399 397.778125 
L 449.984618 397.778125 
Q 456.584618 397.778125 456.584618 391.178125 
L 456.584618 368.979438 
Q 456.584618 362.379438 449.984618 362.379438 
L 298.595399 362.379438 
Q 291.995399 362.379438 291.995399 368.979438 
L 291.995399 391.178125 
Q 291.995399 397.778125 298.595399 397.778125 
z
" style="fill: #ffffff; stroke: #000000; stroke-width: 2; stroke-linejoin: miter"/>
    </g>
    <!-- P(all layers pass | defect) = ^k -->
    <g style="fill: #262626" transform="translate(298.595399 376.999125) scale(0.11 -0.11)">
     <defs>
      <path id="LiberationSans-50" d="M 3931 3078 
Q 3931 2453 3523 2084 
Q 3116 1716 2416 1716 
L 1122 1716 
L 1122 0 
L 525 0 
L 525 4403 
L 2378 4403 
Q 3119 4403 3525 4056 
Q 3931 3709 3931 3078 
z
M 3331 3072 
Q 3331 3925 2306 3925 
L 1122 3925 
L 1122 2188 
L 2331 2188 
Q 3331 2188 3331 3072 
z
" transform="scale(0.015625)"/>
      <path id="LiberationSans-28" d="M 397 1663 
Q 397 2566 680 3284 
Q 963 4003 1550 4638 
L 2094 4638 
Q 1509 3988 1236 3256 
Q 963 2525 963 1656 
Q 963 791 1233 62 
Q 1503 -666 2094 -1325 
L 1550 -1325 
Q 959 -688 678 32 
Q 397 753 397 1650 
L 397 1663 
z
" transform="scale(0.015625)"/>
      <path id="LiberationSans-61" d="M 1294 -63 
Q 784 -63 528 206 
Q 272 475 272 944 
Q 272 1469 617 1750 
Q 963 2031 1731 2050 
L 2491 2063 
L 2491 2247 
Q 2491 2659 2316 2837 
Q 2141 3016 1766 3016 
Q 1388 3016 1216 2887 
Q 1044 2759 1009 2478 
L 422 2531 
Q 566 3444 1778 3444 
Q 2416 3444 2737 3151 
Q 3059 2859 3059 2306 
L 3059 850 
Q 3059 600 3125 473 
Q 3191 347 3375 347 
Q 3456 347 3559 369 
L 3559 19 
Q 3347 -31 3125 -31 
Q 2813 -31 2670 133 
Q 2528 297 2509 647 
L 2491 647 
Q 2275 259 1989 98 
Q 1703 -63 1294 -63 
z
M 1422 359 
Q 1731 359 1972 500 
Q 2213 641 2352 886 
Q 2491 1131 2491 1391 
L 2491 1669 
L 1875 1656 
Q 1478 1650 1273 1575 
Q 1069 1500 959 1344 
Q 850 1188 850 934 
Q 850 659 998 509 
Q 1147 359 1422 359 
z
" transform="scale(0.015625)"/>
      <path id="LiberationSans-6c" d="M 431 0 
L 431 4638 
L 994 4638 
L 994 0 
L 431 0 
z
" transform="scale(0.015625)"/>
      <path id="LiberationSans-20" transform="scale(0.015625)"/>
      <path id="LiberationSans-79" d="M 597 -1328 
Q 366 -1328 209 -1294 
L 209 -872 
Q 328 -891 472 -891 
Q 997 -891 1303 -119 
L 1356 16 
L 16 3381 
L 616 3381 
L 1328 1513 
Q 1344 1469 1366 1408 
Q 1388 1347 1506 1000 
Q 1625 653 1634 613 
L 1853 1228 
L 2594 3381 
L 3188 3381 
L 1888 0 
Q 1678 -541 1497 -805 
Q 1316 -1069 1095 -1198 
Q 875 -1328 597 -1328 
z
" transform="scale(0.015625)"/>
      <path id="LiberationSans-65" d="M 863 1572 
Q 863 991 1103 675 
Q 1344 359 1806 359 
Q 2172 359 2392 506 
Q 2613 653 2691 878 
L 3184 738 
Q 2881 -63 1806 -63 
Q 1056 -63 664 384 
Q 272 831 272 1713 
Q 272 2550 664 2997 
Q 1056 3444 1784 3444 
Q 3275 3444 3275 1647 
L 3275 1572 
L 863 1572 
z
M 2694 2003 
Q 2647 2538 2422 2783 
Q 2197 3028 1775 3028 
Q 1366 3028 1127 2754 
Q 888 2481 869 2003 
L 2694 2003 
z
" transform="scale(0.015625)"/>
      <path id="LiberationSans-72" d="M 444 0 
L 444 2594 
Q 444 2950 425 3381 
L 956 3381 
Q 981 2806 981 2691 
L 994 2691 
Q 1128 3125 1303 3284 
Q 1478 3444 1797 3444 
Q 1909 3444 2025 3413 
L 2025 2897 
Q 1913 2928 1725 2928 
Q 1375 2928 1190 2626 
Q 1006 2325 1006 1763 
L 1006 0 
L 444 0 
z
" transform="scale(0.015625)"/>
      <path id="LiberationSans-73" d="M 2969 934 
Q 2969 456 2608 196 
Q 2247 -63 1597 -63 
Q 966 -63 623 145 
Q 281 353 178 794 
L 675 891 
Q 747 619 972 492 
Q 1197 366 1597 366 
Q 2025 366 2223 497 
Q 2422 628 2422 891 
Q 2422 1091 2284 1216 
Q 2147 1341 1841 1422 
L 1438 1528 
Q 953 1653 748 1773 
Q 544 1894 428 2066 
Q 313 2238 313 2488 
Q 313 2950 642 3192 
Q 972 3434 1603 3434 
Q 2163 3434 2492 3237 
Q 2822 3041 2909 2606 
L 2403 2544 
Q 2356 2769 2151 2889 
Q 1947 3009 1603 3009 
Q 1222 3009 1040 2893 
Q 859 2778 859 2544 
Q 859 2400 934 2306 
Q 1009 2213 1156 2147 
Q 1303 2081 1775 1966 
Q 2222 1853 2419 1758 
Q 2616 1663 2730 1547 
Q 2844 1431 2906 1279 
Q 2969 1128 2969 934 
z
" transform="scale(0.015625)"/>
      <path id="LiberationSans-70" d="M 3291 1706 
Q 3291 -63 2047 -63 
Q 1266 -63 997 525 
L 981 525 
Q 994 500 994 -6 
L 994 -1328 
L 431 -1328 
L 431 2691 
Q 431 3213 413 3381 
L 956 3381 
Q 959 3369 965 3292 
Q 972 3216 980 3056 
Q 988 2897 988 2838 
L 1000 2838 
Q 1150 3150 1397 3295 
Q 1644 3441 2047 3441 
Q 2672 3441 2981 3022 
Q 3291 2603 3291 1706 
z
M 2700 1694 
Q 2700 2400 2509 2703 
Q 2319 3006 1903 3006 
Q 1569 3006 1380 2865 
Q 1191 2725 1092 2426 
Q 994 2128 994 1650 
Q 994 984 1206 668 
Q 1419 353 1897 353 
Q 2316 353 2508 661 
Q 2700 969 2700 1694 
z
" transform="scale(0.015625)"/>
      <path id="LiberationSans-7c" d="M 572 -1356 
L 572 4638 
L 1091 4638 
L 1091 -1356 
L 572 -1356 
z
" transform="scale(0.015625)"/>
      <path id="LiberationSans-64" d="M 2566 544 
Q 2409 219 2151 78 
Q 1894 -63 1513 -63 
Q 872 -63 570 368 
Q 269 800 269 1675 
Q 269 3444 1513 3444 
Q 1897 3444 2153 3303 
Q 2409 3163 2566 2856 
L 2572 2856 
L 2566 3234 
L 2566 4638 
L 3128 4638 
L 3128 697 
Q 3128 169 3147 0 
L 2609 0 
Q 2600 50 2589 231 
Q 2578 413 2578 544 
L 2566 544 
z
M 859 1694 
Q 859 984 1046 678 
Q 1234 372 1656 372 
Q 2134 372 2350 703 
Q 2566 1034 2566 1731 
Q 2566 2403 2350 2715 
Q 2134 3028 1663 3028 
Q 1238 3028 1048 2714 
Q 859 2400 859 1694 
z
" transform="scale(0.015625)"/>
      <path id="LiberationSans-66" d="M 1128 2972 
L 1128 0 
L 566 0 
L 566 2972 
L 91 2972 
L 91 3381 
L 566 3381 
L 566 3763 
Q 566 4225 769 4428 
Q 972 4631 1391 4631 
Q 1625 4631 1788 4594 
L 1788 4166 
Q 1647 4191 1538 4191 
Q 1322 4191 1225 4081 
Q 1128 3972 1128 3684 
L 1128 3381 
L 1788 3381 
L 1788 2972 
L 1128 2972 
z
" transform="scale(0.015625)"/>
      <path id="LiberationSans-63" d="M 859 1706 
Q 859 1031 1071 706 
Q 1284 381 1713 381 
Q 2013 381 2214 543 
Q 2416 706 2463 1044 
L 3031 1006 
Q 2966 519 2616 228 
Q 2266 -63 1728 -63 
Q 1019 -63 645 385 
Q 272 834 272 1694 
Q 272 2547 647 2995 
Q 1022 3444 1722 3444 
Q 2241 3444 2583 3175 
Q 2925 2906 3013 2434 
L 2434 2391 
Q 2391 2672 2212 2837 
Q 2034 3003 1706 3003 
Q 1259 3003 1059 2706 
Q 859 2409 859 1706 
z
" transform="scale(0.015625)"/>
      <path id="LiberationSans-74" d="M 1731 25 
Q 1453 -50 1163 -50 
Q 488 -50 488 716 
L 488 2972 
L 97 2972 
L 97 3381 
L 509 3381 
L 675 4138 
L 1050 4138 
L 1050 3381 
L 1675 3381 
L 1675 2972 
L 1050 2972 
L 1050 838 
Q 1050 594 1129 495 
Q 1209 397 1406 397 
Q 1519 397 1731 441 
L 1731 25 
z
" transform="scale(0.015625)"/>
      <path id="LiberationSans-29" d="M 1734 1650 
Q 1734 747 1451 28 
Q 1169 -691 581 -1325 
L 38 -1325 
Q 625 -669 897 57 
Q 1169 784 1169 1656 
Q 1169 2528 895 3256 
Q 622 3984 38 4638 
L 581 4638 
Q 1172 4000 1453 3279 
Q 1734 2559 1734 1663 
L 1734 1650 
z
" transform="scale(0.015625)"/>
      <path id="LiberationSans-3d" d="M 313 2675 
L 313 3138 
L 3422 3138 
L 3422 2675 
L 313 2675 
z
M 313 1075 
L 313 1538 
L 3422 1538 
L 3422 1075 
L 313 1075 
z
" transform="scale(0.015625)"/>
      <path id="LiberationSans-3b5" d="M 1425 356 
Q 1697 356 1958 495 
Q 2219 634 2403 859 
L 2731 547 
Q 2481 244 2140 90 
Q 1800 -63 1388 -63 
Q 822 -63 520 196 
Q 219 456 219 922 
Q 219 1266 451 1497 
Q 684 1728 1044 1763 
L 1044 1769 
Q 713 1806 517 2018 
Q 322 2231 322 2541 
Q 322 2947 639 3195 
Q 956 3444 1472 3444 
Q 2256 3444 2647 2866 
L 2247 2591 
Q 1959 3025 1475 3025 
Q 1191 3025 1041 2892 
Q 891 2759 891 2528 
Q 891 2244 1134 2111 
Q 1378 1978 2009 1978 
L 2009 1556 
Q 1531 1556 1293 1495 
Q 1056 1434 929 1300 
Q 803 1166 803 931 
Q 803 659 970 507 
Q 1138 356 1425 356 
z
" transform="scale(0.015625)"/>
      <path id="LiberationSans-5e" d="M 2459 2103 
L 1494 4081 
L 538 2103 
L 31 2103 
L 1181 4403 
L 1816 4403 
L 2972 2103 
L 2459 2103 
z
" transform="scale(0.015625)"/>
      <path id="LiberationSans-6b" d="M 2550 0 
L 1406 1544 
L 994 1203 
L 994 0 
L 431 0 
L 431 4638 
L 994 4638 
L 994 1741 
L 2478 3381 
L 3138 3381 
L 1766 1928 
L 3209 0 
L 2550 0 
z
" transform="scale(0.015625)"/>
     </defs>
     <use xlink:href="#LiberationSans-50"/>
     <use xlink:href="#LiberationSans-28" transform="translate(66.699219 0)"/>
     <use xlink:href="#LiberationSans-61" transform="translate(100 0)"/>
     <use xlink:href="#LiberationSans-6c" transform="translate(155.615234 0)"/>
     <use xlink:href="#LiberationSans-6c" transform="translate(177.832031 0)"/>
     <use xlink:href="#LiberationSans-20" transform="translate(200.048828 0)"/>
     <use xlink:href="#LiberationSans-6c" transform="translate(227.832031 0)"/>
     <use xlink:href="#LiberationSans-61" transform="translate(250.048828 0)"/>
     <use xlink:href="#LiberationSans-79" transform="translate(305.664062 0)"/>
     <use xlink:href="#LiberationSans-65" transform="translate(355.664062 0)"/>
     <use xlink:href="#LiberationSans-72" transform="translate(411.279297 0)"/>
     <use xlink:href="#LiberationSans-73" transform="translate(444.580078 0)"/>
     <use xlink:href="#LiberationSans-20" transform="translate(494.580078 0)"/>
     <use xlink:href="#LiberationSans-70" transform="translate(522.363281 0)"/>
     <use xlink:href="#LiberationSans-61" transform="translate(577.978516 0)"/>
     <use xlink:href="#LiberationSans-73" transform="translate(633.59375 0)"/>
     <use xlink:href="#LiberationSans-73" transform="translate(683.59375 0)"/>
     <use xlink:href="#LiberationSans-20" transform="translate(733.59375 0)"/>
     <use xlink:href="#LiberationSans-7c" transform="translate(761.376953 0)"/>
     <use xlink:href="#LiberationSans-20" transform="translate(787.353516 0)"/>
     <use xlink:href="#LiberationSans-64" transform="translate(815.136719 0)"/>
     <use xlink:href="#LiberationSans-65" transform="translate(870.751953 0)"/>
     <use xlink:href="#LiberationSans-66" transform="translate(926.367188 0)"/>
     <use xlink:href="#LiberationSans-65" transform="translate(954.150391 0)"/>
     <use xlink:href="#LiberationSans-63" transform="translate(1009.765625 0)"/>
     <use xlink:href="#LiberationSans-74" transform="translate(1059.765625 0)"/>
     <use xlink:href="#LiberationSans-29" transform="translate(1087.548828 0)"/>
     <use xlink:href="#LiberationSans-20" transform="translate(1120.849609 0)"/>
     <use xlink:href="#LiberationSans-3d" transform="translate(1148.632812 0)"/>
     <use xlink:href="#LiberationSans-20" transform="translate(1207.03125 0)"/>
     <use xlink:href="#LiberationSans-3b5" transform="translate(1234.814453 0)"/>
     <use xlink:href="#LiberationSans-5e" transform="translate(1279.394531 0)"/>
     <use xlink:href="#LiberationSans-6b" transform="translate(1326.318359 0)"/>
    </g>
    <!-- For  = 0.3, k = 5  P  0.2% -->
    <g style="fill: #262626" transform="translate(302.276102 388.895625) scale(0.11 -0.11)">
     <defs>
      <path id="LiberationSans-46" d="M 1122 3916 
L 1122 2278 
L 3578 2278 
L 3578 1784 
L 1122 1784 
L 1122 0 
L 525 0 
L 525 4403 
L 3653 4403 
L 3653 3916 
L 1122 3916 
z
" transform="scale(0.015625)"/>
      <path id="LiberationSans-6f" d="M 3291 1694 
Q 3291 806 2900 371 
Q 2509 -63 1766 -63 
Q 1025 -63 647 389 
Q 269 841 269 1694 
Q 269 3444 1784 3444 
Q 2559 3444 2925 3017 
Q 3291 2591 3291 1694 
z
M 2700 1694 
Q 2700 2394 2492 2711 
Q 2284 3028 1794 3028 
Q 1300 3028 1079 2704 
Q 859 2381 859 1694 
Q 859 1025 1076 689 
Q 1294 353 1759 353 
Q 2266 353 2483 678 
Q 2700 1003 2700 1694 
z
" transform="scale(0.015625)"/>
      <path id="LiberationSans-2e" d="M 584 0 
L 584 684 
L 1194 684 
L 1194 0 
L 584 0 
z
" transform="scale(0.015625)"/>
      <path id="LiberationSans-2c" d="M 1203 684 
L 1203 159 
Q 1203 -172 1143 -394 
Q 1084 -616 959 -819 
L 575 -819 
Q 869 -394 869 0 
L 594 0 
L 594 684 
L 1203 684 
z
" transform="scale(0.015625)"/>
      <path id="LiberationSans-2192" d="M 4397 1197 
Q 4219 1406 4025 1813 
L 4250 1813 
Q 4647 1347 5094 1119 
L 5094 1006 
Q 4647 778 4250 313 
L 4025 313 
Q 4219 719 4397 928 
L 1306 928 
L 1306 1197 
L 4397 1197 
z
" transform="scale(0.015625)"/>
      <path id="LiberationSans-2248" d="M 2525 2369 
Q 2309 2369 2082 2436 
Q 1856 2503 1628 2584 
Q 1213 2725 950 2725 
Q 753 2725 575 2667 
Q 397 2609 175 2450 
L 175 2900 
Q 531 3163 997 3163 
Q 1319 3163 1731 3016 
Q 2075 2891 2254 2841 
Q 2434 2791 2575 2791 
Q 2981 2791 3338 3084 
L 3338 2619 
Q 3156 2488 2973 2428 
Q 2791 2369 2525 2369 
z
M 2525 1050 
Q 2309 1050 2082 1119 
Q 1856 1188 1628 1269 
Q 1213 1416 950 1416 
Q 741 1416 559 1352 
Q 378 1288 175 1141 
L 175 1581 
Q 522 1844 997 1844 
Q 1159 1844 1357 1803 
Q 1556 1763 1963 1619 
Q 2059 1581 2246 1529 
Q 2434 1478 2575 1478 
Q 2981 1478 3338 1766 
L 3338 1306 
Q 3131 1159 2954 1104 
Q 2778 1050 2525 1050 
z
" transform="scale(0.015625)"/>
      <path id="LiberationSans-25" d="M 5463 1356 
Q 5463 684 5209 323 
Q 4956 -38 4463 -38 
Q 3975 -38 3726 314 
Q 3478 666 3478 1356 
Q 3478 2069 3717 2417 
Q 3956 2766 4475 2766 
Q 4988 2766 5225 2408 
Q 5463 2050 5463 1356 
z
M 1647 0 
L 1163 0 
L 4044 4403 
L 4534 4403 
L 1647 0 
z
M 1231 4441 
Q 1728 4441 1968 4091 
Q 2209 3741 2209 3047 
Q 2209 2369 1961 2003 
Q 1713 1638 1219 1638 
Q 725 1638 476 2000 
Q 228 2363 228 3047 
Q 228 3744 468 4092 
Q 709 4441 1231 4441 
z
M 5000 1356 
Q 5000 1916 4879 2167 
Q 4759 2419 4475 2419 
Q 4191 2419 4064 2172 
Q 3938 1925 3938 1356 
Q 3938 822 4061 564 
Q 4184 306 4469 306 
Q 4744 306 4872 567 
Q 5000 828 5000 1356 
z
M 1750 3047 
Q 1750 3597 1631 3850 
Q 1513 4103 1231 4103 
Q 938 4103 813 3854 
Q 688 3606 688 3047 
Q 688 2506 813 2248 
Q 938 1991 1225 1991 
Q 1497 1991 1623 2253 
Q 1750 2516 1750 3047 
z
" transform="scale(0.015625)"/>
     </defs>
     <use xlink:href="#LiberationSans-46"/>
     <use xlink:href="#LiberationSans-6f" transform="translate(61.083984 0)"/>
     <use xlink:href="#LiberationSans-72" transform="translate(116.699219 0)"/>
     <use xlink:href="#LiberationSans-20" transform="translate(150 0)"/>
     <use xlink:href="#LiberationSans-3b5" transform="translate(177.783203 0)"/>
     <use xlink:href="#LiberationSans-20" transform="translate(222.363281 0)"/>
     <use xlink:href="#LiberationSans-3d" transform="translate(250.146484 0)"/>
     <use xlink:href="#LiberationSans-20" transform="translate(308.544922 0)"/>
     <use xlink:href="#LiberationSans-30" transform="translate(336.328125 0)"/>
     <use xlink:href="#LiberationSans-2e" transform="translate(391.943359 0)"/>
     <use xlink:href="#LiberationSans-33" transform="translate(419.726562 0)"/>
     <use xlink:href="#LiberationSans-2c" transform="translate(475.341797 0)"/>
     <use xlink:href="#LiberationSans-20" transform="translate(503.125 0)"/>
     <use xlink:href="#LiberationSans-6b" transform="translate(530.908203 0)"/>
     <use xlink:href="#LiberationSans-20" transform="translate(580.908203 0)"/>
     <use xlink:href="#LiberationSans-3d" transform="translate(608.691406 0)"/>
     <use xlink:href="#LiberationSans-20" transform="translate(667.089844 0)"/>
     <use xlink:href="#LiberationSans-35" transform="translate(694.873047 0)"/>
     <use xlink:href="#LiberationSans-20" transform="translate(750.488281 0)"/>
     <use xlink:href="#LiberationSans-2192" transform="translate(778.271484 0)"/>
     <use xlink:href="#LiberationSans-20" transform="translate(878.271484 0)"/>
     <use xlink:href="#LiberationSans-50" transform="translate(906.054688 0)"/>
     <use xlink:href="#LiberationSans-20" transform="translate(971.003906 0)"/>
     <use xlink:href="#LiberationSans-2248" transform="translate(998.787109 0)"/>
     <use xlink:href="#LiberationSans-20" transform="translate(1053.669922 0)"/>
     <use xlink:href="#LiberationSans-30" transform="translate(1081.453125 0)"/>
     <use xlink:href="#LiberationSans-2e" transform="translate(1137.068359 0)"/>
     <use xlink:href="#LiberationSans-32" transform="translate(1164.851562 0)"/>
     <use xlink:href="#LiberationSans-25" transform="translate(1220.466797 0)"/>
    </g>
   </g>
   <g id="text_17">
    <!-- Multi-Layer Verification Security: P(exploit) = ^k (Proposition 4.2) -->
    <g style="fill: #262626" transform="translate(192.055799 17.345625) scale(0.14 -0.14)">
     <defs>
      <path id="LiberationSans-Bold-4d" d="M 4084 0 
L 4084 2669 
Q 4084 2759 4086 2850 
Q 4088 2941 4116 3628 
Q 3894 2788 3788 2456 
L 2994 0 
L 2338 0 
L 1544 2456 
L 1209 3628 
Q 1247 2903 1247 2669 
L 1247 0 
L 428 0 
L 428 4403 
L 1663 4403 
L 2450 1941 
L 2519 1703 
L 2669 1113 
L 2866 1819 
L 3675 4403 
L 4903 4403 
L 4903 0 
L 4084 0 
z
" transform="scale(0.015625)"/>
      <path id="LiberationSans-Bold-2d" d="M 250 1278 
L 250 2041 
L 1875 2041 
L 1875 1278 
L 250 1278 
z
" transform="scale(0.015625)"/>
      <path id="LiberationSans-Bold-3a" d="M 616 2350 
L 616 3231 
L 1516 3231 
L 1516 2350 
L 616 2350 
z
M 616 0 
L 616 878 
L 1516 878 
L 1516 0 
L 616 0 
z
" transform="scale(0.015625)"/>
      <path id="LiberationSans-Bold-3d" d="M 266 2631 
L 266 3328 
L 3475 3328 
L 3475 2631 
L 266 2631 
z
M 266 909 
L 266 1600 
L 3475 1600 
L 3475 909 
L 266 909 
z
" transform="scale(0.015625)"/>
      <path id="LiberationSans-Bold-3b5" d="M 1644 525 
Q 2075 525 2488 953 
L 2934 516 
Q 2706 281 2520 172 
Q 2334 63 2100 0 
Q 1866 -63 1553 -63 
Q 931 -63 586 196 
Q 241 456 241 928 
Q 241 1281 486 1495 
Q 731 1709 1141 1744 
L 1141 1750 
Q 769 1788 556 1997 
Q 344 2206 344 2538 
Q 344 2953 705 3198 
Q 1066 3444 1666 3444 
Q 2094 3444 2378 3325 
Q 2663 3206 2884 2916 
L 2378 2531 
Q 2247 2709 2089 2796 
Q 1931 2884 1716 2884 
Q 1453 2884 1315 2782 
Q 1178 2681 1178 2503 
Q 1178 2266 1398 2152 
Q 1619 2038 2203 2038 
L 2203 1484 
Q 1741 1484 1545 1437 
Q 1350 1391 1247 1283 
Q 1144 1175 1144 981 
Q 1144 756 1276 640 
Q 1409 525 1644 525 
z
" transform="scale(0.015625)"/>
      <path id="LiberationSans-Bold-5e" d="M 2881 1606 
L 1863 3956 
L 850 1606 
L 141 1606 
L 1363 4403 
L 2369 4403 
L 3597 1606 
L 2881 1606 
z
" transform="scale(0.015625)"/>
      <path id="LiberationSans-Bold-34" d="M 2938 897 
L 2938 0 
L 2100 0 
L 2100 897 
L 97 897 
L 97 1556 
L 1956 4403 
L 2938 4403 
L 2938 1550 
L 3525 1550 
L 3525 897 
L 2938 897 
z
M 2100 2991 
Q 2100 3159 2111 3356 
Q 2122 3553 2128 3609 
Q 2047 3434 1834 3103 
L 813 1550 
L 2100 1550 
L 2100 2991 
z
" transform="scale(0.015625)"/>
      <path id="LiberationSans-Bold-2e" d="M 434 0 
L 434 953 
L 1338 953 
L 1338 0 
L 434 0 
z
" transform="scale(0.015625)"/>
      <path id="LiberationSans-Bold-32" d="M 222 0 
L 222 609 
Q 394 988 711 1347 
Q 1028 1706 1509 2097 
Q 1972 2472 2158 2715 
Q 2344 2959 2344 3194 
Q 2344 3769 1766 3769 
Q 1484 3769 1336 3617 
Q 1188 3466 1144 3163 
L 259 3213 
Q 334 3825 717 4147 
Q 1100 4469 1759 4469 
Q 2472 4469 2853 4144 
Q 3234 3819 3234 3231 
Q 3234 2922 3112 2672 
Q 2991 2422 2800 2211 
Q 2609 2000 2376 1815 
Q 2144 1631 1925 1456 
Q 1706 1281 1526 1103 
Q 1347 925 1259 722 
L 3303 722 
L 3303 0 
L 222 0 
z
" transform="scale(0.015625)"/>
     </defs>
     <use xlink:href="#LiberationSans-Bold-4d"/>
     <use xlink:href="#LiberationSans-Bold-75" transform="translate(83.300781 0)"/>
     <use xlink:href="#LiberationSans-Bold-6c" transform="translate(144.384766 0)"/>
     <use xlink:href="#LiberationSans-Bold-74" transform="translate(172.167969 0)"/>
     <use xlink:href="#LiberationSans-Bold-69" transform="translate(205.46875 0)"/>
     <use xlink:href="#LiberationSans-Bold-2d" transform="translate(233.251953 0)"/>
     <use xlink:href="#LiberationSans-Bold-4c" transform="translate(266.552734 0)"/>
     <use xlink:href="#LiberationSans-Bold-61" transform="translate(327.636719 0)"/>
     <use xlink:href="#LiberationSans-Bold-79" transform="translate(383.251953 0)"/>
     <use xlink:href="#LiberationSans-Bold-65" transform="translate(438.867188 0)"/>
     <use xlink:href="#LiberationSans-Bold-72" transform="translate(494.482422 0)"/>
     <use xlink:href="#LiberationSans-Bold-20" transform="translate(533.398438 0)"/>
     <use xlink:href="#LiberationSans-Bold-56" transform="translate(561.181641 0)"/>
     <use xlink:href="#LiberationSans-Bold-65" transform="translate(622.380859 0)"/>
     <use xlink:href="#LiberationSans-Bold-72" transform="translate(677.996094 0)"/>
     <use xlink:href="#LiberationSans-Bold-69" transform="translate(716.912109 0)"/>
     <use xlink:href="#LiberationSans-Bold-66" transform="translate(744.695312 0)"/>
     <use xlink:href="#LiberationSans-Bold-69" transform="translate(777.996094 0)"/>
     <use xlink:href="#LiberationSans-Bold-63" transform="translate(805.779297 0)"/>
     <use xlink:href="#LiberationSans-Bold-61" transform="translate(861.394531 0)"/>
     <use xlink:href="#LiberationSans-Bold-74" transform="translate(917.009766 0)"/>
     <use xlink:href="#LiberationSans-Bold-69" transform="translate(950.310547 0)"/>
     <use xlink:href="#LiberationSans-Bold-6f" transform="translate(978.09375 0)"/>
     <use xlink:href="#LiberationSans-Bold-6e" transform="translate(1039.177734 0)"/>
     <use xlink:href="#LiberationSans-Bold-20" transform="translate(1100.261719 0)"/>
     <use xlink:href="#LiberationSans-Bold-53" transform="translate(1128.044922 0)"/>
     <use xlink:href="#LiberationSans-Bold-65" transform="translate(1194.744141 0)"/>
     <use xlink:href="#LiberationSans-Bold-63" transform="translate(1250.359375 0)"/>
     <use xlink:href="#LiberationSans-Bold-75" transform="translate(1305.974609 0)"/>
     <use xlink:href="#LiberationSans-Bold-72" transform="translate(1367.058594 0)"/>
     <use xlink:href="#LiberationSans-Bold-69" transform="translate(1405.974609 0)"/>
     <use xlink:href="#LiberationSans-Bold-74" transform="translate(1433.757812 0)"/>
     <use xlink:href="#LiberationSans-Bold-79" transform="translate(1467.058594 0)"/>
     <use xlink:href="#LiberationSans-Bold-3a" transform="translate(1522.673828 0)"/>
     <use xlink:href="#LiberationSans-Bold-20" transform="translate(1555.974609 0)"/>
     <use xlink:href="#LiberationSans-Bold-50" transform="translate(1583.757812 0)"/>
     <use xlink:href="#LiberationSans-Bold-28" transform="translate(1650.457031 0)"/>
     <use xlink:href="#LiberationSans-Bold-65" transform="translate(1683.757812 0)"/>
     <use xlink:href="#LiberationSans-Bold-78" transform="translate(1739.373047 0)"/>
     <use xlink:href="#LiberationSans-Bold-70" transform="translate(1794.988281 0)"/>
     <use xlink:href="#LiberationSans-Bold-6c" transform="translate(1856.072266 0)"/>
     <use xlink:href="#LiberationSans-Bold-6f" transform="translate(1883.855469 0)"/>
     <use xlink:href="#LiberationSans-Bold-69" transform="translate(1944.939453 0)"/>
     <use xlink:href="#LiberationSans-Bold-74" transform="translate(1972.722656 0)"/>
     <use xlink:href="#LiberationSans-Bold-29" transform="translate(2006.023438 0)"/>
     <use xlink:href="#LiberationSans-Bold-20" transform="translate(2039.324219 0)"/>
     <use xlink:href="#LiberationSans-Bold-3d" transform="translate(2067.107422 0)"/>
     <use xlink:href="#LiberationSans-Bold-20" transform="translate(2125.505859 0)"/>
     <use xlink:href="#LiberationSans-Bold-3b5" transform="translate(2153.289062 0)"/>
     <use xlink:href="#LiberationSans-Bold-5e" transform="translate(2200.75 0)"/>
     <use xlink:href="#LiberationSans-Bold-6b" transform="translate(2259.148438 0)"/>
     <use xlink:href="#LiberationSans-Bold-20" transform="translate(2314.763672 0)"/>
     <use xlink:href="#LiberationSans-Bold-28" transform="translate(2342.546875 0)"/>
     <use xlink:href="#LiberationSans-Bold-50" transform="translate(2375.847656 0)"/>
     <use xlink:href="#LiberationSans-Bold-72" transform="translate(2442.546875 0)"/>
     <use xlink:href="#LiberationSans-Bold-6f" transform="translate(2481.462891 0)"/>
     <use xlink:href="#LiberationSans-Bold-70" transform="translate(2542.546875 0)"/>
     <use xlink:href="#LiberationSans-Bold-6f" transform="translate(2603.630859 0)"/>
     <use xlink:href="#LiberationSans-Bold-73" transform="translate(2664.714844 0)"/>
     <use xlink:href="#LiberationSans-Bold-69" transform="translate(2720.330078 0)"/>
     <use xlink:href="#LiberationSans-Bold-74" transform="translate(2748.113281 0)"/>
     <use xlink:href="#LiberationSans-Bold-69" transform="translate(2781.414062 0)"/>
     <use xlink:href="#LiberationSans-Bold-6f" transform="translate(2809.197266 0)"/>
     <use xlink:href="#LiberationSans-Bold-6e" transform="translate(2870.28125 0)"/>
     <use xlink:href="#LiberationSans-Bold-20" transform="translate(2931.365234 0)"/>
     <use xlink:href="#LiberationSans-Bold-34" transform="translate(2959.148438 0)"/>
     <use xlink:href="#LiberationSans-Bold-2e" transform="translate(3014.763672 0)"/>
     <use xlink:href="#LiberationSans-Bold-32" transform="translate(3042.546875 0)"/>
     <use xlink:href="#LiberationSans-Bold-29" transform="translate(3098.162109 0)"/>
    </g>
   </g>
   <g id="legend_1">
    <g id="line2d_124">
     <path d="M 640.422848 37.367188 
L 651.422848 37.367188 
L 662.422848 37.367188 
" style="fill: none; stroke: #d32f2f; stroke-width: 3; stroke-linecap: round"/>
     <g>
      <use xlink:href="#m5c8d5d952c" x="651.422848" y="37.367188" style="fill: #d32f2f; stroke: #d32f2f"/>
     </g>
    </g>
    <g id="text_18">
     <!-- P(exploit succeeds) -->
     <g style="fill: #262626" transform="translate(671.222848 41.217188) scale(0.11 -0.11)">
      <defs>
       <path id="LiberationSans-78" d="M 2503 0 
L 1594 1388 
L 678 0 
L 72 0 
L 1275 1738 
L 128 3381 
L 750 3381 
L 1594 2066 
L 2431 3381 
L 3059 3381 
L 1913 1744 
L 3131 0 
L 2503 0 
z
" transform="scale(0.015625)"/>
       <path id="LiberationSans-69" d="M 428 4100 
L 428 4638 
L 991 4638 
L 991 4100 
L 428 4100 
z
M 428 0 
L 428 3381 
L 991 3381 
L 991 0 
L 428 0 
z
" transform="scale(0.015625)"/>
       <path id="LiberationSans-75" d="M 981 3381 
L 981 1238 
Q 981 903 1047 718 
Q 1113 534 1256 453 
Q 1400 372 1678 372 
Q 2084 372 2318 650 
Q 2553 928 2553 1422 
L 2553 3381 
L 3116 3381 
L 3116 722 
Q 3116 131 3134 0 
L 2603 0 
Q 2600 16 2597 84 
Q 2594 153 2589 242 
Q 2584 331 2578 578 
L 2569 578 
Q 2375 228 2120 82 
Q 1866 -63 1488 -63 
Q 931 -63 673 214 
Q 416 491 416 1128 
L 416 3381 
L 981 3381 
z
" transform="scale(0.015625)"/>
      </defs>
      <use xlink:href="#LiberationSans-50"/>
      <use xlink:href="#LiberationSans-28" transform="translate(66.699219 0)"/>
      <use xlink:href="#LiberationSans-65" transform="translate(100 0)"/>
      <use xlink:href="#LiberationSans-78" transform="translate(155.615234 0)"/>
      <use xlink:href="#LiberationSans-70" transform="translate(205.615234 0)"/>
      <use xlink:href="#LiberationSans-6c" transform="translate(261.230469 0)"/>
      <use xlink:href="#LiberationSans-6f" transform="translate(283.447266 0)"/>
      <use xlink:href="#LiberationSans-69" transform="translate(339.0625 0)"/>
      <use xlink:href="#LiberationSans-74" transform="translate(361.279297 0)"/>
      <use xlink:href="#LiberationSans-20" transform="translate(389.0625 0)"/>
      <use xlink:href="#LiberationSans-73" transform="translate(416.845703 0)"/>
      <use xlink:href="#LiberationSans-75" transform="translate(466.845703 0)"/>
      <use xlink:href="#LiberationSans-63" transform="translate(522.460938 0)"/>
      <use xlink:href="#LiberationSans-63" transform="translate(572.460938 0)"/>
      <use xlink:href="#LiberationSans-65" transform="translate(622.460938 0)"/>
      <use xlink:href="#LiberationSans-65" transform="translate(678.076172 0)"/>
      <use xlink:href="#LiberationSans-64" transform="translate(733.691406 0)"/>
      <use xlink:href="#LiberationSans-73" transform="translate(789.306641 0)"/>
      <use xlink:href="#LiberationSans-29" transform="translate(839.306641 0)"/>
     </g>
    </g>
    <g id="line2d_125">
     <path d="M 640.422848 53.12125 
L 651.422848 53.12125 
L 662.422848 53.12125 
" style="fill: none; stroke-dasharray: 7.4,3.2; stroke-dashoffset: 0; stroke: #008000; stroke-opacity: 0.7; stroke-width: 2"/>
    </g>
    <g id="text_19">
     <!-- 1% threshold -->
     <g style="fill: #262626" transform="translate(671.222848 56.97125) scale(0.11 -0.11)">
      <defs>
       <path id="LiberationSans-68" d="M 991 2803 
Q 1172 3134 1426 3289 
Q 1681 3444 2072 3444 
Q 2622 3444 2883 3170 
Q 3144 2897 3144 2253 
L 3144 0 
L 2578 0 
L 2578 2144 
Q 2578 2500 2512 2673 
Q 2447 2847 2297 2928 
Q 2147 3009 1881 3009 
Q 1484 3009 1245 2734 
Q 1006 2459 1006 1994 
L 1006 0 
L 444 0 
L 444 4638 
L 1006 4638 
L 1006 3431 
Q 1006 3241 995 3037 
Q 984 2834 981 2803 
L 991 2803 
z
" transform="scale(0.015625)"/>
      </defs>
      <use xlink:href="#LiberationSans-31"/>
      <use xlink:href="#LiberationSans-25" transform="translate(55.615234 0)"/>
      <use xlink:href="#LiberationSans-20" transform="translate(144.53125 0)"/>
      <use xlink:href="#LiberationSans-74" transform="translate(172.314453 0)"/>
      <use xlink:href="#LiberationSans-68" transform="translate(200.097656 0)"/>
      <use xlink:href="#LiberationSans-72" transform="translate(255.712891 0)"/>
      <use xlink:href="#LiberationSans-65" transform="translate(289.013672 0)"/>
      <use xlink:href="#LiberationSans-73" transform="translate(344.628906 0)"/>
      <use xlink:href="#LiberationSans-68" transform="translate(394.628906 0)"/>
      <use xlink:href="#LiberationSans-6f" transform="translate(450.244141 0)"/>
      <use xlink:href="#LiberationSans-6c" transform="translate(505.859375 0)"/>
      <use xlink:href="#LiberationSans-64" transform="translate(528.076172 0)"/>
     </g>
    </g>
    <g id="line2d_126">
     <path d="M 640.422848 68.875313 
L 651.422848 68.875313 
L 662.422848 68.875313 
" style="fill: none; stroke-dasharray: 7.4,3.2; stroke-dashoffset: 0; stroke: #006400; stroke-opacity: 0.7; stroke-width: 2"/>
    </g>
    <g id="text_20">
     <!-- 0.1% threshold -->
     <g style="fill: #262626" transform="translate(671.222848 72.725313) scale(0.11 -0.11)">
      <use xlink:href="#LiberationSans-30"/>
      <use xlink:href="#LiberationSans-2e" transform="translate(55.615234 0)"/>
      <use xlink:href="#LiberationSans-31" transform="translate(83.398438 0)"/>
      <use xlink:href="#LiberationSans-25" transform="translate(139.013672 0)"/>
      <use xlink:href="#LiberationSans-20" transform="translate(227.929688 0)"/>
      <use xlink:href="#LiberationSans-74" transform="translate(255.712891 0)"/>
      <use xlink:href="#LiberationSans-68" transform="translate(283.496094 0)"/>
      <use xlink:href="#LiberationSans-72" transform="translate(339.111328 0)"/>
      <use xlink:href="#LiberationSans-65" transform="translate(372.412109 0)"/>
      <use xlink:href="#LiberationSans-73" transform="translate(428.027344 0)"/>
      <use xlink:href="#LiberationSans-68" transform="translate(478.027344 0)"/>
      <use xlink:href="#LiberationSans-6f" transform="translate(533.642578 0)"/>
      <use xlink:href="#LiberationSans-6c" transform="translate(589.257812 0)"/>
      <use xlink:href="#LiberationSans-64" transform="translate(611.474609 0)"/>
     </g>
    </g>
    <g id="patch_10">
     <path d="M 640.422848 88.479375 
L 662.422848 88.479375 
L 662.422848 80.779375 
L 640.422848 80.779375 
z
" style="fill: #008000; fill-opacity: 0.1; stroke: #008000; stroke-opacity: 0.1; stroke-linejoin: miter"/>
    </g>
    <g id="text_21">
     <!-- Safe region -->
     <g style="fill: #262626" transform="translate(671.222848 88.479375) scale(0.11 -0.11)">
      <defs>
       <path id="LiberationSans-53" d="M 3975 1216 
Q 3975 606 3498 271 
Q 3022 -63 2156 -63 
Q 547 -63 291 1056 
L 869 1172 
Q 969 775 1294 589 
Q 1619 403 2178 403 
Q 2756 403 3070 601 
Q 3384 800 3384 1184 
Q 3384 1400 3286 1534 
Q 3188 1669 3009 1756 
Q 2831 1844 2584 1903 
Q 2338 1963 2038 2031 
Q 1516 2147 1245 2262 
Q 975 2378 819 2520 
Q 663 2663 580 2853 
Q 497 3044 497 3291 
Q 497 3856 930 4162 
Q 1363 4469 2169 4469 
Q 2919 4469 3316 4239 
Q 3713 4009 3872 3456 
L 3284 3353 
Q 3188 3703 2916 3861 
Q 2644 4019 2163 4019 
Q 1634 4019 1356 3844 
Q 1078 3669 1078 3322 
Q 1078 3119 1186 2986 
Q 1294 2853 1497 2761 
Q 1700 2669 2306 2534 
Q 2509 2488 2711 2439 
Q 2913 2391 3097 2323 
Q 3281 2256 3442 2165 
Q 3603 2075 3722 1944 
Q 3841 1813 3908 1634 
Q 3975 1456 3975 1216 
z
" transform="scale(0.015625)"/>
       <path id="LiberationSans-67" d="M 1713 -1328 
Q 1159 -1328 831 -1111 
Q 503 -894 409 -494 
L 975 -413 
Q 1031 -647 1223 -773 
Q 1416 -900 1728 -900 
Q 2569 -900 2569 84 
L 2569 628 
L 2563 628 
Q 2403 303 2125 139 
Q 1847 -25 1475 -25 
Q 853 -25 561 387 
Q 269 800 269 1684 
Q 269 2581 583 3007 
Q 897 3434 1538 3434 
Q 1897 3434 2161 3270 
Q 2425 3106 2569 2803 
L 2575 2803 
Q 2575 2897 2587 3128 
Q 2600 3359 2613 3381 
L 3147 3381 
Q 3128 3213 3128 2681 
L 3128 97 
Q 3128 -1328 1713 -1328 
z
M 2569 1691 
Q 2569 2103 2456 2401 
Q 2344 2700 2139 2858 
Q 1934 3016 1675 3016 
Q 1244 3016 1047 2703 
Q 850 2391 850 1691 
Q 850 997 1034 694 
Q 1219 391 1666 391 
Q 1931 391 2137 547 
Q 2344 703 2456 995 
Q 2569 1288 2569 1691 
z
" transform="scale(0.015625)"/>
       <path id="LiberationSans-6e" d="M 2578 0 
L 2578 2144 
Q 2578 2478 2512 2662 
Q 2447 2847 2303 2928 
Q 2159 3009 1881 3009 
Q 1475 3009 1240 2731 
Q 1006 2453 1006 1959 
L 1006 0 
L 444 0 
L 444 2659 
Q 444 3250 425 3381 
L 956 3381 
Q 959 3366 962 3297 
Q 966 3228 970 3139 
Q 975 3050 981 2803 
L 991 2803 
Q 1184 3153 1439 3298 
Q 1694 3444 2072 3444 
Q 2628 3444 2886 3167 
Q 3144 2891 3144 2253 
L 3144 0 
L 2578 0 
z
" transform="scale(0.015625)"/>
      </defs>
      <use xlink:href="#LiberationSans-53"/>
      <use xlink:href="#LiberationSans-61" transform="translate(66.699219 0)"/>
      <use xlink:href="#LiberationSans-66" transform="translate(122.314453 0)"/>
      <use xlink:href="#LiberationSans-65" transform="translate(150.097656 0)"/>
      <use xlink:href="#LiberationSans-20" transform="translate(205.712891 0)"/>
      <use xlink:href="#LiberationSans-72" transform="translate(233.496094 0)"/>
      <use xlink:href="#LiberationSans-65" transform="translate(266.796875 0)"/>
      <use xlink:href="#LiberationSans-67" transform="translate(322.412109 0)"/>
      <use xlink:href="#LiberationSans-69" transform="translate(378.027344 0)"/>
      <use xlink:href="#LiberationSans-6f" transform="translate(400.244141 0)"/>
      <use xlink:href="#LiberationSans-6e" transform="translate(455.859375 0)"/>
     </g>
    </g>
   </g>
  </g>
 </g>
 <defs>
  <clipPath id="p9cad4ecce5">
   <rect x="45.38625" y="23.345625" width="731.718473" height="438.66"/>
  </clipPath>
 </defs>
</svg>
